<ttFont>
<head>
    <!-- Most of this table will be recalculated by the compiler -->
    <tableVersion value="1.0"/>
    <fontRevision value="1.0"/>
    <checkSumAdjustment value="0x1bc0f0ea"/>
    <magicNumber value="0x5f0f3cf5"/>
    <flags value="00000000 00011011"/>
    <unitsPerEm value="1000"/>
    <created value="Tue Jan  8 12:46:00 2013"/>
    <modified value="Thu Nov  6 12:32:44 2014"/>
    <xMin value="-108"/>
    <yMin value="-294"/>
    <xMax value="1236"/>
    <yMax value="1107"/>
    <macStyle value="00000000 00000010"/>
    <lowestRecPPEM value="9"/>
    <fontDirectionHint value="2"/>
    <indexToLocFormat value="0"/>
    <glyphDataFormat value="0"/>
  </head>
    <TTGlyph name=".notdef" xMin="67" yMin="0" xMax="531" yMax="650">
      <contour>
        <pt x="67" y="650" on="1"/>
        <pt x="531" y="650" on="1"/>
        <pt x="531" y="0" on="1"/>
        <pt x="67" y="0" on="1"/>
      </contour>
      <contour>
        <pt x="457" y="604" on="1"/>
        <pt x="141" y="604" on="1"/>
        <pt x="300" y="367" on="1"/>
      </contour>
      <contour>
        <pt x="485" y="88" on="1"/>
        <pt x="485" y="562" on="1"/>
        <pt x="327" y="325" on="1"/>
      </contour>
      <contour>
        <pt x="457" y="47" on="1"/>
        <pt x="300" y="283" on="1"/>
        <pt x="141" y="47" on="1"/>
      </contour>
      <contour>
        <pt x="114" y="88" on="1"/>
        <pt x="271" y="325" on="1"/>
        <pt x="114" y="562" on="1"/>
      </contour>
    </TTGlyph>
    <TTGlyph name="A" xMin="-18" yMin="0" xMax="637" yMax="663">
      <contour>
        <pt x="461" y="133" on="1"/>
        <pt x="181" y="133" on="1"/>
        <pt x="125" y="12" on="1"/>
        <pt x="121" y="4" on="0"/>
        <pt x="113" y="0" on="0"/>
        <pt x="105" y="0" on="1"/>
        <pt x="-18" y="0" on="1"/>
        <pt x="304" y="663" on="1"/>
        <pt x="432" y="663" on="1"/>
        <pt x="442" y="663" on="0"/>
        <pt x="450" y="657" on="0"/>
        <pt x="452" y="649" on="1"/>
        <pt x="637" y="0" on="1"/>
        <pt x="512" y="0" on="1"/>
        <pt x="504" y="0" on="0"/>
        <pt x="495" y="4" on="0"/>
        <pt x="493" y="12" on="1"/>
      </contour>
      <contour>
        <pt x="234" y="244" on="1"/>
        <pt x="431" y="244" on="1"/>
        <pt x="416" y="298" on="1"/>
        <pt x="397" y="365" on="0"/>
        <pt x="370" y="489" on="0"/>
        <pt x="362" y="532" on="1"/>
        <pt x="355" y="514" on="0"/>
        <pt x="335" y="466" on="0"/>
        <pt x="311" y="411" on="0"/>
        <pt x="285" y="354" on="0"/>
        <pt x="273" y="327" on="1"/>
      </contour>
    </TTGlyph>
    <TTGlyph name="AE" xMin="-41" yMin="0" xMax="966" yMax="663">
      <contour>
        <pt x="122" y="12" on="1"/>
        <pt x="117" y="4" on="0"/>
        <pt x="107" y="0" on="0"/>
        <pt x="96" y="0" on="1"/>
        <pt x="-41" y="0" on="1"/>
        <pt x="448" y="663" on="1"/>
        <pt x="966" y="663" on="1"/>
        <pt x="952" y="547" on="1"/>
        <pt x="628" y="547" on="1"/>
        <pt x="610" y="396" on="1"/>
        <pt x="905" y="396" on="1"/>
        <pt x="891" y="281" on="1"/>
        <pt x="596" y="281" on="1"/>
        <pt x="577" y="116" on="1"/>
        <pt x="912" y="116" on="1"/>
        <pt x="898" y="0" on="1"/>
        <pt x="428" y="0" on="1"/>
        <pt x="434" y="51" on="0"/>
        <pt x="440" y="104" on="0"/>
        <pt x="442" y="117" on="1"/>
        <pt x="444" y="133" on="1"/>
        <pt x="209" y="133" on="1"/>
      </contour>
      <contour>
        <pt x="492" y="536" on="1"/>
        <pt x="480" y="518" on="0"/>
        <pt x="445" y="465" on="0"/>
        <pt x="403" y="403" on="0"/>
        <pt x="357" y="337" on="0"/>
        <pt x="334" y="306" on="1"/>
        <pt x="289" y="244" on="1"/>
        <pt x="457" y="244" on="1"/>
      </contour>
    </TTGlyph>
    <TTGlyph name="AEacute" xMin="-41" yMin="0" xMax="966" yMax="924">
      <component glyphName="AE" x="0" y="0" flags="0x204"/>
      <component glyphName="acute.cap" x="411" y="0" flags="0x4"/>
    </TTGlyph>
    <TTGlyph name="Aacute" xMin="-18" yMin="0" xMax="637" yMax="924">
      <component glyphName="A" x="0" y="0" flags="0x204"/>
      <component glyphName="acute.cap" x="138" y="0" flags="0x4"/>
    </TTGlyph>
    <TTGlyph name="Abreve" xMin="-18" yMin="0" xMax="637" yMax="894">
      <component glyphName="A" x="0" y="0" flags="0x204"/>
      <component glyphName="breve.cap" x="123" y="0" flags="0x4"/>
    </TTGlyph>
    <TTGlyph name="Acaron" xMin="-18" yMin="0" xMax="637" yMax="920">
      <component glyphName="A" x="0" y="0" flags="0x204"/>
      <component glyphName="caron.cap" x="120" y="0" flags="0x4"/>
    </TTGlyph>
    <TTGlyph name="Acircumflex" xMin="-18" yMin="0" xMax="637" yMax="909">
      <component glyphName="A" x="0" y="0" flags="0x204"/>
      <component glyphName="circumflex.cap" x="129" y="0" flags="0x4"/>
    </TTGlyph>
    <TTGlyph name="Adieresis" xMin="-18" yMin="0" xMax="637" yMax="869">
      <component glyphName="A" x="0" y="0" flags="0x204"/>
      <component glyphName="dieresis.cap" x="132" y="0" flags="0x4"/>
    </TTGlyph>
    <TTGlyph name="Agrave" xMin="-18" yMin="0" xMax="637" yMax="925">
      <component glyphName="A" x="0" y="0" flags="0x204"/>
      <component glyphName="grave.cap" x="141" y="0" flags="0x4"/>
    </TTGlyph>
    <TTGlyph name="Amacron" xMin="-18" yMin="0" xMax="637" yMax="859">
      <component glyphName="A" x="0" y="0" flags="0x204"/>
      <component glyphName="macron.cap" x="124" y="0" flags="0x4"/>
    </TTGlyph>
    <TTGlyph name="Aogonek" xMin="-18" yMin="-221" xMax="637" yMax="663">
      <contour>
        <pt x="565" y="0" on="1"/>
        <pt x="554" y="0" on="0"/>
        <pt x="543" y="-5" on="0"/>
        <pt x="533" y="-15" on="1"/>
        <pt x="527" y="-21" on="0"/>
        <pt x="513" y="-38" on="0"/>
        <pt x="501" y="-60" on="0"/>
        <pt x="492" y="-83" on="0"/>
        <pt x="492" y="-95" on="1"/>
        <pt x="492" y="-135" on="0"/>
        <pt x="540" y="-135" on="1"/>
        <pt x="547" y="-135" on="0"/>
        <pt x="563" y="-134" on="0"/>
        <pt x="571" y="-133" on="1"/>
        <pt x="605" y="-128" on="1"/>
        <pt x="616" y="-194" on="1"/>
        <pt x="592" y="-206" on="0"/>
        <pt x="534" y="-221" on="0"/>
        <pt x="511" y="-221" on="1"/>
        <pt x="457" y="-221" on="0"/>
        <pt x="392" y="-163" on="0"/>
        <pt x="392" y="-120" on="1"/>
        <pt x="392" y="-80" on="0"/>
        <pt x="448" y="-5" on="0"/>
        <pt x="490" y="25" on="1"/>
        <pt x="461" y="133" on="1"/>
        <pt x="181" y="133" on="1"/>
        <pt x="125" y="12" on="1"/>
        <pt x="121" y="4" on="0"/>
        <pt x="113" y="0" on="0"/>
        <pt x="105" y="0" on="1"/>
        <pt x="-18" y="0" on="1"/>
        <pt x="304" y="663" on="1"/>
        <pt x="432" y="663" on="1"/>
        <pt x="442" y="663" on="0"/>
        <pt x="450" y="657" on="0"/>
        <pt x="452" y="649" on="1"/>
        <pt x="637" y="0" on="1"/>
      </contour>
      <contour>
        <pt x="234" y="244" on="1"/>
        <pt x="431" y="244" on="1"/>
        <pt x="416" y="298" on="1"/>
        <pt x="397" y="365" on="0"/>
        <pt x="370" y="489" on="0"/>
        <pt x="362" y="532" on="1"/>
        <pt x="355" y="514" on="0"/>
        <pt x="335" y="466" on="0"/>
        <pt x="311" y="411" on="0"/>
        <pt x="285" y="354" on="0"/>
        <pt x="273" y="327" on="1"/>
      </contour>
    </TTGlyph>
    <TTGlyph name="Aring" xMin="-18" yMin="0" xMax="637" yMax="889">
      <contour>
        <pt x="637" y="0" on="1"/>
        <pt x="512" y="0" on="1"/>
        <pt x="504" y="0" on="0"/>
        <pt x="495" y="4" on="0"/>
        <pt x="493" y="12" on="1"/>
        <pt x="461" y="133" on="1"/>
        <pt x="181" y="133" on="1"/>
        <pt x="125" y="12" on="1"/>
        <pt x="121" y="4" on="0"/>
        <pt x="113" y="0" on="0"/>
        <pt x="105" y="0" on="1"/>
        <pt x="-18" y="0" on="1"/>
        <pt x="304" y="663" on="1"/>
        <pt x="285" y="677" on="0"/>
        <pt x="262" y="726" on="0"/>
        <pt x="262" y="755" on="1"/>
        <pt x="262" y="783" on="0"/>
        <pt x="282" y="832" on="0"/>
        <pt x="318" y="868" on="0"/>
        <pt x="367" y="889" on="0"/>
        <pt x="396" y="889" on="1"/>
        <pt x="450" y="889" on="0"/>
        <pt x="516" y="823" on="0"/>
        <pt x="516" y="773" on="1"/>
        <pt x="516" y="734" on="0"/>
        <pt x="478" y="672" on="0"/>
        <pt x="449" y="660" on="1"/>
      </contour>
      <contour>
        <pt x="442" y="769" on="1"/>
        <pt x="442" y="789" on="0"/>
        <pt x="418" y="815" on="0"/>
        <pt x="392" y="815" on="1"/>
        <pt x="367" y="815" on="0"/>
        <pt x="337" y="786" on="0"/>
        <pt x="337" y="758" on="1"/>
        <pt x="337" y="738" on="0"/>
        <pt x="361" y="711" on="0"/>
        <pt x="386" y="711" on="1"/>
        <pt x="411" y="711" on="0"/>
        <pt x="442" y="741" on="0"/>
      </contour>
      <contour>
        <pt x="234" y="244" on="1"/>
        <pt x="431" y="244" on="1"/>
        <pt x="416" y="298" on="1"/>
        <pt x="397" y="365" on="0"/>
        <pt x="370" y="489" on="0"/>
        <pt x="362" y="532" on="1"/>
        <pt x="355" y="514" on="0"/>
        <pt x="335" y="466" on="0"/>
        <pt x="311" y="411" on="0"/>
        <pt x="285" y="354" on="0"/>
        <pt x="273" y="327" on="1"/>
      </contour>
    </TTGlyph>
    <TTGlyph name="Aringacute" xMin="-18" yMin="0" xMax="637" yMax="1107">
      <component glyphName="Aring" x="0" y="0" flags="0x204"/>
      <component glyphName="acute.cap" x="135" y="183" flags="0x4"/>
    </TTGlyph>
    <TTGlyph name="Atilde" xMin="-18" yMin="0" xMax="637" yMax="880">
      <component glyphName="A" x="0" y="0" flags="0x204"/>
      <component glyphName="tilde.cap" x="115" y="0" flags="0x4"/>
    </TTGlyph>
    <TTGlyph name="B" xMin="41" yMin="0" xMax="597" yMax="663">
      <contour>
        <pt x="120" y="663" on="1"/>
        <pt x="366" y="663" on="1"/>
        <pt x="429" y="663" on="0"/>
        <pt x="515" y="643" on="0"/>
        <pt x="543" y="619" on="1"/>
        <pt x="587" y="580" on="0"/>
        <pt x="587" y="512" on="1"/>
        <pt x="587" y="467" on="0"/>
        <pt x="541" y="382" on="0"/>
        <pt x="507" y="353" on="1"/>
        <pt x="549" y="333" on="0"/>
        <pt x="597" y="263" on="0"/>
        <pt x="597" y="215" on="1"/>
        <pt x="597" y="126" on="0"/>
        <pt x="536" y="68" on="1"/>
        <pt x="502" y="36" on="0"/>
        <pt x="400" y="0" on="0"/>
        <pt x="320" y="0" on="1"/>
        <pt x="41" y="0" on="1"/>
      </contour>
      <contour>
        <pt x="190" y="116" on="1"/>
        <pt x="322" y="116" on="1"/>
        <pt x="367" y="116" on="0"/>
        <pt x="416" y="132" on="0"/>
        <pt x="431" y="146" on="1"/>
        <pt x="446" y="160" on="0"/>
        <pt x="460" y="195" on="0"/>
        <pt x="460" y="215" on="1"/>
        <pt x="460" y="248" on="0"/>
        <pt x="442" y="263" on="1"/>
        <pt x="431" y="273" on="0"/>
        <pt x="395" y="279" on="0"/>
        <pt x="369" y="279" on="1"/>
        <pt x="209" y="279" on="1"/>
      </contour>
      <contour>
        <pt x="394" y="388" on="1"/>
        <pt x="408" y="388" on="0"/>
        <pt x="424" y="395" on="0"/>
        <pt x="430" y="403" on="1"/>
        <pt x="441" y="418" on="0"/>
        <pt x="455" y="460" on="0"/>
        <pt x="455" y="483" on="1"/>
        <pt x="455" y="516" on="0"/>
        <pt x="438" y="531" on="1"/>
        <pt x="427" y="540" on="0"/>
        <pt x="391" y="547" on="0"/>
        <pt x="364" y="547" on="1"/>
        <pt x="241" y="547" on="1"/>
        <pt x="222" y="388" on="1"/>
      </contour>
    </TTGlyph>
    <TTGlyph name="C" xMin="49" yMin="-10" xMax="651" yMax="673">
      <contour>
        <pt x="628" y="101" on="1"/>
        <pt x="569" y="51" on="0"/>
        <pt x="418" y="-10" on="0"/>
        <pt x="337" y="-10" on="1"/>
        <pt x="269" y="-10" on="0"/>
        <pt x="163" y="36" on="0"/>
        <pt x="88" y="117" on="0"/>
        <pt x="49" y="229" on="0"/>
        <pt x="49" y="296" on="1"/>
        <pt x="49" y="374" on="0"/>
        <pt x="103" y="512" on="0"/>
        <pt x="196" y="614" on="0"/>
        <pt x="320" y="673" on="0"/>
        <pt x="391" y="673" on="1"/>
        <pt x="437" y="673" on="0"/>
        <pt x="520" y="643" on="0"/>
        <pt x="588" y="590" on="0"/>
        <pt x="637" y="517" on="0"/>
        <pt x="651" y="473" on="1"/>
        <pt x="558" y="422" on="1"/>
        <pt x="489" y="488" on="1"/>
        <pt x="458" y="518" on="0"/>
        <pt x="410" y="543" on="0"/>
        <pt x="373" y="543" on="1"/>
        <pt x="332" y="543" on="0"/>
        <pt x="265" y="506" on="0"/>
        <pt x="216" y="441" on="0"/>
        <pt x="189" y="354" on="0"/>
        <pt x="189" y="304" on="1"/>
        <pt x="189" y="216" on="0"/>
        <pt x="276" y="122" on="0"/>
        <pt x="362" y="122" on="1"/>
        <pt x="388" y="122" on="0"/>
        <pt x="461" y="137" on="0"/>
        <pt x="499" y="150" on="1"/>
        <pt x="586" y="180" on="1"/>
      </contour>
    </TTGlyph>
    <TTGlyph name="Cacute" xMin="49" yMin="-10" xMax="651" yMax="924">
      <component glyphName="C" x="0" y="0" flags="0x204"/>
      <component glyphName="acute.cap" x="148" y="0" flags="0x4"/>
    </TTGlyph>
    <TTGlyph name="Ccaron" xMin="49" yMin="-10" xMax="651" yMax="920">
      <component glyphName="C" x="0" y="0" flags="0x204"/>
      <component glyphName="caron.cap" x="141" y="0" flags="0x4"/>
    </TTGlyph>
    <TTGlyph name="Ccedilla" xMin="49" yMin="-243" xMax="651" yMax="673">
      <contour>
        <pt x="628" y="101" on="1"/>
        <pt x="571" y="53" on="0"/>
        <pt x="428" y="-7" on="0"/>
        <pt x="351" y="-10" on="1"/>
        <pt x="345" y="-18" on="0"/>
        <pt x="337" y="-33" on="0"/>
        <pt x="337" y="-40" on="1"/>
        <pt x="337" y="-48" on="0"/>
        <pt x="366" y="-60" on="0"/>
        <pt x="402" y="-76" on="0"/>
        <pt x="431" y="-103" on="0"/>
        <pt x="431" y="-127" on="1"/>
        <pt x="431" y="-157" on="0"/>
        <pt x="395" y="-200" on="0"/>
        <pt x="339" y="-228" on="0"/>
        <pt x="270" y="-242" on="0"/>
        <pt x="237" y="-243" on="1"/>
        <pt x="232" y="-173" on="1"/>
        <pt x="288" y="-163" on="1"/>
        <pt x="311" y="-159" on="0"/>
        <pt x="325" y="-148" on="0"/>
        <pt x="325" y="-140" on="1"/>
        <pt x="325" y="-132" on="0"/>
        <pt x="299" y="-121" on="0"/>
        <pt x="267" y="-107" on="0"/>
        <pt x="241" y="-88" on="0"/>
        <pt x="241" y="-71" on="1"/>
        <pt x="241" y="-55" on="0"/>
        <pt x="264" y="-22" on="0"/>
        <pt x="281" y="-5" on="1"/>
        <pt x="226" y="4" on="0"/>
        <pt x="140" y="55" on="0"/>
        <pt x="80" y="134" on="0"/>
        <pt x="49" y="236" on="0"/>
        <pt x="49" y="296" on="1"/>
        <pt x="49" y="374" on="0"/>
        <pt x="103" y="512" on="0"/>
        <pt x="196" y="614" on="0"/>
        <pt x="320" y="673" on="0"/>
        <pt x="391" y="673" on="1"/>
        <pt x="437" y="673" on="0"/>
        <pt x="520" y="643" on="0"/>
        <pt x="588" y="590" on="0"/>
        <pt x="637" y="517" on="0"/>
        <pt x="651" y="473" on="1"/>
        <pt x="558" y="422" on="1"/>
        <pt x="489" y="488" on="1"/>
        <pt x="458" y="518" on="0"/>
        <pt x="410" y="543" on="0"/>
        <pt x="373" y="543" on="1"/>
        <pt x="332" y="543" on="0"/>
        <pt x="265" y="506" on="0"/>
        <pt x="216" y="441" on="0"/>
        <pt x="189" y="354" on="0"/>
        <pt x="189" y="304" on="1"/>
        <pt x="189" y="216" on="0"/>
        <pt x="276" y="122" on="0"/>
        <pt x="362" y="122" on="1"/>
        <pt x="388" y="122" on="0"/>
        <pt x="461" y="137" on="0"/>
        <pt x="499" y="150" on="1"/>
        <pt x="586" y="180" on="1"/>
      </contour>
    </TTGlyph>
    <TTGlyph name="Ccircumflex" xMin="49" yMin="-10" xMax="651" yMax="909">
      <component glyphName="C" x="0" y="0" flags="0x204"/>
      <component glyphName="circumflex.cap" x="145" y="0" flags="0x4"/>
    </TTGlyph>
    <TTGlyph name="Cdotaccent" xMin="49" yMin="-10" xMax="651" yMax="857">
      <component glyphName="C" x="0" y="0" flags="0x204"/>
      <component glyphName="dotaccent.cap" x="142" y="0" flags="0x4"/>
    </TTGlyph>
    <TTGlyph name="D" xMin="41" yMin="0" xMax="683" yMax="663">
      <contour>
        <pt x="120" y="663" on="1"/>
        <pt x="358" y="663" on="1"/>
        <pt x="449" y="663" on="0"/>
        <pt x="577" y="627" on="0"/>
        <pt x="616" y="586" on="1"/>
        <pt x="683" y="517" on="0"/>
        <pt x="683" y="396" on="1"/>
        <pt x="683" y="307" on="0"/>
        <pt x="627" y="156" on="0"/>
        <pt x="568" y="99" on="1"/>
        <pt x="521" y="53" on="0"/>
        <pt x="380" y="0" on="0"/>
        <pt x="269" y="0" on="1"/>
        <pt x="41" y="0" on="1"/>
      </contour>
      <contour>
        <pt x="190" y="120" on="1"/>
        <pt x="275" y="120" on="1"/>
        <pt x="344" y="120" on="0"/>
        <pt x="434" y="150" on="0"/>
        <pt x="464" y="179" on="1"/>
        <pt x="486" y="199" on="0"/>
        <pt x="516" y="251" on="0"/>
        <pt x="535" y="308" on="0"/>
        <pt x="544" y="368" on="0"/>
        <pt x="544" y="397" on="1"/>
        <pt x="544" y="470" on="0"/>
        <pt x="507" y="504" on="1"/>
        <pt x="484" y="525" on="0"/>
        <pt x="410" y="543" on="0"/>
        <pt x="352" y="543" on="1"/>
        <pt x="241" y="543" on="1"/>
      </contour>
    </TTGlyph>
    <TTGlyph name="Dcaron" xMin="41" yMin="0" xMax="683" yMax="920">
      <component glyphName="D" x="0" y="0" flags="0x204"/>
      <component glyphName="caron.cap" x="123" y="0" flags="0x4"/>
    </TTGlyph>
    <TTGlyph name="Dcroat" xMin="21" yMin="0" xMax="709" yMax="663">
      <contour>
        <pt x="101" y="287" on="1"/>
        <pt x="21" y="287" on="1"/>
        <pt x="34" y="391" on="1"/>
        <pt x="113" y="391" on="1"/>
        <pt x="146" y="663" on="1"/>
        <pt x="384" y="663" on="1"/>
        <pt x="475" y="663" on="0"/>
        <pt x="603" y="627" on="0"/>
        <pt x="642" y="586" on="1"/>
        <pt x="709" y="517" on="0"/>
        <pt x="709" y="396" on="1"/>
        <pt x="709" y="307" on="0"/>
        <pt x="653" y="156" on="0"/>
        <pt x="594" y="99" on="1"/>
        <pt x="547" y="53" on="0"/>
        <pt x="406" y="0" on="0"/>
        <pt x="295" y="0" on="1"/>
        <pt x="67" y="0" on="1"/>
      </contour>
      <contour>
        <pt x="248" y="391" on="1"/>
        <pt x="381" y="391" on="1"/>
        <pt x="368" y="287" on="1"/>
        <pt x="236" y="287" on="1"/>
        <pt x="216" y="119" on="1"/>
        <pt x="301" y="119" on="1"/>
        <pt x="370" y="119" on="0"/>
        <pt x="460" y="149" on="0"/>
        <pt x="490" y="178" on="1"/>
        <pt x="512" y="198" on="0"/>
        <pt x="542" y="250" on="0"/>
        <pt x="561" y="308" on="0"/>
        <pt x="570" y="369" on="0"/>
        <pt x="570" y="398" on="1"/>
        <pt x="570" y="471" on="0"/>
        <pt x="533" y="505" on="1"/>
        <pt x="510" y="526" on="0"/>
        <pt x="436" y="544" on="0"/>
        <pt x="378" y="544" on="1"/>
        <pt x="267" y="544" on="1"/>
      </contour>
    </TTGlyph>
    <TTGlyph name="Delta" xMin="8" yMin="0" xMax="599" yMax="663">
      <contour>
        <pt x="14" y="50" on="1"/>
        <pt x="16" y="68" on="0"/>
        <pt x="22" y="94" on="0"/>
        <pt x="34" y="121" on="0"/>
        <pt x="52" y="158" on="0"/>
        <pt x="66" y="187" on="1"/>
        <pt x="298" y="663" on="1"/>
        <pt x="427" y="663" on="1"/>
        <pt x="436" y="663" on="0"/>
        <pt x="444" y="658" on="0"/>
        <pt x="447" y="648" on="1"/>
        <pt x="587" y="149" on="1"/>
        <pt x="599" y="104" on="0"/>
        <pt x="599" y="78" on="1"/>
        <pt x="599" y="74" on="0"/>
        <pt x="598" y="59" on="0"/>
        <pt x="597" y="51" on="1"/>
        <pt x="591" y="0" on="1"/>
        <pt x="8" y="0" on="1"/>
      </contour>
      <contour>
        <pt x="387" y="116" on="1"/>
        <pt x="396" y="116" on="0"/>
        <pt x="419" y="115" on="0"/>
        <pt x="441" y="114" on="0"/>
        <pt x="461" y="113" on="0"/>
        <pt x="466" y="113" on="1"/>
        <pt x="461" y="130" on="0"/>
        <pt x="443" y="188" on="0"/>
        <pt x="434" y="223" on="1"/>
        <pt x="394" y="371" on="1"/>
        <pt x="382" y="415" on="0"/>
        <pt x="362" y="503" on="0"/>
        <pt x="357" y="535" on="1"/>
        <pt x="345" y="502" on="0"/>
        <pt x="309" y="422" on="0"/>
        <pt x="283" y="368" on="1"/>
        <pt x="216" y="226" on="1"/>
        <pt x="201" y="194" on="0"/>
        <pt x="169" y="130" on="0"/>
        <pt x="159" y="113" on="1"/>
        <pt x="176" y="115" on="0"/>
        <pt x="223" y="116" on="0"/>
        <pt x="241" y="116" on="1"/>
      </contour>
    </TTGlyph>
    <TTGlyph name="E" xMin="41" yMin="0" xMax="579" yMax="663">
      <contour>
        <pt x="579" y="663" on="1"/>
        <pt x="565" y="547" on="1"/>
        <pt x="241" y="547" on="1"/>
        <pt x="223" y="396" on="1"/>
        <pt x="518" y="396" on="1"/>
        <pt x="504" y="281" on="1"/>
        <pt x="209" y="281" on="1"/>
        <pt x="190" y="116" on="1"/>
        <pt x="525" y="116" on="1"/>
        <pt x="511" y="0" on="1"/>
        <pt x="41" y="0" on="1"/>
        <pt x="120" y="663" on="1"/>
      </contour>
    </TTGlyph>
    <TTGlyph name="Eacute" xMin="41" yMin="0" xMax="579" yMax="924">
      <component glyphName="E" x="0" y="0" flags="0x204"/>
      <component glyphName="acute.cap" x="112" y="0" flags="0x4"/>
    </TTGlyph>
    <TTGlyph name="Ebreve" xMin="41" yMin="0" xMax="579" yMax="894">
      <component glyphName="E" x="0" y="0" flags="0x204"/>
      <component glyphName="breve.cap" x="96" y="0" flags="0x4"/>
    </TTGlyph>
    <TTGlyph name="Ecaron" xMin="41" yMin="0" xMax="579" yMax="920">
      <component glyphName="E" x="0" y="0" flags="0x204"/>
      <component glyphName="caron.cap" x="98" y="0" flags="0x4"/>
    </TTGlyph>
    <TTGlyph name="Ecircumflex" xMin="41" yMin="0" xMax="579" yMax="909">
      <component glyphName="E" x="0" y="0" flags="0x204"/>
      <component glyphName="circumflex.cap" x="109" y="0" flags="0x4"/>
    </TTGlyph>
    <TTGlyph name="Edieresis" xMin="41" yMin="0" xMax="579" yMax="869">
      <component glyphName="E" x="0" y="0" flags="0x204"/>
      <component glyphName="dieresis.cap" x="107" y="0" flags="0x4"/>
    </TTGlyph>
    <TTGlyph name="Edotaccent" xMin="41" yMin="0" xMax="579" yMax="857">
      <component glyphName="E" x="0" y="0" flags="0x204"/>
      <component glyphName="dotaccent.cap" x="94" y="0" flags="0x4"/>
    </TTGlyph>
    <TTGlyph name="Egrave" xMin="41" yMin="0" xMax="579" yMax="925">
      <component glyphName="E" x="0" y="0" flags="0x204"/>
      <component glyphName="grave.cap" x="107" y="0" flags="0x4"/>
    </TTGlyph>
    <TTGlyph name="Emacron" xMin="41" yMin="0" xMax="579" yMax="859">
      <component glyphName="E" x="0" y="0" flags="0x204"/>
      <component glyphName="macron.cap" x="92" y="0" flags="0x4"/>
    </TTGlyph>
    <TTGlyph name="Eng" xMin="41" yMin="-238" xMax="700" yMax="663">
      <contour>
        <pt x="302" y="324" on="1"/>
        <pt x="292" y="340" on="0"/>
        <pt x="268" y="376" on="0"/>
        <pt x="245" y="411" on="0"/>
        <pt x="226" y="443" on="0"/>
        <pt x="221" y="454" on="1"/>
        <pt x="167" y="0" on="1"/>
        <pt x="41" y="0" on="1"/>
        <pt x="120" y="663" on="1"/>
        <pt x="214" y="663" on="1"/>
        <pt x="225" y="663" on="0"/>
        <pt x="233" y="659" on="0"/>
        <pt x="238" y="651" on="1"/>
        <pt x="439" y="340" on="1"/>
        <pt x="449" y="323" on="0"/>
        <pt x="472" y="287" on="0"/>
        <pt x="494" y="252" on="0"/>
        <pt x="513" y="221" on="0"/>
        <pt x="520" y="210" on="1"/>
        <pt x="574" y="663" on="1"/>
        <pt x="700" y="663" on="1"/>
        <pt x="619" y="-12" on="1"/>
        <pt x="613" y="-66" on="0"/>
        <pt x="586" y="-150" on="0"/>
        <pt x="539" y="-208" on="0"/>
        <pt x="471" y="-238" on="0"/>
        <pt x="423" y="-238" on="1"/>
        <pt x="385" y="-238" on="0"/>
        <pt x="307" y="-214" on="0"/>
        <pt x="278" y="-197" on="1"/>
        <pt x="307" y="-112" on="1"/>
        <pt x="316" y="-113" on="0"/>
        <pt x="341" y="-116" on="0"/>
        <pt x="367" y="-118" on="0"/>
        <pt x="391" y="-120" on="0"/>
        <pt x="400" y="-120" on="1"/>
        <pt x="449" y="-120" on="0"/>
        <pt x="486" y="-76" on="0"/>
        <pt x="491" y="-29" on="1"/>
        <pt x="497" y="21" on="1"/>
      </contour>
    </TTGlyph>
    <TTGlyph name="Eogonek" xMin="41" yMin="-221" xMax="579" yMax="663">
      <contour>
        <pt x="41" y="0" on="1"/>
        <pt x="120" y="663" on="1"/>
        <pt x="579" y="663" on="1"/>
        <pt x="565" y="547" on="1"/>
        <pt x="241" y="547" on="1"/>
        <pt x="223" y="396" on="1"/>
        <pt x="518" y="396" on="1"/>
        <pt x="504" y="281" on="1"/>
        <pt x="209" y="281" on="1"/>
        <pt x="190" y="116" on="1"/>
        <pt x="525" y="116" on="1"/>
        <pt x="511" y="0" on="1"/>
        <pt x="429" y="0" on="1"/>
        <pt x="418" y="0" on="0"/>
        <pt x="407" y="-5" on="0"/>
        <pt x="397" y="-15" on="1"/>
        <pt x="391" y="-21" on="0"/>
        <pt x="377" y="-38" on="0"/>
        <pt x="365" y="-60" on="0"/>
        <pt x="356" y="-83" on="0"/>
        <pt x="356" y="-95" on="1"/>
        <pt x="356" y="-135" on="0"/>
        <pt x="404" y="-135" on="1"/>
        <pt x="411" y="-135" on="0"/>
        <pt x="427" y="-134" on="0"/>
        <pt x="435" y="-133" on="1"/>
        <pt x="469" y="-128" on="1"/>
        <pt x="480" y="-194" on="1"/>
        <pt x="456" y="-206" on="0"/>
        <pt x="398" y="-221" on="0"/>
        <pt x="375" y="-221" on="1"/>
        <pt x="321" y="-221" on="0"/>
        <pt x="256" y="-163" on="0"/>
        <pt x="256" y="-120" on="1"/>
        <pt x="256" y="-100" on="0"/>
        <pt x="270" y="-63" on="0"/>
        <pt x="291" y="-32" on="0"/>
        <pt x="315" y="-7" on="0"/>
        <pt x="325" y="0" on="1"/>
      </contour>
    </TTGlyph>
    <TTGlyph name="Eth" xMin="21" yMin="0" xMax="709" yMax="663">
      <contour>
        <pt x="101" y="287" on="1"/>
        <pt x="21" y="287" on="1"/>
        <pt x="34" y="391" on="1"/>
        <pt x="113" y="391" on="1"/>
        <pt x="146" y="663" on="1"/>
        <pt x="384" y="663" on="1"/>
        <pt x="475" y="663" on="0"/>
        <pt x="603" y="627" on="0"/>
        <pt x="642" y="586" on="1"/>
        <pt x="709" y="517" on="0"/>
        <pt x="709" y="396" on="1"/>
        <pt x="709" y="307" on="0"/>
        <pt x="653" y="156" on="0"/>
        <pt x="594" y="99" on="1"/>
        <pt x="547" y="53" on="0"/>
        <pt x="406" y="0" on="0"/>
        <pt x="295" y="0" on="1"/>
        <pt x="67" y="0" on="1"/>
      </contour>
      <contour>
        <pt x="248" y="391" on="1"/>
        <pt x="381" y="391" on="1"/>
        <pt x="368" y="287" on="1"/>
        <pt x="236" y="287" on="1"/>
        <pt x="216" y="119" on="1"/>
        <pt x="301" y="119" on="1"/>
        <pt x="370" y="119" on="0"/>
        <pt x="460" y="149" on="0"/>
        <pt x="490" y="178" on="1"/>
        <pt x="512" y="198" on="0"/>
        <pt x="542" y="250" on="0"/>
        <pt x="561" y="308" on="0"/>
        <pt x="570" y="369" on="0"/>
        <pt x="570" y="398" on="1"/>
        <pt x="570" y="471" on="0"/>
        <pt x="533" y="505" on="1"/>
        <pt x="510" y="526" on="0"/>
        <pt x="436" y="544" on="0"/>
        <pt x="378" y="544" on="1"/>
        <pt x="267" y="544" on="1"/>
      </contour>
    </TTGlyph>
    <TTGlyph name="Euro" xMin="48" yMin="-10" xMax="633" yMax="673">
      <contour>
        <pt x="506" y="508" on="1"/>
        <pt x="475" y="532" on="0"/>
        <pt x="434" y="552" on="0"/>
        <pt x="408" y="552" on="1"/>
        <pt x="361" y="552" on="0"/>
        <pt x="290" y="489" on="0"/>
        <pt x="272" y="424" on="1"/>
        <pt x="456" y="424" on="1"/>
        <pt x="447" y="352" on="1"/>
        <pt x="259" y="352" on="1"/>
        <pt x="255" y="328" on="0"/>
        <pt x="253" y="302" on="1"/>
        <pt x="441" y="302" on="1"/>
        <pt x="432" y="230" on="1"/>
        <pt x="254" y="230" on="1"/>
        <pt x="259" y="173" on="0"/>
        <pt x="319" y="113" on="0"/>
        <pt x="372" y="113" on="1"/>
        <pt x="398" y="113" on="0"/>
        <pt x="457" y="127" on="0"/>
        <pt x="495" y="140" on="1"/>
        <pt x="558" y="162" on="1"/>
        <pt x="595" y="91" on="1"/>
        <pt x="572" y="69" on="0"/>
        <pt x="514" y="32" on="0"/>
        <pt x="451" y="5" on="0"/>
        <pt x="385" y="-10" on="0"/>
        <pt x="355" y="-10" on="1"/>
        <pt x="302" y="-10" on="0"/>
        <pt x="218" y="25" on="0"/>
        <pt x="158" y="89" on="0"/>
        <pt x="122" y="177" on="0"/>
        <pt x="119" y="230" on="1"/>
        <pt x="48" y="230" on="1"/>
        <pt x="55" y="288" on="1"/>
        <pt x="119" y="300" on="1"/>
        <pt x="121" y="328" on="0"/>
        <pt x="125" y="352" on="1"/>
        <pt x="63" y="352" on="1"/>
        <pt x="70" y="411" on="1"/>
        <pt x="139" y="423" on="1"/>
        <pt x="154" y="479" on="0"/>
        <pt x="208" y="571" on="0"/>
        <pt x="281" y="637" on="0"/>
        <pt x="368" y="673" on="0"/>
        <pt x="416" y="673" on="1"/>
        <pt x="453" y="673" on="0"/>
        <pt x="520" y="651" on="0"/>
        <pt x="575" y="612" on="0"/>
        <pt x="618" y="559" on="0"/>
        <pt x="633" y="528" on="1"/>
        <pt x="558" y="468" on="1"/>
      </contour>
    </TTGlyph>
    <TTGlyph name="Euro.lprop" xMin="45" yMin="-10" xMax="630" yMax="673">
      <component glyphName="Euro" x="-3" y="0" flags="0x4"/>
    </TTGlyph>
    <TTGlyph name="Euro.oprop" xMin="33" yMin="-8" xMax="560" yMax="496">
      <component glyphName="Euro.otab" x="-12" y="0" flags="0x4"/>
    </TTGlyph>
    <TTGlyph name="Euro.otab" xMin="45" yMin="-8" xMax="572" yMax="496">
      <contour>
        <pt x="241" y="254" on="1"/>
        <pt x="240" y="248" on="0"/>
        <pt x="240" y="236" on="0"/>
        <pt x="240" y="228" on="1"/>
        <pt x="380" y="228" on="1"/>
        <pt x="374" y="174" on="1"/>
        <pt x="246" y="174" on="1"/>
        <pt x="255" y="142" on="0"/>
        <pt x="311" y="103" on="0"/>
        <pt x="353" y="103" on="1"/>
        <pt x="375" y="103" on="0"/>
        <pt x="428" y="115" on="0"/>
        <pt x="454" y="124" on="1"/>
        <pt x="517" y="146" on="1"/>
        <pt x="552" y="81" on="1"/>
        <pt x="531" y="62" on="0"/>
        <pt x="479" y="29" on="0"/>
        <pt x="420" y="5" on="0"/>
        <pt x="360" y="-8" on="0"/>
        <pt x="332" y="-8" on="1"/>
        <pt x="241" y="-8" on="0"/>
        <pt x="129" y="91" on="0"/>
        <pt x="116" y="174" on="1"/>
        <pt x="45" y="174" on="1"/>
        <pt x="50" y="217" on="1"/>
        <pt x="113" y="226" on="1"/>
        <pt x="113" y="234" on="0"/>
        <pt x="113" y="247" on="0"/>
        <pt x="114" y="254" on="1"/>
        <pt x="54" y="254" on="1"/>
        <pt x="59" y="298" on="1"/>
        <pt x="126" y="307" on="1"/>
        <pt x="138" y="348" on="0"/>
        <pt x="184" y="417" on="0"/>
        <pt x="247" y="468" on="0"/>
        <pt x="324" y="496" on="0"/>
        <pt x="369" y="496" on="1"/>
        <pt x="440" y="496" on="0"/>
        <pt x="552" y="410" on="0"/>
        <pt x="572" y="335" on="1"/>
        <pt x="486" y="294" on="1"/>
        <pt x="447" y="337" on="1"/>
        <pt x="422" y="363" on="0"/>
        <pt x="381" y="386" on="0"/>
        <pt x="355" y="386" on="1"/>
        <pt x="322" y="386" on="0"/>
        <pt x="267" y="341" on="0"/>
        <pt x="255" y="309" on="1"/>
        <pt x="390" y="309" on="1"/>
        <pt x="383" y="254" on="1"/>
        <pt x="241" y="254" on="1"/>
      </contour>
    </TTGlyph>
    <TTGlyph name="F" xMin="41" yMin="0" xMax="577" yMax="663">
      <contour>
        <pt x="577" y="663" on="1"/>
        <pt x="563" y="547" on="1"/>
        <pt x="241" y="547" on="1"/>
        <pt x="222" y="385" on="1"/>
        <pt x="514" y="385" on="1"/>
        <pt x="500" y="271" on="1"/>
        <pt x="208" y="271" on="1"/>
        <pt x="176" y="0" on="1"/>
        <pt x="41" y="0" on="1"/>
        <pt x="120" y="663" on="1"/>
      </contour>
    </TTGlyph>
    <TTGlyph name="G" xMin="49" yMin="-10" xMax="675" yMax="673">
      <contour>
        <pt x="574" y="435" on="1"/>
        <pt x="513" y="487" on="1"/>
        <pt x="479" y="516" on="0"/>
        <pt x="421" y="544" on="0"/>
        <pt x="382" y="544" on="1"/>
        <pt x="339" y="544" on="0"/>
        <pt x="268" y="508" on="0"/>
        <pt x="217" y="444" on="0"/>
        <pt x="189" y="357" on="0"/>
        <pt x="189" y="306" on="1"/>
        <pt x="189" y="218" on="0"/>
        <pt x="273" y="121" on="0"/>
        <pt x="363" y="121" on="1"/>
        <pt x="395" y="121" on="0"/>
        <pt x="476" y="137" on="0"/>
        <pt x="505" y="148" on="1"/>
        <pt x="516" y="152" on="0"/>
        <pt x="520" y="159" on="0"/>
        <pt x="522" y="171" on="1"/>
        <pt x="531" y="249" on="1"/>
        <pt x="421" y="249" on="1"/>
        <pt x="433" y="350" on="1"/>
        <pt x="654" y="350" on="1"/>
        <pt x="675" y="350" on="0"/>
        <pt x="672" y="332" on="1"/>
        <pt x="633" y="0" on="1"/>
        <pt x="542" y="0" on="1"/>
        <pt x="525" y="55" on="1"/>
        <pt x="481" y="33" on="1"/>
        <pt x="442" y="13" on="0"/>
        <pt x="369" y="-10" on="0"/>
        <pt x="329" y="-10" on="1"/>
        <pt x="266" y="-10" on="0"/>
        <pt x="163" y="36" on="0"/>
        <pt x="89" y="118" on="0"/>
        <pt x="49" y="229" on="0"/>
        <pt x="49" y="294" on="1"/>
        <pt x="49" y="375" on="0"/>
        <pt x="103" y="513" on="0"/>
        <pt x="198" y="615" on="0"/>
        <pt x="328" y="673" on="0"/>
        <pt x="403" y="673" on="1"/>
        <pt x="448" y="673" on="0"/>
        <pt x="529" y="647" on="0"/>
        <pt x="597" y="599" on="0"/>
        <pt x="649" y="532" on="0"/>
        <pt x="664" y="492" on="1"/>
      </contour>
    </TTGlyph>
    <TTGlyph name="Gbreve" xMin="49" yMin="-10" xMax="675" yMax="894">
      <component glyphName="G" x="0" y="0" flags="0x204"/>
      <component glyphName="breve.cap" x="155" y="0" flags="0x4"/>
    </TTGlyph>
    <TTGlyph name="Gcircumflex" xMin="49" yMin="-10" xMax="675" yMax="909">
      <component glyphName="G" x="0" y="0" flags="0x204"/>
      <component glyphName="circumflex.cap" x="153" y="0" flags="0x4"/>
    </TTGlyph>
    <TTGlyph name="Gcommaaccent" xMin="49" yMin="-294" xMax="675" yMax="673">
      <component glyphName="G" x="0" y="0" flags="0x204"/>
      <component glyphName="commaaccent" x="150" y="0" flags="0x4"/>
    </TTGlyph>
    <TTGlyph name="Gdotaccent" xMin="49" yMin="-10" xMax="675" yMax="857">
      <component glyphName="G" x="0" y="0" flags="0x204"/>
      <component glyphName="dotaccent.cap" x="151" y="0" flags="0x4"/>
    </TTGlyph>
    <TTGlyph name="H" xMin="41" yMin="0" xMax="687" yMax="663">
      <contour>
        <pt x="506" y="281" on="1"/>
        <pt x="209" y="281" on="1"/>
        <pt x="176" y="0" on="1"/>
        <pt x="41" y="0" on="1"/>
        <pt x="120" y="663" on="1"/>
        <pt x="255" y="663" on="1"/>
        <pt x="224" y="401" on="1"/>
        <pt x="521" y="401" on="1"/>
        <pt x="552" y="663" on="1"/>
        <pt x="687" y="663" on="1"/>
        <pt x="608" y="0" on="1"/>
        <pt x="473" y="0" on="1"/>
      </contour>
    </TTGlyph>
    <TTGlyph name="Hbar" xMin="44" yMin="0" xMax="762" yMax="663">
      <contour>
        <pt x="521" y="281" on="1"/>
        <pt x="224" y="281" on="1"/>
        <pt x="191" y="0" on="1"/>
        <pt x="56" y="0" on="1"/>
        <pt x="114" y="489" on="1"/>
        <pt x="44" y="489" on="1"/>
        <pt x="55" y="581" on="1"/>
        <pt x="125" y="581" on="1"/>
        <pt x="135" y="663" on="1"/>
        <pt x="270" y="663" on="1"/>
        <pt x="260" y="581" on="1"/>
        <pt x="557" y="581" on="1"/>
        <pt x="567" y="663" on="1"/>
        <pt x="702" y="663" on="1"/>
        <pt x="692" y="581" on="1"/>
        <pt x="762" y="581" on="1"/>
        <pt x="751" y="489" on="1"/>
        <pt x="681" y="489" on="1"/>
        <pt x="623" y="0" on="1"/>
        <pt x="488" y="0" on="1"/>
      </contour>
      <contour>
        <pt x="536" y="401" on="1"/>
        <pt x="546" y="489" on="1"/>
        <pt x="249" y="489" on="1"/>
        <pt x="239" y="401" on="1"/>
      </contour>
    </TTGlyph>
    <TTGlyph name="Hcircumflex" xMin="41" yMin="0" xMax="687" yMax="909">
      <component glyphName="H" x="0" y="0" flags="0x204"/>
      <component glyphName="circumflex.cap" x="151" y="0" flags="0x4"/>
    </TTGlyph>
    <TTGlyph name="I" xMin="42" yMin="0" xMax="256" yMax="663">
      <contour>
        <pt x="121" y="663" on="1"/>
        <pt x="256" y="663" on="1"/>
        <pt x="177" y="0" on="1"/>
        <pt x="42" y="0" on="1"/>
      </contour>
    </TTGlyph>
    <TTGlyph name="IJ" xMin="42" yMin="-10" xMax="761" yMax="663">
      <component glyphName="I" x="0" y="0" flags="0x4"/>
      <component glyphName="J" x="277" y="0" flags="0x4"/>
    </TTGlyph>
    <TTGlyph name="Iacute" xMin="42" yMin="0" xMax="360" yMax="924">
      <component glyphName="I" x="0" y="0" flags="0x204"/>
      <component glyphName="acute.cap" x="-41" y="0" flags="0x4"/>
    </TTGlyph>
    <TTGlyph name="Ibreve" xMin="42" yMin="0" xMax="375" yMax="894">
      <component glyphName="I" x="0" y="0" flags="0x204"/>
      <component glyphName="breve.cap" x="-59" y="0" flags="0x4"/>
    </TTGlyph>
    <TTGlyph name="Icircumflex" xMin="33" yMin="0" xMax="378" yMax="909">
      <component glyphName="I" x="0" y="0" flags="0x204"/>
      <component glyphName="circumflex.cap" x="-54" y="0" flags="0x4"/>
    </TTGlyph>
    <TTGlyph name="Idieresis" xMin="42" yMin="0" xMax="371" yMax="869">
      <component glyphName="I" x="0" y="0" flags="0x204"/>
      <component glyphName="dieresis.cap" x="-53" y="0" flags="0x4"/>
    </TTGlyph>
    <TTGlyph name="Idotaccent" xMin="42" yMin="0" xMax="275" yMax="857">
      <component glyphName="I" x="0" y="0" flags="0x204"/>
      <component glyphName="dotaccent.cap" x="-61" y="0" flags="0x4"/>
    </TTGlyph>
    <TTGlyph name="Igrave" xMin="42" yMin="0" xMax="306" yMax="925">
      <component glyphName="I" x="0" y="0" flags="0x204"/>
      <component glyphName="grave.cap" x="-67" y="0" flags="0x4"/>
    </TTGlyph>
    <TTGlyph name="Imacron" xMin="42" yMin="0" xMax="365" yMax="859">
      <component glyphName="I" x="0" y="0" flags="0x204"/>
      <component glyphName="macron.cap" x="-62" y="0" flags="0x4"/>
    </TTGlyph>
    <TTGlyph name="Iogonek" xMin="-27" yMin="-221" xMax="256" yMax="663">
      <contour>
        <pt x="121" y="663" on="1"/>
        <pt x="256" y="663" on="1"/>
        <pt x="177" y="0" on="1"/>
        <pt x="146" y="0" on="1"/>
        <pt x="135" y="0" on="0"/>
        <pt x="124" y="-5" on="0"/>
        <pt x="114" y="-15" on="1"/>
        <pt x="108" y="-21" on="0"/>
        <pt x="94" y="-38" on="0"/>
        <pt x="82" y="-60" on="0"/>
        <pt x="73" y="-83" on="0"/>
        <pt x="73" y="-95" on="1"/>
        <pt x="73" y="-135" on="0"/>
        <pt x="121" y="-135" on="1"/>
        <pt x="128" y="-135" on="0"/>
        <pt x="144" y="-134" on="0"/>
        <pt x="152" y="-133" on="1"/>
        <pt x="186" y="-128" on="1"/>
        <pt x="197" y="-194" on="1"/>
        <pt x="173" y="-206" on="0"/>
        <pt x="115" y="-221" on="0"/>
        <pt x="92" y="-221" on="1"/>
        <pt x="38" y="-221" on="0"/>
        <pt x="-27" y="-163" on="0"/>
        <pt x="-27" y="-120" on="1"/>
        <pt x="-27" y="-100" on="0"/>
        <pt x="-13" y="-63" on="0"/>
        <pt x="8" y="-32" on="0"/>
        <pt x="32" y="-7" on="0"/>
        <pt x="42" y="0" on="1"/>
      </contour>
    </TTGlyph>
    <TTGlyph name="Itilde" xMin="24" yMin="0" xMax="390" yMax="880">
      <component glyphName="I" x="0" y="0" flags="0x204"/>
      <component glyphName="tilde.cap" x="-66" y="0" flags="0x4"/>
    </TTGlyph>
    <TTGlyph name="J" xMin="-1" yMin="-10" xMax="484" yMax="663">
      <contour>
        <pt x="29" y="131" on="1"/>
        <pt x="76" y="124" on="1"/>
        <pt x="108" y="119" on="0"/>
        <pt x="173" y="112" on="0"/>
        <pt x="190" y="112" on="1"/>
        <pt x="246" y="112" on="0"/>
        <pt x="270" y="138" on="1"/>
        <pt x="282" y="150" on="0"/>
        <pt x="294" y="188" on="0"/>
        <pt x="297" y="216" on="1"/>
        <pt x="349" y="663" on="1"/>
        <pt x="484" y="663" on="1"/>
        <pt x="430" y="211" on="1"/>
        <pt x="423" y="153" on="0"/>
        <pt x="388" y="73" on="0"/>
        <pt x="361" y="47" on="1"/>
        <pt x="302" y="-10" on="0"/>
        <pt x="205" y="-10" on="1"/>
        <pt x="179" y="-10" on="0"/>
        <pt x="123" y="0" on="0"/>
        <pt x="68" y="17" on="0"/>
        <pt x="18" y="39" on="0"/>
        <pt x="-1" y="50" on="1"/>
      </contour>
    </TTGlyph>
    <TTGlyph name="Jcircumflex" xMin="-1" yMin="-10" xMax="606" yMax="909">
      <component glyphName="J" x="0" y="0" flags="0x204"/>
      <component glyphName="circumflex.cap" x="174" y="0" flags="0x4"/>
    </TTGlyph>
    <TTGlyph name="K" xMin="41" yMin="0" xMax="657" yMax="670">
      <contour>
        <pt x="299" y="303" on="1"/>
        <pt x="280" y="288" on="0"/>
        <pt x="224" y="256" on="0"/>
        <pt x="206" y="249" on="1"/>
        <pt x="176" y="0" on="1"/>
        <pt x="41" y="0" on="1"/>
        <pt x="120" y="663" on="1"/>
        <pt x="255" y="663" on="1"/>
        <pt x="221" y="374" on="1"/>
        <pt x="588" y="670" on="1"/>
        <pt x="657" y="587" on="1"/>
        <pt x="401" y="382" on="1"/>
        <pt x="612" y="0" on="1"/>
        <pt x="481" y="0" on="1"/>
        <pt x="470" y="0" on="0"/>
        <pt x="460" y="5" on="0"/>
        <pt x="455" y="13" on="1"/>
      </contour>
    </TTGlyph>
    <TTGlyph name="Kcommaaccent" xMin="41" yMin="-294" xMax="657" yMax="670">
      <component glyphName="K" x="0" y="0" flags="0x204"/>
      <component glyphName="commaaccent" x="121" y="0" flags="0x4"/>
    </TTGlyph>
    <TTGlyph name="L" xMin="41" yMin="0" xMax="501" yMax="663">
      <contour>
        <pt x="190" y="116" on="1"/>
        <pt x="501" y="116" on="1"/>
        <pt x="487" y="0" on="1"/>
        <pt x="41" y="0" on="1"/>
        <pt x="120" y="663" on="1"/>
        <pt x="255" y="663" on="1"/>
      </contour>
    </TTGlyph>
    <TTGlyph name="Lacute" xMin="41" yMin="0" xMax="501" yMax="924">
      <component glyphName="L" x="0" y="0" flags="0x204"/>
      <component glyphName="acute.cap" x="-19" y="0" flags="0x4"/>
    </TTGlyph>
    <TTGlyph name="Lcaron" xMin="41" yMin="0" xMax="501" yMax="663">
      <component glyphName="L" x="0" y="0" flags="0x204"/>
      <component glyphName="commaaccent" x="238" y="721" flags="0x4"/>
    </TTGlyph>
    <TTGlyph name="Lcommaaccent" xMin="41" yMin="-294" xMax="501" yMax="663">
      <component glyphName="L" x="0" y="0" flags="0x204"/>
      <component glyphName="commaaccent" x="99" y="0" flags="0x4"/>
    </TTGlyph>
    <TTGlyph name="Ldot" xMin="41" yMin="0" xMax="503" yMax="663">
      <contour>
        <pt x="194" y="118" on="1"/>
        <pt x="503" y="118" on="1"/>
        <pt x="489" y="0" on="1"/>
        <pt x="41" y="0" on="1"/>
        <pt x="120" y="663" on="1"/>
        <pt x="259" y="663" on="1"/>
      </contour>
      <contour>
        <pt x="473" y="298" on="1"/>
        <pt x="347" y="298" on="1"/>
        <pt x="362" y="423" on="1"/>
        <pt x="463" y="423" on="1"/>
        <pt x="485" y="423" on="0"/>
        <pt x="485" y="404" on="1"/>
        <pt x="485" y="398" on="0"/>
        <pt x="482" y="374" on="1"/>
      </contour>
    </TTGlyph>
    <TTGlyph name="Lslash" xMin="-6" yMin="0" xMax="555" yMax="663">
      <contour>
        <pt x="284" y="445" on="1"/>
        <pt x="424" y="534" on="1"/>
        <pt x="484" y="439" on="1"/>
        <pt x="267" y="301" on="1"/>
        <pt x="244" y="116" on="1"/>
        <pt x="555" y="116" on="1"/>
        <pt x="541" y="0" on="1"/>
        <pt x="95" y="0" on="1"/>
        <pt x="123" y="238" on="1"/>
        <pt x="53" y="194" on="1"/>
        <pt x="-6" y="287" on="1"/>
        <pt x="140" y="379" on="1"/>
        <pt x="174" y="663" on="1"/>
        <pt x="309" y="663" on="1"/>
      </contour>
    </TTGlyph>
    <TTGlyph name="M" xMin="41" yMin="0" xMax="808" yMax="663">
      <contour>
        <pt x="808" y="663" on="1"/>
        <pt x="729" y="0" on="1"/>
        <pt x="599" y="0" on="1"/>
        <pt x="654" y="457" on="1"/>
        <pt x="652" y="457" on="1"/>
        <pt x="458" y="236" on="1"/>
        <pt x="374" y="236" on="1"/>
        <pt x="366" y="236" on="0"/>
        <pt x="357" y="240" on="0"/>
        <pt x="352" y="247" on="1"/>
        <pt x="225" y="457" on="1"/>
        <pt x="223" y="457" on="1"/>
        <pt x="169" y="0" on="1"/>
        <pt x="41" y="0" on="1"/>
        <pt x="120" y="663" on="1"/>
        <pt x="230" y="663" on="1"/>
        <pt x="241" y="663" on="0"/>
        <pt x="251" y="658" on="0"/>
        <pt x="257" y="648" on="1"/>
        <pt x="424" y="371" on="1"/>
        <pt x="427" y="371" on="1"/>
        <pt x="670" y="648" on="1"/>
        <pt x="678" y="657" on="0"/>
        <pt x="689" y="663" on="0"/>
        <pt x="700" y="663" on="1"/>
      </contour>
    </TTGlyph>
    <TTGlyph name="N" xMin="41" yMin="0" xMax="700" yMax="663">
      <contour>
        <pt x="214" y="663" on="1"/>
        <pt x="225" y="663" on="0"/>
        <pt x="233" y="659" on="0"/>
        <pt x="238" y="651" on="1"/>
        <pt x="439" y="340" on="1"/>
        <pt x="449" y="323" on="0"/>
        <pt x="472" y="287" on="0"/>
        <pt x="494" y="252" on="0"/>
        <pt x="513" y="221" on="0"/>
        <pt x="520" y="210" on="1"/>
        <pt x="574" y="663" on="1"/>
        <pt x="700" y="663" on="1"/>
        <pt x="621" y="0" on="1"/>
        <pt x="526" y="0" on="1"/>
        <pt x="517" y="0" on="0"/>
        <pt x="508" y="4" on="0"/>
        <pt x="503" y="11" on="1"/>
        <pt x="302" y="324" on="1"/>
        <pt x="292" y="340" on="0"/>
        <pt x="268" y="376" on="0"/>
        <pt x="245" y="411" on="0"/>
        <pt x="226" y="443" on="0"/>
        <pt x="221" y="454" on="1"/>
        <pt x="167" y="0" on="1"/>
        <pt x="41" y="0" on="1"/>
        <pt x="120" y="663" on="1"/>
      </contour>
    </TTGlyph>
    <TTGlyph name="Nacute" xMin="41" yMin="0" xMax="700" yMax="924">
      <component glyphName="N" x="0" y="0" flags="0x204"/>
      <component glyphName="acute.cap" x="173" y="0" flags="0x4"/>
    </TTGlyph>
    <TTGlyph name="Ncaron" xMin="41" yMin="0" xMax="700" yMax="920">
      <component glyphName="N" x="0" y="0" flags="0x204"/>
      <component glyphName="caron.cap" x="152" y="0" flags="0x4"/>
    </TTGlyph>
    <TTGlyph name="Ncommaaccent" xMin="41" yMin="-294" xMax="700" yMax="663">
      <component glyphName="N" x="0" y="0" flags="0x204"/>
      <component glyphName="commaaccent" x="159" y="0" flags="0x4"/>
    </TTGlyph>
    <TTGlyph name="Ntilde" xMin="41" yMin="0" xMax="700" yMax="880">
      <component glyphName="N" x="0" y="0" flags="0x204"/>
      <component glyphName="tilde.cap" x="154" y="0" flags="0x4"/>
    </TTGlyph>
    <TTGlyph name="O" xMin="49" yMin="-10" xMax="697" yMax="673">
      <contour>
        <pt x="357" y="124" on="1"/>
        <pt x="402" y="124" on="0"/>
        <pt x="476" y="157" on="0"/>
        <pt x="528" y="218" on="0"/>
        <pt x="557" y="302" on="0"/>
        <pt x="557" y="353" on="1"/>
        <pt x="557" y="394" on="0"/>
        <pt x="534" y="463" on="0"/>
        <pt x="491" y="512" on="0"/>
        <pt x="428" y="539" on="0"/>
        <pt x="389" y="539" on="1"/>
        <pt x="344" y="539" on="0"/>
        <pt x="270" y="506" on="0"/>
        <pt x="218" y="445" on="0"/>
        <pt x="189" y="360" on="0"/>
        <pt x="189" y="309" on="1"/>
        <pt x="189" y="269" on="0"/>
        <pt x="212" y="201" on="0"/>
        <pt x="255" y="152" on="0"/>
        <pt x="318" y="124" on="0"/>
      </contour>
      <contour>
        <pt x="350" y="-10" on="1"/>
        <pt x="287" y="-10" on="0"/>
        <pt x="178" y="35" on="0"/>
        <pt x="96" y="116" on="0"/>
        <pt x="49" y="229" on="0"/>
        <pt x="49" y="297" on="1"/>
        <pt x="49" y="378" on="0"/>
        <pt x="105" y="516" on="0"/>
        <pt x="200" y="617" on="0"/>
        <pt x="326" y="673" on="0"/>
        <pt x="396" y="673" on="1"/>
        <pt x="459" y="673" on="0"/>
        <pt x="568" y="628" on="0"/>
        <pt x="650" y="546" on="0"/>
        <pt x="697" y="433" on="0"/>
        <pt x="697" y="365" on="1"/>
        <pt x="697" y="284" on="0"/>
        <pt x="641" y="146" on="0"/>
        <pt x="546" y="46" on="0"/>
        <pt x="420" y="-10" on="0"/>
      </contour>
    </TTGlyph>
    <TTGlyph name="OE" xMin="49" yMin="-10" xMax="1052" yMax="673">
      <contour>
        <pt x="593" y="663" on="1"/>
        <pt x="1052" y="663" on="1"/>
        <pt x="1038" y="547" on="1"/>
        <pt x="714" y="547" on="1"/>
        <pt x="696" y="396" on="1"/>
        <pt x="991" y="396" on="1"/>
        <pt x="977" y="281" on="1"/>
        <pt x="682" y="281" on="1"/>
        <pt x="663" y="116" on="1"/>
        <pt x="998" y="116" on="1"/>
        <pt x="984" y="0" on="1"/>
        <pt x="514" y="0" on="1"/>
        <pt x="522" y="65" on="1"/>
        <pt x="490" y="31" on="0"/>
        <pt x="394" y="-10" on="0"/>
        <pt x="341" y="-10" on="1"/>
        <pt x="281" y="-10" on="0"/>
        <pt x="175" y="35" on="0"/>
        <pt x="95" y="116" on="0"/>
        <pt x="49" y="229" on="0"/>
        <pt x="49" y="297" on="1"/>
        <pt x="49" y="378" on="0"/>
        <pt x="104" y="516" on="0"/>
        <pt x="197" y="617" on="0"/>
        <pt x="320" y="673" on="0"/>
        <pt x="388" y="673" on="1"/>
        <pt x="451" y="673" on="0"/>
        <pt x="551" y="617" on="0"/>
        <pt x="582" y="574" on="1"/>
      </contour>
      <contour>
        <pt x="358" y="127" on="1"/>
        <pt x="403" y="127" on="0"/>
        <pt x="475" y="162" on="0"/>
        <pt x="526" y="223" on="0"/>
        <pt x="554" y="306" on="0"/>
        <pt x="554" y="353" on="1"/>
        <pt x="554" y="391" on="0"/>
        <pt x="532" y="458" on="0"/>
        <pt x="490" y="507" on="0"/>
        <pt x="429" y="536" on="0"/>
        <pt x="390" y="536" on="1"/>
        <pt x="345" y="536" on="0"/>
        <pt x="272" y="501" on="0"/>
        <pt x="221" y="439" on="0"/>
        <pt x="194" y="357" on="0"/>
        <pt x="194" y="309" on="1"/>
        <pt x="194" y="271" on="0"/>
        <pt x="216" y="205" on="0"/>
        <pt x="258" y="156" on="0"/>
        <pt x="319" y="127" on="0"/>
      </contour>
    </TTGlyph>
    <TTGlyph name="Oacute" xMin="49" yMin="-10" xMax="697" yMax="924">
      <component glyphName="O" x="0" y="0" flags="0x204"/>
      <component glyphName="acute.cap" x="157" y="0" flags="0x4"/>
    </TTGlyph>
    <TTGlyph name="Obreve" xMin="49" yMin="-10" xMax="697" yMax="894">
      <component glyphName="O" x="0" y="0" flags="0x204"/>
      <component glyphName="breve.cap" x="155" y="0" flags="0x4"/>
    </TTGlyph>
    <TTGlyph name="Ocircumflex" xMin="49" yMin="-10" xMax="697" yMax="909">
      <component glyphName="O" x="0" y="0" flags="0x204"/>
      <component glyphName="circumflex.cap" x="159" y="0" flags="0x4"/>
    </TTGlyph>
    <TTGlyph name="Odieresis" xMin="49" yMin="-10" xMax="697" yMax="869">
      <component glyphName="O" x="0" y="0" flags="0x204"/>
      <component glyphName="dieresis.cap" x="163" y="0" flags="0x4"/>
    </TTGlyph>
    <TTGlyph name="Ograve" xMin="49" yMin="-10" xMax="697" yMax="925">
      <component glyphName="O" x="0" y="0" flags="0x204"/>
      <component glyphName="grave.cap" x="171" y="0" flags="0x4"/>
    </TTGlyph>
    <TTGlyph name="Ohungarumlaut" xMin="49" yMin="-10" xMax="697" yMax="965">
      <component glyphName="O" x="0" y="0" flags="0x204"/>
      <component glyphName="hungarumlaut.cap" x="165" y="0" flags="0x4"/>
    </TTGlyph>
    <TTGlyph name="Omacron" xMin="49" yMin="-10" xMax="697" yMax="859">
      <component glyphName="O" x="0" y="0" flags="0x204"/>
      <component glyphName="macron.cap" x="151" y="0" flags="0x4"/>
    </TTGlyph>
    <TTGlyph name="Omega" xMin="36" yMin="0" xMax="688" yMax="673">
      <contour>
        <pt x="293" y="0" on="1"/>
        <pt x="36" y="0" on="1"/>
        <pt x="49" y="109" on="1"/>
        <pt x="177" y="109" on="1"/>
        <pt x="148" y="148" on="1"/>
        <pt x="103" y="209" on="0"/>
        <pt x="60" y="317" on="0"/>
        <pt x="60" y="375" on="1"/>
        <pt x="60" y="441" on="0"/>
        <pt x="114" y="550" on="0"/>
        <pt x="205" y="629" on="0"/>
        <pt x="325" y="673" on="0"/>
        <pt x="391" y="673" on="1"/>
        <pt x="454" y="673" on="0"/>
        <pt x="563" y="634" on="0"/>
        <pt x="642" y="564" on="0"/>
        <pt x="688" y="469" on="0"/>
        <pt x="688" y="412" on="1"/>
        <pt x="688" y="344" on="0"/>
        <pt x="616" y="206" on="0"/>
        <pt x="556" y="146" on="1"/>
        <pt x="519" y="109" on="1"/>
        <pt x="641" y="109" on="1"/>
        <pt x="628" y="0" on="1"/>
        <pt x="371" y="0" on="1"/>
        <pt x="378" y="55" on="1"/>
        <pt x="379" y="64" on="0"/>
        <pt x="386" y="80" on="0"/>
        <pt x="403" y="105" on="0"/>
        <pt x="432" y="142" on="0"/>
        <pt x="456" y="172" on="1"/>
        <pt x="509" y="239" on="0"/>
        <pt x="554" y="342" on="0"/>
        <pt x="554" y="392" on="1"/>
        <pt x="554" y="427" on="0"/>
        <pt x="528" y="484" on="0"/>
        <pt x="481" y="524" on="0"/>
        <pt x="418" y="545" on="0"/>
        <pt x="381" y="545" on="1"/>
        <pt x="340" y="545" on="0"/>
        <pt x="271" y="520" on="0"/>
        <pt x="220" y="474" on="0"/>
        <pt x="191" y="405" on="0"/>
        <pt x="191" y="362" on="1"/>
        <pt x="191" y="338" on="0"/>
        <pt x="198" y="294" on="0"/>
        <pt x="214" y="246" on="0"/>
        <pt x="239" y="193" on="0"/>
        <pt x="256" y="160" on="1"/>
        <pt x="293" y="89" on="1"/>
        <pt x="298" y="81" on="0"/>
        <pt x="300" y="68" on="0"/>
        <pt x="300" y="61" on="1"/>
        <pt x="300" y="58" on="0"/>
        <pt x="299" y="46" on="0"/>
        <pt x="298" y="40" on="1"/>
      </contour>
    </TTGlyph>
    <TTGlyph name="Oslash" xMin="31" yMin="-48" xMax="719" yMax="716">
      <contour>
        <pt x="697" y="365" on="1"/>
        <pt x="697" y="284" on="0"/>
        <pt x="641" y="146" on="0"/>
        <pt x="546" y="46" on="0"/>
        <pt x="419" y="-10" on="0"/>
        <pt x="349" y="-10" on="1"/>
        <pt x="301" y="-10" on="0"/>
        <pt x="213" y="17" on="0"/>
        <pt x="177" y="43" on="1"/>
        <pt x="97" y="-48" on="1"/>
        <pt x="31" y="10" on="1"/>
        <pt x="112" y="103" on="1"/>
        <pt x="82" y="142" on="0"/>
        <pt x="49" y="240" on="0"/>
        <pt x="49" y="297" on="1"/>
        <pt x="49" y="378" on="0"/>
        <pt x="105" y="516" on="0"/>
        <pt x="199" y="617" on="0"/>
        <pt x="325" y="673" on="0"/>
        <pt x="396" y="673" on="1"/>
        <pt x="444" y="673" on="0"/>
        <pt x="531" y="646" on="0"/>
        <pt x="568" y="620" on="1"/>
        <pt x="653" y="716" on="1"/>
        <pt x="719" y="658" on="1"/>
        <pt x="633" y="560" on="1"/>
        <pt x="663" y="521" on="0"/>
        <pt x="697" y="422" on="0"/>
      </contour>
      <contour>
        <pt x="557" y="353" on="1"/>
        <pt x="557" y="382" on="0"/>
        <pt x="546" y="432" on="0"/>
        <pt x="536" y="451" on="1"/>
        <pt x="268" y="147" on="1"/>
        <pt x="285" y="136" on="0"/>
        <pt x="331" y="124" on="0"/>
        <pt x="356" y="124" on="1"/>
        <pt x="401" y="124" on="0"/>
        <pt x="476" y="157" on="0"/>
        <pt x="528" y="217" on="0"/>
        <pt x="557" y="302" on="0"/>
      </contour>
      <contour>
        <pt x="189" y="309" on="1"/>
        <pt x="189" y="280" on="0"/>
        <pt x="200" y="234" on="0"/>
        <pt x="209" y="214" on="1"/>
        <pt x="477" y="517" on="1"/>
        <pt x="460" y="528" on="0"/>
        <pt x="414" y="539" on="0"/>
        <pt x="389" y="539" on="1"/>
        <pt x="344" y="539" on="0"/>
        <pt x="270" y="505" on="0"/>
        <pt x="217" y="445" on="0"/>
        <pt x="189" y="360" on="0"/>
      </contour>
    </TTGlyph>
    <TTGlyph name="Oslashacute" xMin="31" yMin="-48" xMax="719" yMax="924">
      <component glyphName="Oslash" x="0" y="0" flags="0x204"/>
      <component glyphName="acute.cap" x="157" y="0" flags="0x4"/>
    </TTGlyph>
    <TTGlyph name="Otilde" xMin="49" yMin="-10" xMax="697" yMax="880">
      <component glyphName="O" x="0" y="0" flags="0x204"/>
      <component glyphName="tilde.cap" x="150" y="0" flags="0x4"/>
    </TTGlyph>
    <TTGlyph name="P" xMin="41" yMin="0" xMax="611" yMax="663">
      <contour>
        <pt x="176" y="0" on="1"/>
        <pt x="41" y="0" on="1"/>
        <pt x="120" y="663" on="1"/>
        <pt x="341" y="663" on="1"/>
        <pt x="413" y="663" on="0"/>
        <pt x="517" y="641" on="0"/>
        <pt x="550" y="615" on="1"/>
        <pt x="579" y="592" on="0"/>
        <pt x="611" y="518" on="0"/>
        <pt x="611" y="465" on="1"/>
        <pt x="611" y="411" on="0"/>
        <pt x="567" y="301" on="0"/>
        <pt x="524" y="263" on="1"/>
        <pt x="494" y="236" on="0"/>
        <pt x="416" y="211" on="0"/>
        <pt x="356" y="211" on="1"/>
        <pt x="201" y="211" on="1"/>
      </contour>
      <contour>
        <pt x="215" y="326" on="1"/>
        <pt x="387" y="326" on="1"/>
        <pt x="407" y="326" on="0"/>
        <pt x="431" y="335" on="0"/>
        <pt x="442" y="347" on="1"/>
        <pt x="457" y="365" on="0"/>
        <pt x="476" y="424" on="0"/>
        <pt x="476" y="456" on="1"/>
        <pt x="476" y="500" on="0"/>
        <pt x="455" y="521" on="1"/>
        <pt x="441" y="535" on="0"/>
        <pt x="393" y="546" on="0"/>
        <pt x="357" y="546" on="1"/>
        <pt x="241" y="546" on="1"/>
      </contour>
    </TTGlyph>
    <TTGlyph name="Q" xMin="49" yMin="-198" xMax="697" yMax="673">
      <contour>
        <pt x="697" y="365" on="1"/>
        <pt x="697" y="308" on="0"/>
        <pt x="669" y="205" on="0"/>
        <pt x="618" y="118" on="0"/>
        <pt x="548" y="51" on="0"/>
        <pt x="506" y="29" on="1"/>
        <pt x="626" y="-129" on="1"/>
        <pt x="490" y="-198" on="1"/>
        <pt x="384" y="-8" on="1"/>
        <pt x="376" y="-9" on="0"/>
        <pt x="361" y="-9" on="0"/>
        <pt x="356" y="-9" on="1"/>
        <pt x="293" y="-9" on="0"/>
        <pt x="182" y="33" on="0"/>
        <pt x="98" y="112" on="0"/>
        <pt x="49" y="226" on="0"/>
        <pt x="49" y="297" on="1"/>
        <pt x="49" y="378" on="0"/>
        <pt x="105" y="516" on="0"/>
        <pt x="199" y="617" on="0"/>
        <pt x="325" y="673" on="0"/>
        <pt x="396" y="673" on="1"/>
        <pt x="458" y="673" on="0"/>
        <pt x="568" y="628" on="0"/>
        <pt x="650" y="546" on="0"/>
        <pt x="697" y="433" on="0"/>
      </contour>
      <contour>
        <pt x="357" y="124" on="1"/>
        <pt x="402" y="124" on="0"/>
        <pt x="476" y="157" on="0"/>
        <pt x="528" y="218" on="0"/>
        <pt x="557" y="302" on="0"/>
        <pt x="557" y="353" on="1"/>
        <pt x="557" y="394" on="0"/>
        <pt x="534" y="463" on="0"/>
        <pt x="491" y="512" on="0"/>
        <pt x="428" y="539" on="0"/>
        <pt x="389" y="539" on="1"/>
        <pt x="344" y="539" on="0"/>
        <pt x="270" y="506" on="0"/>
        <pt x="218" y="445" on="0"/>
        <pt x="189" y="360" on="0"/>
        <pt x="189" y="309" on="1"/>
        <pt x="189" y="269" on="0"/>
        <pt x="212" y="201" on="0"/>
        <pt x="255" y="152" on="0"/>
        <pt x="318" y="124" on="0"/>
      </contour>
    </TTGlyph>
    <TTGlyph name="R" xMin="41" yMin="0" xMax="615" yMax="663">
      <contour>
        <pt x="393" y="338" on="1"/>
        <pt x="413" y="338" on="0"/>
        <pt x="437" y="345" on="0"/>
        <pt x="448" y="358" on="1"/>
        <pt x="463" y="377" on="0"/>
        <pt x="480" y="431" on="0"/>
        <pt x="480" y="456" on="1"/>
        <pt x="480" y="500" on="0"/>
        <pt x="459" y="521" on="1"/>
        <pt x="445" y="535" on="0"/>
        <pt x="397" y="546" on="0"/>
        <pt x="361" y="546" on="1"/>
        <pt x="240" y="546" on="1"/>
        <pt x="216" y="338" on="1"/>
      </contour>
      <contour>
        <pt x="601" y="0" on="1"/>
        <pt x="471" y="0" on="1"/>
        <pt x="460" y="0" on="0"/>
        <pt x="452" y="6" on="0"/>
        <pt x="448" y="14" on="1"/>
        <pt x="362" y="208" on="1"/>
        <pt x="357" y="219" on="0"/>
        <pt x="348" y="223" on="0"/>
        <pt x="337" y="223" on="1"/>
        <pt x="203" y="223" on="1"/>
        <pt x="176" y="0" on="1"/>
        <pt x="41" y="0" on="1"/>
        <pt x="120" y="663" on="1"/>
        <pt x="345" y="663" on="1"/>
        <pt x="417" y="663" on="0"/>
        <pt x="521" y="641" on="0"/>
        <pt x="554" y="615" on="1"/>
        <pt x="583" y="592" on="0"/>
        <pt x="615" y="518" on="0"/>
        <pt x="615" y="465" on="1"/>
        <pt x="615" y="397" on="0"/>
        <pt x="549" y="284" on="0"/>
        <pt x="486" y="247" on="1"/>
      </contour>
    </TTGlyph>
    <TTGlyph name="Racute" xMin="41" yMin="0" xMax="615" yMax="924">
      <component glyphName="R" x="0" y="0" flags="0x204"/>
      <component glyphName="acute.cap" x="123" y="0" flags="0x4"/>
    </TTGlyph>
    <TTGlyph name="Rcaron" xMin="41" yMin="0" xMax="615" yMax="920">
      <component glyphName="R" x="0" y="0" flags="0x204"/>
      <component glyphName="caron.cap" x="111" y="0" flags="0x4"/>
    </TTGlyph>
    <TTGlyph name="Rcommaaccent" xMin="41" yMin="-294" xMax="615" yMax="663">
      <component glyphName="R" x="0" y="0" flags="0x204"/>
      <component glyphName="commaaccent" x="126" y="0" flags="0x4"/>
    </TTGlyph>
    <TTGlyph name="S" xMin="11" yMin="-10" xMax="539" yMax="673">
      <contour>
        <pt x="102" y="127" on="1"/>
        <pt x="159" y="117" on="0"/>
        <pt x="242" y="108" on="0"/>
        <pt x="268" y="108" on="1"/>
        <pt x="396" y="108" on="0"/>
        <pt x="396" y="200" on="1"/>
        <pt x="396" y="233" on="0"/>
        <pt x="349" y="266" on="0"/>
        <pt x="302" y="285" on="1"/>
        <pt x="246" y="307" on="1"/>
        <pt x="206" y="323" on="0"/>
        <pt x="138" y="357" on="0"/>
        <pt x="89" y="401" on="0"/>
        <pt x="62" y="456" on="0"/>
        <pt x="62" y="493" on="1"/>
        <pt x="62" y="539" on="0"/>
        <pt x="102" y="606" on="0"/>
        <pt x="173" y="651" on="0"/>
        <pt x="268" y="673" on="0"/>
        <pt x="323" y="673" on="1"/>
        <pt x="376" y="673" on="0"/>
        <pt x="492" y="652" on="0"/>
        <pt x="539" y="635" on="1"/>
        <pt x="521" y="544" on="1"/>
        <pt x="462" y="549" on="0"/>
        <pt x="356" y="554" on="0"/>
        <pt x="318" y="554" on="1"/>
        <pt x="255" y="554" on="0"/>
        <pt x="190" y="531" on="0"/>
        <pt x="190" y="499" on="1"/>
        <pt x="190" y="488" on="0"/>
        <pt x="200" y="471" on="0"/>
        <pt x="223" y="454" on="0"/>
        <pt x="261" y="437" on="0"/>
        <pt x="289" y="426" on="1"/>
        <pt x="337" y="407" on="1"/>
        <pt x="388" y="387" on="0"/>
        <pt x="461" y="347" on="0"/>
        <pt x="508" y="301" on="0"/>
        <pt x="529" y="246" on="0"/>
        <pt x="529" y="211" on="1"/>
        <pt x="529" y="160" on="0"/>
        <pt x="492" y="78" on="0"/>
        <pt x="424" y="21" on="0"/>
        <pt x="328" y="-10" on="0"/>
        <pt x="268" y="-10" on="1"/>
        <pt x="238" y="-10" on="0"/>
        <pt x="171" y="-1" on="0"/>
        <pt x="103" y="15" on="0"/>
        <pt x="38" y="36" on="0"/>
        <pt x="11" y="49" on="1"/>
        <pt x="41" y="137" on="1"/>
      </contour>
    </TTGlyph>
    <TTGlyph name="Sacute" xMin="10" yMin="-10" xMax="538" yMax="924">
      <component glyphName="S" x="-1" y="0" flags="0x4"/>
      <component glyphName="acute.cap" x="86" y="0" flags="0x4"/>
    </TTGlyph>
    <TTGlyph name="Scaron" xMin="10" yMin="-10" xMax="538" yMax="920">
      <component glyphName="S" x="-1" y="0" flags="0x4"/>
      <component glyphName="caron.cap" x="77" y="0" flags="0x4"/>
    </TTGlyph>
    <TTGlyph name="Scedilla" xMin="11" yMin="-243" xMax="539" yMax="673">
      <contour>
        <pt x="102" y="127" on="1"/>
        <pt x="159" y="117" on="0"/>
        <pt x="242" y="108" on="0"/>
        <pt x="268" y="108" on="1"/>
        <pt x="396" y="108" on="0"/>
        <pt x="396" y="200" on="1"/>
        <pt x="396" y="233" on="0"/>
        <pt x="349" y="266" on="0"/>
        <pt x="302" y="285" on="1"/>
        <pt x="246" y="307" on="1"/>
        <pt x="206" y="323" on="0"/>
        <pt x="138" y="357" on="0"/>
        <pt x="89" y="401" on="0"/>
        <pt x="62" y="456" on="0"/>
        <pt x="62" y="493" on="1"/>
        <pt x="62" y="539" on="0"/>
        <pt x="102" y="606" on="0"/>
        <pt x="173" y="651" on="0"/>
        <pt x="268" y="673" on="0"/>
        <pt x="323" y="673" on="1"/>
        <pt x="376" y="673" on="0"/>
        <pt x="492" y="652" on="0"/>
        <pt x="539" y="635" on="1"/>
        <pt x="521" y="544" on="1"/>
        <pt x="462" y="549" on="0"/>
        <pt x="356" y="554" on="0"/>
        <pt x="318" y="554" on="1"/>
        <pt x="255" y="554" on="0"/>
        <pt x="190" y="531" on="0"/>
        <pt x="190" y="499" on="1"/>
        <pt x="190" y="488" on="0"/>
        <pt x="200" y="471" on="0"/>
        <pt x="223" y="454" on="0"/>
        <pt x="261" y="437" on="0"/>
        <pt x="289" y="426" on="1"/>
        <pt x="337" y="407" on="1"/>
        <pt x="388" y="387" on="0"/>
        <pt x="461" y="347" on="0"/>
        <pt x="508" y="301" on="0"/>
        <pt x="529" y="246" on="0"/>
        <pt x="529" y="211" on="1"/>
        <pt x="529" y="163" on="0"/>
        <pt x="496" y="85" on="0"/>
        <pt x="435" y="28" on="0"/>
        <pt x="349" y="-6" on="0"/>
        <pt x="295" y="-9" on="1"/>
        <pt x="280" y="-27" on="0"/>
        <pt x="280" y="-40" on="1"/>
        <pt x="280" y="-48" on="0"/>
        <pt x="309" y="-60" on="0"/>
        <pt x="345" y="-76" on="0"/>
        <pt x="374" y="-103" on="0"/>
        <pt x="374" y="-127" on="1"/>
        <pt x="374" y="-157" on="0"/>
        <pt x="338" y="-200" on="0"/>
        <pt x="282" y="-228" on="0"/>
        <pt x="213" y="-242" on="0"/>
        <pt x="180" y="-243" on="1"/>
        <pt x="175" y="-173" on="1"/>
        <pt x="231" y="-163" on="1"/>
        <pt x="254" y="-159" on="0"/>
        <pt x="268" y="-148" on="0"/>
        <pt x="268" y="-140" on="1"/>
        <pt x="268" y="-132" on="0"/>
        <pt x="242" y="-121" on="0"/>
        <pt x="210" y="-107" on="0"/>
        <pt x="184" y="-88" on="0"/>
        <pt x="184" y="-71" on="1"/>
        <pt x="184" y="-56" on="0"/>
        <pt x="205" y="-23" on="0"/>
        <pt x="221" y="-7" on="1"/>
        <pt x="167" y="-2" on="0"/>
        <pt x="56" y="28" on="0"/>
        <pt x="11" y="49" on="1"/>
        <pt x="41" y="137" on="1"/>
      </contour>
    </TTGlyph>
    <TTGlyph name="Scircumflex" xMin="10" yMin="-10" xMax="538" yMax="909">
      <component glyphName="S" x="-1" y="0" flags="0x4"/>
      <component glyphName="circumflex.cap" x="85" y="0" flags="0x4"/>
    </TTGlyph>
    <TTGlyph name="Scommaaccent" xMin="10" yMin="-294" xMax="538" yMax="673">
      <component glyphName="S" x="-1" y="0" flags="0x4"/>
      <component glyphName="commaaccent" x="79" y="0" flags="0x4"/>
    </TTGlyph>
    <TTGlyph name="T" xMin="53" yMin="0" xMax="623" yMax="663">
      <contour>
        <pt x="335" y="0" on="1"/>
        <pt x="200" y="0" on="1"/>
        <pt x="265" y="547" on="1"/>
        <pt x="53" y="547" on="1"/>
        <pt x="67" y="663" on="1"/>
        <pt x="623" y="663" on="1"/>
        <pt x="609" y="547" on="1"/>
        <pt x="400" y="547" on="1"/>
      </contour>
    </TTGlyph>
    <TTGlyph name="Tbar" xMin="53" yMin="0" xMax="623" yMax="663">
      <contour>
        <pt x="380" y="376" on="1"/>
        <pt x="509" y="376" on="1"/>
        <pt x="497" y="277" on="1"/>
        <pt x="368" y="277" on="1"/>
        <pt x="335" y="0" on="1"/>
        <pt x="200" y="0" on="1"/>
        <pt x="233" y="277" on="1"/>
        <pt x="103" y="277" on="1"/>
        <pt x="115" y="376" on="1"/>
        <pt x="245" y="376" on="1"/>
        <pt x="265" y="547" on="1"/>
        <pt x="53" y="547" on="1"/>
        <pt x="67" y="663" on="1"/>
        <pt x="623" y="663" on="1"/>
        <pt x="609" y="547" on="1"/>
        <pt x="400" y="547" on="1"/>
      </contour>
    </TTGlyph>
    <TTGlyph name="Tcaron" xMin="53" yMin="0" xMax="623" yMax="920">
      <component glyphName="T" x="0" y="0" flags="0x204"/>
      <component glyphName="caron.cap" x="88" y="0" flags="0x4"/>
    </TTGlyph>
    <TTGlyph name="Tcommaaccent" xMin="53" yMin="-294" xMax="623" yMax="663">
      <component glyphName="T" x="0" y="0" flags="0x204"/>
      <component glyphName="commaaccent" x="83" y="0" flags="0x4"/>
    </TTGlyph>
    <TTGlyph name="Thorn" xMin="41" yMin="0" xMax="599" yMax="663">
      <contour>
        <pt x="176" y="0" on="1"/>
        <pt x="41" y="0" on="1"/>
        <pt x="120" y="663" on="1"/>
        <pt x="255" y="663" on="1"/>
        <pt x="243" y="559" on="1"/>
        <pt x="345" y="559" on="1"/>
        <pt x="403" y="559" on="0"/>
        <pt x="497" y="538" on="0"/>
        <pt x="563" y="491" on="0"/>
        <pt x="599" y="416" on="0"/>
        <pt x="599" y="361" on="1"/>
        <pt x="599" y="307" on="0"/>
        <pt x="555" y="197" on="0"/>
        <pt x="512" y="159" on="1"/>
        <pt x="482" y="132" on="0"/>
        <pt x="404" y="107" on="0"/>
        <pt x="344" y="107" on="1"/>
        <pt x="189" y="107" on="1"/>
      </contour>
      <contour>
        <pt x="202" y="221" on="1"/>
        <pt x="375" y="221" on="1"/>
        <pt x="395" y="221" on="0"/>
        <pt x="419" y="230" on="0"/>
        <pt x="430" y="242" on="1"/>
        <pt x="445" y="260" on="0"/>
        <pt x="464" y="320" on="0"/>
        <pt x="464" y="352" on="1"/>
        <pt x="464" y="375" on="0"/>
        <pt x="454" y="408" on="0"/>
        <pt x="441" y="419" on="1"/>
        <pt x="427" y="430" on="0"/>
        <pt x="385" y="442" on="0"/>
        <pt x="348" y="442" on="1"/>
        <pt x="229" y="442" on="1"/>
      </contour>
    </TTGlyph>
    <TTGlyph name="U" xMin="61" yMin="-10" xMax="673" yMax="663">
      <contour>
        <pt x="205" y="335" on="1"/>
        <pt x="200" y="300" on="0"/>
        <pt x="197" y="258" on="0"/>
        <pt x="197" y="243" on="1"/>
        <pt x="197" y="177" on="0"/>
        <pt x="270" y="120" on="0"/>
        <pt x="332" y="120" on="1"/>
        <pt x="412" y="120" on="0"/>
        <pt x="489" y="214" on="0"/>
        <pt x="500" y="305" on="1"/>
        <pt x="542" y="663" on="1"/>
        <pt x="673" y="663" on="1"/>
        <pt x="628" y="283" on="1"/>
        <pt x="619" y="208" on="0"/>
        <pt x="566" y="97" on="0"/>
        <pt x="485" y="25" on="0"/>
        <pt x="379" y="-10" on="0"/>
        <pt x="317" y="-10" on="1"/>
        <pt x="259" y="-10" on="0"/>
        <pt x="164" y="24" on="0"/>
        <pt x="97" y="86" on="0"/>
        <pt x="61" y="173" on="0"/>
        <pt x="61" y="225" on="1"/>
        <pt x="61" y="248" on="0"/>
        <pt x="66" y="306" on="0"/>
        <pt x="71" y="345" on="1"/>
        <pt x="109" y="663" on="1"/>
        <pt x="244" y="663" on="1"/>
      </contour>
    </TTGlyph>
    <TTGlyph name="Uacute" xMin="61" yMin="-10" xMax="673" yMax="924">
      <component glyphName="U" x="0" y="0" flags="0x204"/>
      <component glyphName="acute.cap" x="159" y="0" flags="0x4"/>
    </TTGlyph>
    <TTGlyph name="Ubreve" xMin="61" yMin="-10" xMax="673" yMax="894">
      <component glyphName="U" x="0" y="0" flags="0x204"/>
      <component glyphName="breve.cap" x="141" y="0" flags="0x4"/>
    </TTGlyph>
    <TTGlyph name="Ucircumflex" xMin="61" yMin="-10" xMax="673" yMax="909">
      <component glyphName="U" x="0" y="0" flags="0x204"/>
      <component glyphName="circumflex.cap" x="149" y="0" flags="0x4"/>
    </TTGlyph>
    <TTGlyph name="Udieresis" xMin="61" yMin="-10" xMax="673" yMax="869">
      <component glyphName="U" x="0" y="0" flags="0x204"/>
      <component glyphName="dieresis.cap" x="146" y="0" flags="0x4"/>
    </TTGlyph>
    <TTGlyph name="Ugrave" xMin="61" yMin="-10" xMax="673" yMax="925">
      <component glyphName="U" x="0" y="0" flags="0x204"/>
      <component glyphName="grave.cap" x="138" y="0" flags="0x4"/>
    </TTGlyph>
    <TTGlyph name="Uhungarumlaut" xMin="61" yMin="-10" xMax="673" yMax="965">
      <component glyphName="U" x="0" y="0" flags="0x204"/>
      <component glyphName="hungarumlaut.cap" x="149" y="0" flags="0x4"/>
    </TTGlyph>
    <TTGlyph name="Umacron" xMin="61" yMin="-10" xMax="673" yMax="859">
      <component glyphName="U" x="0" y="0" flags="0x204"/>
      <component glyphName="macron.cap" x="140" y="0" flags="0x4"/>
    </TTGlyph>
    <TTGlyph name="Uogonek" xMin="61" yMin="-221" xMax="673" yMax="663">
      <contour>
        <pt x="205" y="335" on="1"/>
        <pt x="200" y="300" on="0"/>
        <pt x="197" y="258" on="0"/>
        <pt x="197" y="243" on="1"/>
        <pt x="197" y="177" on="0"/>
        <pt x="270" y="120" on="0"/>
        <pt x="332" y="120" on="1"/>
        <pt x="411" y="120" on="0"/>
        <pt x="489" y="214" on="0"/>
        <pt x="500" y="305" on="1"/>
        <pt x="542" y="663" on="1"/>
        <pt x="673" y="663" on="1"/>
        <pt x="628" y="283" on="1"/>
        <pt x="621" y="223" on="0"/>
        <pt x="588" y="137" on="0"/>
        <pt x="542" y="76" on="0"/>
        <pt x="486" y="35" on="0"/>
        <pt x="456" y="20" on="1"/>
        <pt x="417" y="0" on="0"/>
        <pt x="364" y="-30" on="0"/>
        <pt x="332" y="-56" on="0"/>
        <pt x="318" y="-80" on="0"/>
        <pt x="318" y="-95" on="1"/>
        <pt x="318" y="-135" on="0"/>
        <pt x="366" y="-135" on="1"/>
        <pt x="373" y="-135" on="0"/>
        <pt x="389" y="-134" on="0"/>
        <pt x="397" y="-133" on="1"/>
        <pt x="431" y="-128" on="1"/>
        <pt x="442" y="-194" on="1"/>
        <pt x="418" y="-206" on="0"/>
        <pt x="360" y="-221" on="0"/>
        <pt x="337" y="-221" on="1"/>
        <pt x="283" y="-221" on="0"/>
        <pt x="218" y="-163" on="0"/>
        <pt x="218" y="-120" on="1"/>
        <pt x="218" y="-91" on="0"/>
        <pt x="254" y="-28" on="0"/>
        <pt x="283" y="-8" on="1"/>
        <pt x="231" y="-3" on="0"/>
        <pt x="149" y="35" on="0"/>
        <pt x="92" y="96" on="0"/>
        <pt x="61" y="177" on="0"/>
        <pt x="61" y="225" on="1"/>
        <pt x="61" y="248" on="0"/>
        <pt x="66" y="306" on="0"/>
        <pt x="71" y="345" on="1"/>
        <pt x="109" y="663" on="1"/>
        <pt x="244" y="663" on="1"/>
      </contour>
    </TTGlyph>
    <TTGlyph name="Uring" xMin="61" yMin="-10" xMax="673" yMax="972">
      <component glyphName="U" x="0" y="0" flags="0x204"/>
      <component glyphName="ring.cap" x="144" y="0" flags="0x4"/>
    </TTGlyph>
    <TTGlyph name="Utilde" xMin="61" yMin="-10" xMax="673" yMax="880">
      <component glyphName="U" x="0" y="0" flags="0x204"/>
      <component glyphName="tilde.cap" x="137" y="0" flags="0x4"/>
    </TTGlyph>
    <TTGlyph name="V" xMin="52" yMin="0" xMax="686" yMax="663">
      <contour>
        <pt x="686" y="663" on="1"/>
        <pt x="375" y="0" on="1"/>
        <pt x="231" y="0" on="1"/>
        <pt x="221" y="0" on="0"/>
        <pt x="214" y="7" on="0"/>
        <pt x="212" y="15" on="1"/>
        <pt x="52" y="663" on="1"/>
        <pt x="180" y="663" on="1"/>
        <pt x="188" y="663" on="0"/>
        <pt x="193" y="658" on="0"/>
        <pt x="195" y="652" on="1"/>
        <pt x="265" y="352" on="1"/>
        <pt x="271" y="325" on="0"/>
        <pt x="284" y="259" on="0"/>
        <pt x="296" y="195" on="0"/>
        <pt x="305" y="138" on="0"/>
        <pt x="307" y="119" on="1"/>
        <pt x="309" y="119" on="1"/>
        <pt x="315" y="135" on="0"/>
        <pt x="335" y="187" on="0"/>
        <pt x="359" y="249" on="0"/>
        <pt x="385" y="312" on="0"/>
        <pt x="397" y="339" on="1"/>
        <pt x="539" y="651" on="1"/>
        <pt x="542" y="658" on="0"/>
        <pt x="549" y="663" on="0"/>
        <pt x="557" y="663" on="1"/>
      </contour>
    </TTGlyph>
    <TTGlyph name="W" xMin="60" yMin="0" xMax="1019" yMax="663">
      <contour>
        <pt x="606" y="0" on="1"/>
        <pt x="595" y="0" on="0"/>
        <pt x="587" y="6" on="0"/>
        <pt x="585" y="14" on="1"/>
        <pt x="546" y="239" on="1"/>
        <pt x="533" y="314" on="0"/>
        <pt x="517" y="432" on="0"/>
        <pt x="515" y="469" on="1"/>
        <pt x="505" y="436" on="0"/>
        <pt x="473" y="347" on="0"/>
        <pt x="437" y="250" on="0"/>
        <pt x="399" y="154" on="0"/>
        <pt x="383" y="113" on="1"/>
        <pt x="338" y="0" on="1"/>
        <pt x="200" y="0" on="1"/>
        <pt x="183" y="0" on="0"/>
        <pt x="180" y="14" on="1"/>
        <pt x="60" y="663" on="1"/>
        <pt x="185" y="663" on="1"/>
        <pt x="197" y="663" on="0"/>
        <pt x="199" y="652" on="1"/>
        <pt x="251" y="362" on="1"/>
        <pt x="257" y="330" on="0"/>
        <pt x="266" y="267" on="0"/>
        <pt x="274" y="209" on="0"/>
        <pt x="280" y="159" on="0"/>
        <pt x="282" y="140" on="1"/>
        <pt x="293" y="179" on="0"/>
        <pt x="330" y="290" on="0"/>
        <pt x="356" y="355" on="1"/>
        <pt x="477" y="663" on="1"/>
        <pt x="588" y="663" on="1"/>
        <pt x="602" y="663" on="0"/>
        <pt x="603" y="651" on="1"/>
        <pt x="653" y="362" on="1"/>
        <pt x="664" y="302" on="0"/>
        <pt x="678" y="184" on="0"/>
        <pt x="680" y="140" on="1"/>
        <pt x="693" y="182" on="0"/>
        <pt x="733" y="292" on="0"/>
        <pt x="756" y="350" on="1"/>
        <pt x="878" y="651" on="1"/>
        <pt x="883" y="663" on="0"/>
        <pt x="896" y="663" on="1"/>
        <pt x="1019" y="663" on="1"/>
        <pt x="743" y="0" on="1"/>
      </contour>
    </TTGlyph>
    <TTGlyph name="Wacute" xMin="60" yMin="0" xMax="1019" yMax="924">
      <component glyphName="W" x="0" y="0" flags="0x204"/>
      <component glyphName="acute.cap" x="300" y="0" flags="0x4"/>
    </TTGlyph>
    <TTGlyph name="Wcircumflex" xMin="60" yMin="0" xMax="1019" yMax="909">
      <component glyphName="W" x="0" y="0" flags="0x204"/>
      <component glyphName="circumflex.cap" x="295" y="0" flags="0x4"/>
    </TTGlyph>
    <TTGlyph name="Wdieresis" xMin="60" yMin="0" xMax="1019" yMax="869">
      <component glyphName="W" x="0" y="0" flags="0x204"/>
      <component glyphName="dieresis.cap" x="294" y="0" flags="0x4"/>
    </TTGlyph>
    <TTGlyph name="Wgrave" xMin="60" yMin="0" xMax="1019" yMax="925">
      <component glyphName="W" x="0" y="0" flags="0x204"/>
      <component glyphName="grave.cap" x="301" y="0" flags="0x4"/>
    </TTGlyph>
    <TTGlyph name="X" xMin="-27" yMin="0" xMax="670" yMax="663">
      <contour>
        <pt x="406" y="336" on="1"/>
        <pt x="616" y="0" on="1"/>
        <pt x="486" y="0" on="1"/>
        <pt x="476" y="0" on="0"/>
        <pt x="467" y="5" on="0"/>
        <pt x="463" y="11" on="1"/>
        <pt x="316" y="248" on="1"/>
        <pt x="134" y="11" on="1"/>
        <pt x="129" y="4" on="0"/>
        <pt x="119" y="0" on="0"/>
        <pt x="109" y="0" on="1"/>
        <pt x="-27" y="0" on="1"/>
        <pt x="252" y="350" on="1"/>
        <pt x="59" y="663" on="1"/>
        <pt x="190" y="663" on="1"/>
        <pt x="200" y="663" on="0"/>
        <pt x="208" y="658" on="0"/>
        <pt x="213" y="651" on="1"/>
        <pt x="343" y="437" on="1"/>
        <pt x="510" y="652" on="1"/>
        <pt x="515" y="659" on="0"/>
        <pt x="524" y="663" on="0"/>
        <pt x="534" y="663" on="1"/>
        <pt x="670" y="663" on="1"/>
      </contour>
    </TTGlyph>
    <TTGlyph name="Y" xMin="43" yMin="0" xMax="689" yMax="663">
      <contour>
        <pt x="382" y="211" on="1"/>
        <pt x="357" y="0" on="1"/>
        <pt x="222" y="0" on="1"/>
        <pt x="248" y="211" on="1"/>
        <pt x="43" y="663" on="1"/>
        <pt x="175" y="663" on="1"/>
        <pt x="183" y="663" on="0"/>
        <pt x="190" y="659" on="0"/>
        <pt x="193" y="651" on="1"/>
        <pt x="259" y="499" on="1"/>
        <pt x="280" y="451" on="0"/>
        <pt x="317" y="357" on="0"/>
        <pt x="327" y="321" on="1"/>
        <pt x="329" y="321" on="1"/>
        <pt x="346" y="353" on="0"/>
        <pt x="391" y="432" on="0"/>
        <pt x="415" y="468" on="1"/>
        <pt x="536" y="652" on="1"/>
        <pt x="541" y="659" on="0"/>
        <pt x="548" y="663" on="0"/>
        <pt x="556" y="663" on="1"/>
        <pt x="689" y="663" on="1"/>
      </contour>
    </TTGlyph>
    <TTGlyph name="Yacute" xMin="43" yMin="0" xMax="689" yMax="924">
      <component glyphName="Y" x="0" y="0" flags="0x204"/>
      <component glyphName="acute.cap" x="137" y="0" flags="0x4"/>
    </TTGlyph>
    <TTGlyph name="Ycircumflex" xMin="43" yMin="0" xMax="689" yMax="909">
      <component glyphName="Y" x="0" y="0" flags="0x204"/>
      <component glyphName="circumflex.cap" x="119" y="0" flags="0x4"/>
    </TTGlyph>
    <TTGlyph name="Ydieresis" xMin="43" yMin="0" xMax="689" yMax="869">
      <component glyphName="Y" x="0" y="0" flags="0x204"/>
      <component glyphName="dieresis.cap" x="122" y="0" flags="0x4"/>
    </TTGlyph>
    <TTGlyph name="Ygrave" xMin="43" yMin="0" xMax="689" yMax="925">
      <component glyphName="Y" x="0" y="0" flags="0x204"/>
      <component glyphName="grave.cap" x="103" y="0" flags="0x4"/>
    </TTGlyph>
    <TTGlyph name="Z" xMin="15" yMin="0" xMax="586" yMax="663">
      <contour>
        <pt x="24" y="73" on="1"/>
        <pt x="27" y="96" on="0"/>
        <pt x="56" y="134" on="0"/>
        <pt x="75" y="157" on="1"/>
        <pt x="301" y="426" on="1"/>
        <pt x="330" y="461" on="0"/>
        <pt x="387" y="525" on="0"/>
        <pt x="408" y="547" on="1"/>
        <pt x="74" y="547" on="1"/>
        <pt x="88" y="663" on="1"/>
        <pt x="586" y="663" on="1"/>
        <pt x="577" y="589" on="1"/>
        <pt x="576" y="578" on="0"/>
        <pt x="569" y="561" on="0"/>
        <pt x="557" y="543" on="0"/>
        <pt x="539" y="520" on="0"/>
        <pt x="526" y="505" on="1"/>
        <pt x="347" y="293" on="1"/>
        <pt x="301" y="239" on="0"/>
        <pt x="225" y="151" on="0"/>
        <pt x="193" y="116" on="1"/>
        <pt x="528" y="116" on="1"/>
        <pt x="514" y="0" on="1"/>
        <pt x="15" y="0" on="1"/>
      </contour>
    </TTGlyph>
    <TTGlyph name="Zacute" xMin="15" yMin="0" xMax="586" yMax="924">
      <component glyphName="Z" x="0" y="0" flags="0x204"/>
      <component glyphName="acute.cap" x="95" y="0" flags="0x4"/>
    </TTGlyph>
    <TTGlyph name="Zcaron" xMin="15" yMin="0" xMax="586" yMax="920">
      <component glyphName="Z" x="0" y="0" flags="0x204"/>
      <component glyphName="caron.cap" x="85" y="0" flags="0x4"/>
    </TTGlyph>
    <TTGlyph name="Zdotaccent" xMin="15" yMin="0" xMax="586" yMax="857">
      <component glyphName="Z" x="0" y="0" flags="0x204"/>
      <component glyphName="dotaccent.cap" x="82" y="0" flags="0x4"/>
    </TTGlyph>
    <TTGlyph name="a" xMin="27" yMin="-8" xMax="532" yMax="496">
      <contour>
        <pt x="415" y="488" on="1"/>
        <pt x="505" y="481" on="1"/>
        <pt x="460" y="102" on="1"/>
        <pt x="532" y="86" on="1"/>
        <pt x="524" y="21" on="1"/>
        <pt x="504" y="11" on="0"/>
        <pt x="454" y="-2" on="0"/>
        <pt x="434" y="-2" on="1"/>
        <pt x="405" y="-2" on="0"/>
        <pt x="357" y="25" on="0"/>
        <pt x="346" y="47" on="1"/>
        <pt x="324" y="33" on="1"/>
        <pt x="297" y="16" on="0"/>
        <pt x="235" y="-8" on="0"/>
        <pt x="204" y="-8" on="1"/>
        <pt x="167" y="-8" on="0"/>
        <pt x="102" y="25" on="0"/>
        <pt x="54" y="83" on="0"/>
        <pt x="27" y="164" on="0"/>
        <pt x="27" y="212" on="1"/>
        <pt x="27" y="272" on="0"/>
        <pt x="68" y="376" on="0"/>
        <pt x="135" y="452" on="0"/>
        <pt x="220" y="496" on="0"/>
        <pt x="264" y="496" on="1"/>
        <pt x="294" y="496" on="0"/>
        <pt x="342" y="477" on="0"/>
        <pt x="371" y="459" on="1"/>
        <pt x="392" y="446" on="1"/>
      </contour>
      <contour>
        <pt x="362" y="346" on="1"/>
        <pt x="364" y="357" on="0"/>
        <pt x="360" y="363" on="0"/>
        <pt x="353" y="367" on="1"/>
        <pt x="324" y="382" on="0"/>
        <pt x="283" y="382" on="1"/>
        <pt x="225" y="382" on="0"/>
        <pt x="155" y="291" on="0"/>
        <pt x="155" y="214" on="1"/>
        <pt x="155" y="163" on="0"/>
        <pt x="198" y="106" on="0"/>
        <pt x="242" y="106" on="1"/>
        <pt x="262" y="106" on="0"/>
        <pt x="309" y="119" on="0"/>
        <pt x="325" y="128" on="1"/>
        <pt x="334" y="133" on="0"/>
        <pt x="338" y="140" on="0"/>
        <pt x="339" y="148" on="1"/>
      </contour>
    </TTGlyph>
    <TTGlyph name="aacute" xMin="27" yMin="-8" xMax="532" yMax="747">
      <component glyphName="a" x="0" y="0" flags="0x204"/>
      <component glyphName="acute" x="104" y="0" flags="0x4"/>
    </TTGlyph>
    <TTGlyph name="abreve" xMin="27" yMin="-8" xMax="532" yMax="717">
      <component glyphName="a" x="0" y="0" flags="0x204"/>
      <component glyphName="breve" x="80" y="0" flags="0x4"/>
    </TTGlyph>
    <TTGlyph name="acaron" xMin="27" yMin="-8" xMax="532" yMax="743">
      <component glyphName="a" x="0" y="0" flags="0x204"/>
      <component glyphName="caron" x="108" y="0" flags="0x4"/>
    </TTGlyph>
    <TTGlyph name="acircumflex" xMin="27" yMin="-8" xMax="532" yMax="732">
      <component glyphName="a" x="0" y="0" flags="0x204"/>
      <component glyphName="circumflex" x="87" y="0" flags="0x4"/>
    </TTGlyph>
    <TTGlyph name="acute" xMin="103" yMin="542" xMax="366" yMax="747">
      <contour>
        <pt x="137" y="542" on="1"/>
        <pt x="103" y="599" on="1"/>
        <pt x="294" y="739" on="1"/>
        <pt x="305" y="747" on="0"/>
        <pt x="318" y="746" on="0"/>
        <pt x="324" y="735" on="1"/>
        <pt x="366" y="659" on="1"/>
      </contour>
    </TTGlyph>
    <TTGlyph name="acute.cap" xMin="138" yMin="719" xMax="401" yMax="924">
      <contour>
        <pt x="172" y="719" on="1"/>
        <pt x="138" y="776" on="1"/>
        <pt x="329" y="916" on="1"/>
        <pt x="340" y="924" on="0"/>
        <pt x="353" y="923" on="0"/>
        <pt x="359" y="912" on="1"/>
        <pt x="401" y="836" on="1"/>
      </contour>
    </TTGlyph>
    <TTGlyph name="adieresis" xMin="27" yMin="-8" xMax="532" yMax="692">
      <component glyphName="a" x="0" y="0" flags="0x204"/>
      <component glyphName="dieresis" x="84" y="0" flags="0x4"/>
    </TTGlyph>
    <TTGlyph name="ae" xMin="27" yMin="-8" xMax="799" yMax="496">
      <contour>
        <pt x="588" y="496" on="1"/>
        <pt x="633" y="496" on="0"/>
        <pt x="710" y="465" on="0"/>
        <pt x="767" y="407" on="0"/>
        <pt x="799" y="326" on="0"/>
        <pt x="799" y="276" on="1"/>
        <pt x="799" y="235" on="0"/>
        <pt x="782" y="203" on="0"/>
        <pt x="763" y="203" on="1"/>
        <pt x="461" y="203" on="1"/>
        <pt x="464" y="155" on="0"/>
        <pt x="524" y="104" on="0"/>
        <pt x="577" y="104" on="1"/>
        <pt x="615" y="104" on="0"/>
        <pt x="678" y="121" on="1"/>
        <pt x="740" y="137" on="1"/>
        <pt x="773" y="67" on="1"/>
        <pt x="753" y="51" on="0"/>
        <pt x="704" y="24" on="0"/>
        <pt x="648" y="4" on="0"/>
        <pt x="590" y="-8" on="0"/>
        <pt x="562" y="-8" on="1"/>
        <pt x="509" y="-8" on="0"/>
        <pt x="423" y="25" on="0"/>
        <pt x="394" y="56" on="1"/>
        <pt x="344" y="31" on="1"/>
        <pt x="310" y="14" on="0"/>
        <pt x="238" y="-8" on="0"/>
        <pt x="200" y="-8" on="1"/>
        <pt x="159" y="-8" on="0"/>
        <pt x="95" y="17" on="0"/>
        <pt x="50" y="60" on="0"/>
        <pt x="27" y="116" on="0"/>
        <pt x="27" y="147" on="1"/>
        <pt x="27" y="217" on="0"/>
        <pt x="120" y="295" on="0"/>
        <pt x="207" y="295" on="1"/>
        <pt x="237" y="295" on="0"/>
        <pt x="308" y="290" on="0"/>
        <pt x="340" y="285" on="1"/>
        <pt x="341" y="291" on="0"/>
        <pt x="344" y="316" on="0"/>
        <pt x="344" y="325" on="1"/>
        <pt x="344" y="384" on="0"/>
        <pt x="264" y="384" on="1"/>
        <pt x="241" y="384" on="0"/>
        <pt x="185" y="375" on="0"/>
        <pt x="154" y="366" on="1"/>
        <pt x="102" y="351" on="1"/>
        <pt x="73" y="422" on="1"/>
        <pt x="124" y="456" on="0"/>
        <pt x="233" y="496" on="0"/>
        <pt x="285" y="496" on="1"/>
        <pt x="332" y="496" on="0"/>
        <pt x="409" y="464" on="0"/>
        <pt x="431" y="438" on="1"/>
        <pt x="463" y="465" on="0"/>
        <pt x="544" y="496" on="0"/>
      </contour>
      <contour>
        <pt x="351" y="129" on="1"/>
        <pt x="343" y="143" on="0"/>
        <pt x="336" y="185" on="0"/>
        <pt x="335" y="201" on="1"/>
        <pt x="195" y="201" on="1"/>
        <pt x="169" y="201" on="0"/>
        <pt x="148" y="176" on="0"/>
        <pt x="148" y="156" on="1"/>
        <pt x="148" y="130" on="0"/>
        <pt x="184" y="96" on="0"/>
        <pt x="222" y="96" on="1"/>
        <pt x="249" y="96" on="0"/>
        <pt x="318" y="114" on="0"/>
      </contour>
      <contour>
        <pt x="679" y="294" on="1"/>
        <pt x="677" y="334" on="0"/>
        <pt x="630" y="384" on="0"/>
        <pt x="585" y="384" on="1"/>
        <pt x="542" y="384" on="0"/>
        <pt x="481" y="336" on="0"/>
        <pt x="470" y="294" on="1"/>
      </contour>
    </TTGlyph>
    <TTGlyph name="aeacute" xMin="27" yMin="-8" xMax="799" yMax="747">
      <component glyphName="ae" x="0" y="0" flags="0x204"/>
      <component glyphName="acute" x="271" y="0" flags="0x4"/>
    </TTGlyph>
    <TTGlyph name="agrave" xMin="27" yMin="-8" xMax="532" yMax="748">
      <component glyphName="a" x="0" y="0" flags="0x204"/>
      <component glyphName="grave" x="87" y="0" flags="0x4"/>
    </TTGlyph>
    <TTGlyph name="amacron" xMin="27" yMin="-8" xMax="532" yMax="682">
      <component glyphName="a" x="0" y="0" flags="0x204"/>
      <component glyphName="macron" x="90" y="0" flags="0x4"/>
    </TTGlyph>
    <TTGlyph name="ampersand" xMin="31" yMin="-10" xMax="691" yMax="673">
      <contour>
        <pt x="594" y="97" on="1"/>
        <pt x="679" y="86" on="1"/>
        <pt x="673" y="24" on="1"/>
        <pt x="653" y="13" on="0"/>
        <pt x="600" y="-3" on="0"/>
        <pt x="579" y="-3" on="1"/>
        <pt x="547" y="-3" on="0"/>
        <pt x="497" y="26" on="0"/>
        <pt x="469" y="61" on="1"/>
        <pt x="378" y="-10" on="0"/>
        <pt x="272" y="-10" on="1"/>
        <pt x="218" y="-10" on="0"/>
        <pt x="130" y="23" on="0"/>
        <pt x="66" y="80" on="0"/>
        <pt x="31" y="157" on="0"/>
        <pt x="31" y="201" on="1"/>
        <pt x="31" y="235" on="0"/>
        <pt x="55" y="291" on="0"/>
        <pt x="97" y="337" on="0"/>
        <pt x="154" y="374" on="0"/>
        <pt x="187" y="389" on="1"/>
        <pt x="176" y="409" on="0"/>
        <pt x="160" y="456" on="0"/>
        <pt x="160" y="486" on="1"/>
        <pt x="160" y="526" on="0"/>
        <pt x="192" y="595" on="0"/>
        <pt x="248" y="645" on="0"/>
        <pt x="323" y="673" on="0"/>
        <pt x="366" y="673" on="1"/>
        <pt x="402" y="673" on="0"/>
        <pt x="465" y="650" on="0"/>
        <pt x="512" y="609" on="0"/>
        <pt x="540" y="552" on="0"/>
        <pt x="540" y="517" on="1"/>
        <pt x="540" y="458" on="0"/>
        <pt x="456" y="357" on="0"/>
        <pt x="391" y="325" on="1"/>
        <pt x="485" y="219" on="1"/>
        <pt x="512" y="255" on="0"/>
        <pt x="580" y="358" on="0"/>
        <pt x="615" y="413" on="1"/>
        <pt x="691" y="381" on="1"/>
        <pt x="663" y="314" on="0"/>
        <pt x="591" y="197" on="0"/>
        <pt x="551" y="146" on="1"/>
      </contour>
      <contour>
        <pt x="232" y="325" on="1"/>
        <pt x="200" y="303" on="0"/>
        <pt x="158" y="249" on="0"/>
        <pt x="158" y="214" on="1"/>
        <pt x="158" y="191" on="0"/>
        <pt x="177" y="150" on="0"/>
        <pt x="212" y="120" on="0"/>
        <pt x="260" y="103" on="0"/>
        <pt x="289" y="103" on="1"/>
        <pt x="317" y="103" on="0"/>
        <pt x="376" y="121" on="0"/>
        <pt x="399" y="138" on="1"/>
      </contour>
      <contour>
        <pt x="374" y="410" on="1"/>
        <pt x="397" y="433" on="0"/>
        <pt x="430" y="476" on="0"/>
        <pt x="430" y="505" on="1"/>
        <pt x="430" y="534" on="0"/>
        <pt x="390" y="570" on="0"/>
        <pt x="360" y="570" on="1"/>
        <pt x="325" y="570" on="0"/>
        <pt x="277" y="526" on="0"/>
        <pt x="277" y="492" on="1"/>
        <pt x="277" y="466" on="0"/>
        <pt x="308" y="417" on="0"/>
        <pt x="341" y="382" on="1"/>
      </contour>
    </TTGlyph>
    <TTGlyph name="aogonek" xMin="27" yMin="-223" xMax="532" yMax="496">
      <contour>
        <pt x="415" y="488" on="1"/>
        <pt x="505" y="481" on="1"/>
        <pt x="460" y="102" on="1"/>
        <pt x="532" y="86" on="1"/>
        <pt x="524" y="21" on="1"/>
        <pt x="499" y="16" on="0"/>
        <pt x="446" y="-4" on="0"/>
        <pt x="402" y="-34" on="0"/>
        <pt x="374" y="-73" on="0"/>
        <pt x="374" y="-97" on="1"/>
        <pt x="374" y="-137" on="0"/>
        <pt x="422" y="-137" on="1"/>
        <pt x="429" y="-137" on="0"/>
        <pt x="445" y="-136" on="0"/>
        <pt x="453" y="-135" on="1"/>
        <pt x="487" y="-130" on="1"/>
        <pt x="498" y="-196" on="1"/>
        <pt x="474" y="-208" on="0"/>
        <pt x="416" y="-223" on="0"/>
        <pt x="393" y="-223" on="1"/>
        <pt x="339" y="-223" on="0"/>
        <pt x="274" y="-165" on="0"/>
        <pt x="274" y="-122" on="1"/>
        <pt x="274" y="-85" on="0"/>
        <pt x="326" y="-14" on="0"/>
        <pt x="377" y="14" on="1"/>
        <pt x="366" y="21" on="0"/>
        <pt x="350" y="39" on="0"/>
        <pt x="346" y="47" on="1"/>
        <pt x="324" y="33" on="1"/>
        <pt x="297" y="16" on="0"/>
        <pt x="235" y="-8" on="0"/>
        <pt x="204" y="-8" on="1"/>
        <pt x="167" y="-8" on="0"/>
        <pt x="102" y="25" on="0"/>
        <pt x="54" y="83" on="0"/>
        <pt x="27" y="164" on="0"/>
        <pt x="27" y="212" on="1"/>
        <pt x="27" y="272" on="0"/>
        <pt x="68" y="376" on="0"/>
        <pt x="135" y="452" on="0"/>
        <pt x="220" y="496" on="0"/>
        <pt x="264" y="496" on="1"/>
        <pt x="294" y="496" on="0"/>
        <pt x="342" y="477" on="0"/>
        <pt x="371" y="459" on="1"/>
        <pt x="392" y="446" on="1"/>
      </contour>
      <contour>
        <pt x="362" y="346" on="1"/>
        <pt x="364" y="357" on="0"/>
        <pt x="360" y="363" on="0"/>
        <pt x="353" y="367" on="1"/>
        <pt x="324" y="382" on="0"/>
        <pt x="283" y="382" on="1"/>
        <pt x="225" y="382" on="0"/>
        <pt x="155" y="291" on="0"/>
        <pt x="155" y="214" on="1"/>
        <pt x="155" y="163" on="0"/>
        <pt x="198" y="106" on="0"/>
        <pt x="242" y="106" on="1"/>
        <pt x="262" y="106" on="0"/>
        <pt x="309" y="119" on="0"/>
        <pt x="325" y="128" on="1"/>
        <pt x="334" y="133" on="0"/>
        <pt x="338" y="140" on="0"/>
        <pt x="339" y="148" on="1"/>
      </contour>
    </TTGlyph>
    <TTGlyph name="apple" xMin="78" yMin="0" xMax="466" yMax="650">
      <contour>
        <pt x="208" y="357" on="1"/>
        <pt x="208" y="370" on="0"/>
        <pt x="227" y="388" on="0"/>
        <pt x="239" y="388" on="1"/>
        <pt x="252" y="388" on="0"/>
        <pt x="269" y="370" on="0"/>
        <pt x="269" y="357" on="1"/>
        <pt x="269" y="344" on="0"/>
        <pt x="252" y="327" on="0"/>
        <pt x="239" y="327" on="1"/>
        <pt x="227" y="327" on="0"/>
        <pt x="208" y="344" on="0"/>
      </contour>
      <contour>
        <pt x="405" y="357" on="1"/>
        <pt x="405" y="370" on="0"/>
        <pt x="424" y="388" on="0"/>
        <pt x="436" y="388" on="1"/>
        <pt x="449" y="388" on="0"/>
        <pt x="466" y="370" on="0"/>
        <pt x="466" y="357" on="1"/>
        <pt x="466" y="344" on="0"/>
        <pt x="449" y="327" on="0"/>
        <pt x="436" y="327" on="1"/>
        <pt x="424" y="327" on="0"/>
        <pt x="405" y="344" on="0"/>
      </contour>
      <contour>
        <pt x="78" y="161" on="1"/>
        <pt x="78" y="174" on="0"/>
        <pt x="95" y="191" on="0"/>
        <pt x="108" y="191" on="1"/>
        <pt x="120" y="191" on="0"/>
        <pt x="139" y="174" on="0"/>
        <pt x="139" y="161" on="1"/>
        <pt x="139" y="148" on="0"/>
        <pt x="120" y="130" on="0"/>
        <pt x="108" y="130" on="1"/>
        <pt x="95" y="130" on="0"/>
        <pt x="78" y="148" on="0"/>
      </contour>
      <contour>
        <pt x="78" y="357" on="1"/>
        <pt x="78" y="370" on="0"/>
        <pt x="95" y="388" on="0"/>
        <pt x="108" y="388" on="1"/>
        <pt x="120" y="388" on="0"/>
        <pt x="139" y="370" on="0"/>
        <pt x="139" y="357" on="1"/>
        <pt x="139" y="344" on="0"/>
        <pt x="120" y="327" on="0"/>
        <pt x="108" y="327" on="1"/>
        <pt x="95" y="327" on="0"/>
        <pt x="78" y="344" on="0"/>
      </contour>
      <contour>
        <pt x="275" y="357" on="1"/>
        <pt x="275" y="370" on="0"/>
        <pt x="292" y="388" on="0"/>
        <pt x="305" y="388" on="1"/>
        <pt x="317" y="388" on="0"/>
        <pt x="336" y="370" on="0"/>
        <pt x="336" y="357" on="1"/>
        <pt x="336" y="344" on="0"/>
        <pt x="317" y="327" on="0"/>
        <pt x="305" y="327" on="1"/>
        <pt x="292" y="327" on="0"/>
        <pt x="275" y="344" on="0"/>
      </contour>
      <contour>
        <pt x="340" y="620" on="1"/>
        <pt x="340" y="632" on="0"/>
        <pt x="357" y="650" on="0"/>
        <pt x="371" y="650" on="1"/>
        <pt x="382" y="650" on="0"/>
        <pt x="401" y="632" on="0"/>
        <pt x="401" y="620" on="1"/>
        <pt x="401" y="606" on="0"/>
        <pt x="382" y="589" on="0"/>
        <pt x="371" y="589" on="1"/>
        <pt x="357" y="589" on="0"/>
        <pt x="340" y="606" on="0"/>
      </contour>
      <contour>
        <pt x="78" y="620" on="1"/>
        <pt x="78" y="632" on="0"/>
        <pt x="95" y="650" on="0"/>
        <pt x="108" y="650" on="1"/>
        <pt x="120" y="650" on="0"/>
        <pt x="139" y="632" on="0"/>
        <pt x="139" y="620" on="1"/>
        <pt x="139" y="606" on="0"/>
        <pt x="120" y="589" on="0"/>
        <pt x="108" y="589" on="1"/>
        <pt x="95" y="589" on="0"/>
        <pt x="78" y="606" on="0"/>
      </contour>
      <contour>
        <pt x="275" y="620" on="1"/>
        <pt x="275" y="632" on="0"/>
        <pt x="292" y="650" on="0"/>
        <pt x="305" y="650" on="1"/>
        <pt x="317" y="650" on="0"/>
        <pt x="336" y="632" on="0"/>
        <pt x="336" y="620" on="1"/>
        <pt x="336" y="606" on="0"/>
        <pt x="317" y="589" on="0"/>
        <pt x="305" y="589" on="1"/>
        <pt x="292" y="589" on="0"/>
        <pt x="275" y="606" on="0"/>
      </contour>
      <contour>
        <pt x="405" y="620" on="1"/>
        <pt x="405" y="632" on="0"/>
        <pt x="424" y="650" on="0"/>
        <pt x="436" y="650" on="1"/>
        <pt x="449" y="650" on="0"/>
        <pt x="466" y="632" on="0"/>
        <pt x="466" y="620" on="1"/>
        <pt x="466" y="606" on="0"/>
        <pt x="449" y="589" on="0"/>
        <pt x="436" y="589" on="1"/>
        <pt x="424" y="589" on="0"/>
        <pt x="405" y="606" on="0"/>
      </contour>
      <contour>
        <pt x="208" y="620" on="1"/>
        <pt x="208" y="632" on="0"/>
        <pt x="227" y="650" on="0"/>
        <pt x="239" y="650" on="1"/>
        <pt x="252" y="650" on="0"/>
        <pt x="269" y="632" on="0"/>
        <pt x="269" y="620" on="1"/>
        <pt x="269" y="606" on="0"/>
        <pt x="252" y="589" on="0"/>
        <pt x="239" y="589" on="1"/>
        <pt x="227" y="589" on="0"/>
        <pt x="208" y="606" on="0"/>
      </contour>
      <contour>
        <pt x="340" y="357" on="1"/>
        <pt x="340" y="370" on="0"/>
        <pt x="357" y="388" on="0"/>
        <pt x="371" y="388" on="1"/>
        <pt x="382" y="388" on="0"/>
        <pt x="401" y="370" on="0"/>
        <pt x="401" y="357" on="1"/>
        <pt x="401" y="344" on="0"/>
        <pt x="382" y="327" on="0"/>
        <pt x="371" y="327" on="1"/>
        <pt x="357" y="327" on="0"/>
        <pt x="340" y="344" on="0"/>
      </contour>
      <contour>
        <pt x="208" y="30" on="1"/>
        <pt x="208" y="42" on="0"/>
        <pt x="227" y="61" on="0"/>
        <pt x="239" y="61" on="1"/>
        <pt x="252" y="61" on="0"/>
        <pt x="269" y="42" on="0"/>
        <pt x="269" y="30" on="1"/>
        <pt x="269" y="17" on="0"/>
        <pt x="252" y="0" on="0"/>
        <pt x="239" y="0" on="1"/>
        <pt x="227" y="0" on="0"/>
        <pt x="208" y="17" on="0"/>
      </contour>
      <contour>
        <pt x="78" y="30" on="1"/>
        <pt x="78" y="42" on="0"/>
        <pt x="95" y="61" on="0"/>
        <pt x="108" y="61" on="1"/>
        <pt x="120" y="61" on="0"/>
        <pt x="139" y="42" on="0"/>
        <pt x="139" y="30" on="1"/>
        <pt x="139" y="17" on="0"/>
        <pt x="120" y="0" on="0"/>
        <pt x="108" y="0" on="1"/>
        <pt x="95" y="0" on="0"/>
        <pt x="78" y="17" on="0"/>
      </contour>
      <contour>
        <pt x="208" y="95" on="1"/>
        <pt x="208" y="109" on="0"/>
        <pt x="227" y="125" on="0"/>
        <pt x="239" y="125" on="1"/>
        <pt x="252" y="125" on="0"/>
        <pt x="269" y="109" on="0"/>
        <pt x="269" y="95" on="1"/>
        <pt x="269" y="82" on="0"/>
        <pt x="252" y="65" on="0"/>
        <pt x="239" y="65" on="1"/>
        <pt x="227" y="65" on="0"/>
        <pt x="208" y="82" on="0"/>
      </contour>
      <contour>
        <pt x="78" y="95" on="1"/>
        <pt x="78" y="109" on="0"/>
        <pt x="95" y="125" on="0"/>
        <pt x="108" y="125" on="1"/>
        <pt x="120" y="125" on="0"/>
        <pt x="139" y="109" on="0"/>
        <pt x="139" y="95" on="1"/>
        <pt x="139" y="82" on="0"/>
        <pt x="120" y="65" on="0"/>
        <pt x="108" y="65" on="1"/>
        <pt x="95" y="65" on="0"/>
        <pt x="78" y="82" on="0"/>
      </contour>
      <contour>
        <pt x="144" y="620" on="1"/>
        <pt x="144" y="632" on="0"/>
        <pt x="162" y="650" on="0"/>
        <pt x="174" y="650" on="1"/>
        <pt x="187" y="650" on="0"/>
        <pt x="204" y="632" on="0"/>
        <pt x="204" y="620" on="1"/>
        <pt x="204" y="606" on="0"/>
        <pt x="187" y="589" on="0"/>
        <pt x="174" y="589" on="1"/>
        <pt x="162" y="589" on="0"/>
        <pt x="144" y="606" on="0"/>
      </contour>
      <contour>
        <pt x="78" y="489" on="1"/>
        <pt x="78" y="501" on="0"/>
        <pt x="95" y="518" on="0"/>
        <pt x="108" y="518" on="1"/>
        <pt x="120" y="518" on="0"/>
        <pt x="139" y="501" on="0"/>
        <pt x="139" y="489" on="1"/>
        <pt x="139" y="476" on="0"/>
        <pt x="120" y="458" on="0"/>
        <pt x="108" y="458" on="1"/>
        <pt x="95" y="458" on="0"/>
        <pt x="78" y="476" on="0"/>
      </contour>
      <contour>
        <pt x="275" y="489" on="1"/>
        <pt x="275" y="501" on="0"/>
        <pt x="292" y="518" on="0"/>
        <pt x="305" y="518" on="1"/>
        <pt x="317" y="518" on="0"/>
        <pt x="336" y="501" on="0"/>
        <pt x="336" y="489" on="1"/>
        <pt x="336" y="476" on="0"/>
        <pt x="317" y="458" on="0"/>
        <pt x="305" y="458" on="1"/>
        <pt x="292" y="458" on="0"/>
        <pt x="275" y="476" on="0"/>
      </contour>
      <contour>
        <pt x="208" y="489" on="1"/>
        <pt x="208" y="501" on="0"/>
        <pt x="227" y="518" on="0"/>
        <pt x="239" y="518" on="1"/>
        <pt x="252" y="518" on="0"/>
        <pt x="269" y="501" on="0"/>
        <pt x="269" y="489" on="1"/>
        <pt x="269" y="476" on="0"/>
        <pt x="252" y="458" on="0"/>
        <pt x="239" y="458" on="1"/>
        <pt x="227" y="458" on="0"/>
        <pt x="208" y="476" on="0"/>
      </contour>
      <contour>
        <pt x="405" y="489" on="1"/>
        <pt x="405" y="501" on="0"/>
        <pt x="424" y="518" on="0"/>
        <pt x="436" y="518" on="1"/>
        <pt x="449" y="518" on="0"/>
        <pt x="466" y="501" on="0"/>
        <pt x="466" y="489" on="1"/>
        <pt x="466" y="476" on="0"/>
        <pt x="449" y="458" on="0"/>
        <pt x="436" y="458" on="1"/>
        <pt x="424" y="458" on="0"/>
        <pt x="405" y="476" on="0"/>
      </contour>
      <contour>
        <pt x="340" y="489" on="1"/>
        <pt x="340" y="501" on="0"/>
        <pt x="357" y="518" on="0"/>
        <pt x="371" y="518" on="1"/>
        <pt x="382" y="518" on="0"/>
        <pt x="401" y="501" on="0"/>
        <pt x="401" y="489" on="1"/>
        <pt x="401" y="476" on="0"/>
        <pt x="382" y="458" on="0"/>
        <pt x="371" y="458" on="1"/>
        <pt x="357" y="458" on="0"/>
        <pt x="340" y="476" on="0"/>
      </contour>
      <contour>
        <pt x="144" y="30" on="1"/>
        <pt x="144" y="42" on="0"/>
        <pt x="162" y="61" on="0"/>
        <pt x="174" y="61" on="1"/>
        <pt x="187" y="61" on="0"/>
        <pt x="204" y="42" on="0"/>
        <pt x="204" y="30" on="1"/>
        <pt x="204" y="17" on="0"/>
        <pt x="187" y="0" on="0"/>
        <pt x="174" y="0" on="1"/>
        <pt x="162" y="0" on="0"/>
        <pt x="144" y="17" on="0"/>
      </contour>
      <contour>
        <pt x="78" y="292" on="1"/>
        <pt x="78" y="304" on="0"/>
        <pt x="95" y="322" on="0"/>
        <pt x="108" y="322" on="1"/>
        <pt x="120" y="322" on="0"/>
        <pt x="139" y="304" on="0"/>
        <pt x="139" y="292" on="1"/>
        <pt x="139" y="279" on="0"/>
        <pt x="120" y="262" on="0"/>
        <pt x="108" y="262" on="1"/>
        <pt x="95" y="262" on="0"/>
        <pt x="78" y="279" on="0"/>
      </contour>
      <contour>
        <pt x="78" y="554" on="1"/>
        <pt x="78" y="566" on="0"/>
        <pt x="95" y="584" on="0"/>
        <pt x="108" y="584" on="1"/>
        <pt x="120" y="584" on="0"/>
        <pt x="139" y="566" on="0"/>
        <pt x="139" y="554" on="1"/>
        <pt x="139" y="541" on="0"/>
        <pt x="120" y="524" on="0"/>
        <pt x="108" y="524" on="1"/>
        <pt x="95" y="524" on="0"/>
        <pt x="78" y="541" on="0"/>
      </contour>
      <contour>
        <pt x="405" y="292" on="1"/>
        <pt x="405" y="304" on="0"/>
        <pt x="424" y="322" on="0"/>
        <pt x="436" y="322" on="1"/>
        <pt x="449" y="322" on="0"/>
        <pt x="466" y="304" on="0"/>
        <pt x="466" y="292" on="1"/>
        <pt x="466" y="279" on="0"/>
        <pt x="449" y="262" on="0"/>
        <pt x="436" y="262" on="1"/>
        <pt x="424" y="262" on="0"/>
        <pt x="405" y="279" on="0"/>
      </contour>
      <contour>
        <pt x="78" y="423" on="1"/>
        <pt x="78" y="436" on="0"/>
        <pt x="95" y="453" on="0"/>
        <pt x="108" y="453" on="1"/>
        <pt x="120" y="453" on="0"/>
        <pt x="139" y="436" on="0"/>
        <pt x="139" y="423" on="1"/>
        <pt x="139" y="410" on="0"/>
        <pt x="120" y="394" on="0"/>
        <pt x="108" y="394" on="1"/>
        <pt x="95" y="394" on="0"/>
        <pt x="78" y="410" on="0"/>
      </contour>
      <contour>
        <pt x="208" y="423" on="1"/>
        <pt x="208" y="436" on="0"/>
        <pt x="227" y="453" on="0"/>
        <pt x="239" y="453" on="1"/>
        <pt x="252" y="453" on="0"/>
        <pt x="269" y="436" on="0"/>
        <pt x="269" y="423" on="1"/>
        <pt x="269" y="410" on="0"/>
        <pt x="252" y="394" on="0"/>
        <pt x="239" y="394" on="1"/>
        <pt x="227" y="394" on="0"/>
        <pt x="208" y="410" on="0"/>
      </contour>
      <contour>
        <pt x="208" y="227" on="1"/>
        <pt x="208" y="239" on="0"/>
        <pt x="227" y="256" on="0"/>
        <pt x="239" y="256" on="1"/>
        <pt x="252" y="256" on="0"/>
        <pt x="269" y="239" on="0"/>
        <pt x="269" y="227" on="1"/>
        <pt x="269" y="214" on="0"/>
        <pt x="252" y="197" on="0"/>
        <pt x="239" y="197" on="1"/>
        <pt x="227" y="197" on="0"/>
        <pt x="208" y="214" on="0"/>
      </contour>
      <contour>
        <pt x="405" y="227" on="1"/>
        <pt x="405" y="239" on="0"/>
        <pt x="424" y="256" on="0"/>
        <pt x="436" y="256" on="1"/>
        <pt x="449" y="256" on="0"/>
        <pt x="466" y="239" on="0"/>
        <pt x="466" y="227" on="1"/>
        <pt x="466" y="214" on="0"/>
        <pt x="449" y="197" on="0"/>
        <pt x="436" y="197" on="1"/>
        <pt x="424" y="197" on="0"/>
        <pt x="405" y="214" on="0"/>
      </contour>
      <contour>
        <pt x="78" y="227" on="1"/>
        <pt x="78" y="239" on="0"/>
        <pt x="95" y="256" on="0"/>
        <pt x="108" y="256" on="1"/>
        <pt x="120" y="256" on="0"/>
        <pt x="139" y="239" on="0"/>
        <pt x="139" y="227" on="1"/>
        <pt x="139" y="214" on="0"/>
        <pt x="120" y="197" on="0"/>
        <pt x="108" y="197" on="1"/>
        <pt x="95" y="197" on="0"/>
        <pt x="78" y="214" on="0"/>
      </contour>
      <contour>
        <pt x="275" y="227" on="1"/>
        <pt x="275" y="239" on="0"/>
        <pt x="292" y="256" on="0"/>
        <pt x="305" y="256" on="1"/>
        <pt x="317" y="256" on="0"/>
        <pt x="336" y="239" on="0"/>
        <pt x="336" y="227" on="1"/>
        <pt x="336" y="214" on="0"/>
        <pt x="317" y="197" on="0"/>
        <pt x="305" y="197" on="1"/>
        <pt x="292" y="197" on="0"/>
        <pt x="275" y="214" on="0"/>
      </contour>
      <contour>
        <pt x="340" y="227" on="1"/>
        <pt x="340" y="239" on="0"/>
        <pt x="357" y="256" on="0"/>
        <pt x="371" y="256" on="1"/>
        <pt x="382" y="256" on="0"/>
        <pt x="401" y="239" on="0"/>
        <pt x="401" y="227" on="1"/>
        <pt x="401" y="214" on="0"/>
        <pt x="382" y="197" on="0"/>
        <pt x="371" y="197" on="1"/>
        <pt x="357" y="197" on="0"/>
        <pt x="340" y="214" on="0"/>
      </contour>
    </TTGlyph>
    <TTGlyph name="approxequal" xMin="38" yMin="57" xMax="500" yMax="439">
      <contour>
        <pt x="350" y="281" on="1"/>
        <pt x="326" y="281" on="0"/>
        <pt x="286" y="296" on="0"/>
        <pt x="250" y="313" on="0"/>
        <pt x="217" y="328" on="0"/>
        <pt x="201" y="328" on="1"/>
        <pt x="181" y="328" on="0"/>
        <pt x="148" y="306" on="0"/>
        <pt x="129" y="280" on="1"/>
        <pt x="63" y="308" on="1"/>
        <pt x="72" y="336" on="0"/>
        <pt x="103" y="383" on="0"/>
        <pt x="143" y="418" on="0"/>
        <pt x="190" y="438" on="0"/>
        <pt x="214" y="438" on="1"/>
        <pt x="238" y="438" on="0"/>
        <pt x="279" y="423" on="0"/>
        <pt x="315" y="406" on="0"/>
        <pt x="348" y="391" on="0"/>
        <pt x="363" y="391" on="1"/>
        <pt x="385" y="391" on="0"/>
        <pt x="418" y="416" on="0"/>
        <pt x="434" y="439" on="1"/>
        <pt x="500" y="411" on="1"/>
        <pt x="491" y="384" on="0"/>
        <pt x="460" y="336" on="0"/>
        <pt x="420" y="301" on="0"/>
        <pt x="374" y="281" on="0"/>
      </contour>
      <contour>
        <pt x="325" y="58" on="1"/>
        <pt x="301" y="58" on="0"/>
        <pt x="261" y="73" on="0"/>
        <pt x="225" y="90" on="0"/>
        <pt x="192" y="105" on="0"/>
        <pt x="176" y="105" on="1"/>
        <pt x="156" y="105" on="0"/>
        <pt x="123" y="83" on="0"/>
        <pt x="104" y="57" on="1"/>
        <pt x="38" y="85" on="1"/>
        <pt x="47" y="113" on="0"/>
        <pt x="78" y="160" on="0"/>
        <pt x="118" y="195" on="0"/>
        <pt x="165" y="215" on="0"/>
        <pt x="189" y="215" on="1"/>
        <pt x="213" y="215" on="0"/>
        <pt x="254" y="200" on="0"/>
        <pt x="290" y="183" on="0"/>
        <pt x="323" y="168" on="0"/>
        <pt x="338" y="168" on="1"/>
        <pt x="360" y="168" on="0"/>
        <pt x="393" y="193" on="0"/>
        <pt x="409" y="216" on="1"/>
        <pt x="475" y="188" on="1"/>
        <pt x="466" y="161" on="0"/>
        <pt x="435" y="113" on="0"/>
        <pt x="395" y="78" on="0"/>
        <pt x="349" y="58" on="0"/>
      </contour>
    </TTGlyph>
    <TTGlyph name="aring" xMin="27" yMin="-8" xMax="532" yMax="795">
      <component glyphName="a" x="0" y="0" flags="0x204"/>
      <component glyphName="ring" x="81" y="0" flags="0x4"/>
    </TTGlyph>
    <TTGlyph name="aringacute" xMin="27" yMin="-8" xMax="532" yMax="989">
      <component glyphName="a" x="0" y="0" flags="0x204"/>
      <component glyphName="ring" x="76" y="-21" flags="0x4"/>
      <component glyphName="acute" x="100" y="242" flags="0x4"/>
    </TTGlyph>
    <TTGlyph name="arrowdown" xMin="154" yMin="-93" xMax="635" yMax="581">
      <contour>
        <pt x="353" y="-84" on="1"/>
        <pt x="154" y="116" on="1"/>
        <pt x="208" y="170" on="1"/>
        <pt x="340" y="55" on="1"/>
        <pt x="340" y="581" on="1"/>
        <pt x="446" y="581" on="1"/>
        <pt x="446" y="53" on="1"/>
        <pt x="582" y="170" on="1"/>
        <pt x="635" y="117" on="1"/>
        <pt x="427" y="-93" on="1"/>
        <pt x="376" y="-93" on="1"/>
        <pt x="369" y="-93" on="0"/>
        <pt x="359" y="-90" on="0"/>
      </contour>
    </TTGlyph>
    <TTGlyph name="arrowdown.cap" xMin="154" yMin="-7" xMax="635" yMax="667">
      <contour>
        <pt x="353" y="2" on="1"/>
        <pt x="154" y="202" on="1"/>
        <pt x="208" y="256" on="1"/>
        <pt x="340" y="141" on="1"/>
        <pt x="340" y="667" on="1"/>
        <pt x="446" y="667" on="1"/>
        <pt x="446" y="139" on="1"/>
        <pt x="582" y="256" on="1"/>
        <pt x="635" y="203" on="1"/>
        <pt x="427" y="-7" on="1"/>
        <pt x="376" y="-7" on="1"/>
        <pt x="369" y="-7" on="0"/>
        <pt x="359" y="-4" on="0"/>
      </contour>
    </TTGlyph>
    <TTGlyph name="arrowleft" xMin="57" yMin="1" xMax="731" yMax="483">
      <contour>
        <pt x="266" y="483" on="1"/>
        <pt x="320" y="429" on="1"/>
        <pt x="205" y="294" on="1"/>
        <pt x="731" y="294" on="1"/>
        <pt x="731" y="194" on="1"/>
        <pt x="203" y="194" on="1"/>
        <pt x="320" y="55" on="1"/>
        <pt x="266" y="1" on="1"/>
        <pt x="57" y="210" on="1"/>
        <pt x="57" y="260" on="1"/>
        <pt x="57" y="268" on="0"/>
        <pt x="60" y="277" on="0"/>
        <pt x="66" y="283" on="1"/>
      </contour>
    </TTGlyph>
    <TTGlyph name="arrowleft.cap" xMin="57" yMin="87" xMax="731" yMax="569">
      <contour>
        <pt x="266" y="569" on="1"/>
        <pt x="320" y="515" on="1"/>
        <pt x="205" y="380" on="1"/>
        <pt x="731" y="380" on="1"/>
        <pt x="731" y="280" on="1"/>
        <pt x="203" y="280" on="1"/>
        <pt x="320" y="141" on="1"/>
        <pt x="266" y="87" on="1"/>
        <pt x="57" y="296" on="1"/>
        <pt x="57" y="346" on="1"/>
        <pt x="57" y="354" on="0"/>
        <pt x="60" y="363" on="0"/>
        <pt x="66" y="369" on="1"/>
      </contour>
    </TTGlyph>
    <TTGlyph name="arrowright" xMin="57" yMin="5" xMax="731" yMax="487">
      <contour>
        <pt x="522" y="5" on="1"/>
        <pt x="468" y="59" on="1"/>
        <pt x="583" y="194" on="1"/>
        <pt x="57" y="194" on="1"/>
        <pt x="57" y="294" on="1"/>
        <pt x="585" y="294" on="1"/>
        <pt x="468" y="433" on="1"/>
        <pt x="522" y="487" on="1"/>
        <pt x="731" y="278" on="1"/>
        <pt x="731" y="228" on="1"/>
        <pt x="731" y="220" on="0"/>
        <pt x="728" y="211" on="0"/>
        <pt x="722" y="205" on="1"/>
      </contour>
    </TTGlyph>
    <TTGlyph name="arrowright.cap" xMin="57" yMin="91" xMax="731" yMax="573">
      <contour>
        <pt x="522" y="91" on="1"/>
        <pt x="468" y="145" on="1"/>
        <pt x="583" y="280" on="1"/>
        <pt x="57" y="280" on="1"/>
        <pt x="57" y="380" on="1"/>
        <pt x="585" y="380" on="1"/>
        <pt x="468" y="519" on="1"/>
        <pt x="522" y="573" on="1"/>
        <pt x="731" y="364" on="1"/>
        <pt x="731" y="314" on="1"/>
        <pt x="731" y="306" on="0"/>
        <pt x="728" y="297" on="0"/>
        <pt x="722" y="291" on="1"/>
      </contour>
    </TTGlyph>
    <TTGlyph name="arrowup" xMin="154" yMin="-93" xMax="635" yMax="581">
      <contour>
        <pt x="436" y="571" on="1"/>
        <pt x="635" y="371" on="1"/>
        <pt x="582" y="318" on="1"/>
        <pt x="450" y="432" on="1"/>
        <pt x="450" y="-93" on="1"/>
        <pt x="344" y="-93" on="1"/>
        <pt x="344" y="434" on="1"/>
        <pt x="208" y="318" on="1"/>
        <pt x="154" y="371" on="1"/>
        <pt x="363" y="581" on="1"/>
        <pt x="413" y="581" on="1"/>
        <pt x="421" y="581" on="0"/>
        <pt x="430" y="577" on="0"/>
      </contour>
    </TTGlyph>
    <TTGlyph name="arrowup.cap" xMin="154" yMin="-7" xMax="635" yMax="667">
      <contour>
        <pt x="436" y="657" on="1"/>
        <pt x="635" y="457" on="1"/>
        <pt x="582" y="404" on="1"/>
        <pt x="450" y="518" on="1"/>
        <pt x="450" y="-7" on="1"/>
        <pt x="344" y="-7" on="1"/>
        <pt x="344" y="520" on="1"/>
        <pt x="208" y="404" on="1"/>
        <pt x="154" y="457" on="1"/>
        <pt x="363" y="667" on="1"/>
        <pt x="413" y="667" on="1"/>
        <pt x="421" y="667" on="0"/>
        <pt x="430" y="663" on="0"/>
      </contour>
    </TTGlyph>
    <TTGlyph name="asciicircum" xMin="75" yMin="383" xMax="499" yMax="673">
      <contour>
        <pt x="358" y="673" on="1"/>
        <pt x="499" y="446" on="1"/>
        <pt x="401" y="383" on="1"/>
        <pt x="299" y="544" on="1"/>
        <pt x="297" y="544" on="1"/>
        <pt x="157" y="383" on="1"/>
        <pt x="75" y="446" on="1"/>
        <pt x="270" y="673" on="1"/>
      </contour>
    </TTGlyph>
    <TTGlyph name="asciitilde" xMin="62" yMin="277" xMax="499" yMax="436">
      <contour>
        <pt x="349" y="278" on="1"/>
        <pt x="325" y="278" on="0"/>
        <pt x="285" y="293" on="0"/>
        <pt x="249" y="310" on="0"/>
        <pt x="216" y="325" on="0"/>
        <pt x="200" y="325" on="1"/>
        <pt x="180" y="325" on="0"/>
        <pt x="147" y="303" on="0"/>
        <pt x="128" y="277" on="1"/>
        <pt x="62" y="305" on="1"/>
        <pt x="71" y="333" on="0"/>
        <pt x="102" y="380" on="0"/>
        <pt x="142" y="415" on="0"/>
        <pt x="189" y="435" on="0"/>
        <pt x="213" y="435" on="1"/>
        <pt x="237" y="435" on="0"/>
        <pt x="278" y="420" on="0"/>
        <pt x="314" y="403" on="0"/>
        <pt x="347" y="388" on="0"/>
        <pt x="362" y="388" on="1"/>
        <pt x="384" y="388" on="0"/>
        <pt x="417" y="413" on="0"/>
        <pt x="433" y="436" on="1"/>
        <pt x="499" y="408" on="1"/>
        <pt x="490" y="381" on="0"/>
        <pt x="459" y="333" on="0"/>
        <pt x="419" y="298" on="0"/>
        <pt x="373" y="278" on="0"/>
      </contour>
    </TTGlyph>
    <TTGlyph name="asterisk" xMin="61" yMin="284" xMax="434" yMax="663">
      <contour>
        <pt x="312" y="293" on="1"/>
        <pt x="297" y="284" on="0"/>
        <pt x="291" y="298" on="1"/>
        <pt x="239" y="419" on="1"/>
        <pt x="149" y="284" on="1"/>
        <pt x="81" y="335" on="1"/>
        <pt x="67" y="345" on="0"/>
        <pt x="84" y="361" on="1"/>
        <pt x="195" y="463" on="1"/>
        <pt x="61" y="492" on="1"/>
        <pt x="98" y="567" on="1"/>
        <pt x="103" y="578" on="0"/>
        <pt x="115" y="584" on="0"/>
        <pt x="125" y="577" on="1"/>
        <pt x="219" y="517" on="1"/>
        <pt x="214" y="663" on="1"/>
        <pt x="307" y="663" on="1"/>
        <pt x="322" y="663" on="0"/>
        <pt x="318" y="647" on="1"/>
        <pt x="282" y="517" on="1"/>
        <pt x="410" y="586" on="1"/>
        <pt x="431" y="509" on="1"/>
        <pt x="434" y="498" on="0"/>
        <pt x="426" y="490" on="0"/>
        <pt x="415" y="488" on="1"/>
        <pt x="295" y="463" on="1"/>
        <pt x="393" y="344" on="1"/>
      </contour>
    </TTGlyph>
    <TTGlyph name="at" xMin="38" yMin="-99" xMax="713" yMax="583">
      <contour>
        <pt x="312" y="227" on="1"/>
        <pt x="312" y="198" on="0"/>
        <pt x="339" y="163" on="0"/>
        <pt x="365" y="163" on="1"/>
        <pt x="386" y="163" on="0"/>
        <pt x="410" y="174" on="1"/>
        <pt x="415" y="176" on="0"/>
        <pt x="418" y="182" on="0"/>
        <pt x="419" y="187" on="1"/>
        <pt x="434" y="306" on="1"/>
        <pt x="435" y="314" on="0"/>
        <pt x="428" y="318" on="1"/>
        <pt x="420" y="322" on="0"/>
        <pt x="396" y="327" on="0"/>
        <pt x="385" y="327" on="1"/>
        <pt x="350" y="327" on="0"/>
        <pt x="312" y="272" on="0"/>
      </contour>
      <contour>
        <pt x="436" y="118" on="1"/>
        <pt x="407" y="98" on="0"/>
        <pt x="364" y="80" on="0"/>
        <pt x="344" y="80" on="1"/>
        <pt x="319" y="80" on="0"/>
        <pt x="275" y="100" on="0"/>
        <pt x="242" y="137" on="0"/>
        <pt x="222" y="190" on="0"/>
        <pt x="222" y="224" on="1"/>
        <pt x="222" y="264" on="0"/>
        <pt x="247" y="332" on="0"/>
        <pt x="289" y="381" on="0"/>
        <pt x="343" y="408" on="0"/>
        <pt x="371" y="408" on="1"/>
        <pt x="394" y="408" on="0"/>
        <pt x="435" y="391" on="0"/>
        <pt x="458" y="373" on="1"/>
        <pt x="475" y="403" on="1"/>
        <pt x="533" y="399" on="1"/>
        <pt x="510" y="206" on="1"/>
        <pt x="509" y="199" on="0"/>
        <pt x="508" y="187" on="0"/>
        <pt x="508" y="182" on="1"/>
        <pt x="508" y="168" on="0"/>
        <pt x="524" y="150" on="0"/>
        <pt x="541" y="150" on="1"/>
        <pt x="576" y="150" on="0"/>
        <pt x="621" y="223" on="0"/>
        <pt x="621" y="288" on="1"/>
        <pt x="621" y="338" on="0"/>
        <pt x="588" y="414" on="0"/>
        <pt x="531" y="466" on="0"/>
        <pt x="453" y="492" on="0"/>
        <pt x="408" y="492" on="1"/>
        <pt x="349" y="492" on="0"/>
        <pt x="251" y="450" on="0"/>
        <pt x="181" y="376" on="0"/>
        <pt x="142" y="275" on="0"/>
        <pt x="142" y="217" on="1"/>
        <pt x="142" y="164" on="0"/>
        <pt x="175" y="80" on="0"/>
        <pt x="236" y="22" on="0"/>
        <pt x="324" y="-9" on="0"/>
        <pt x="378" y="-9" on="1"/>
        <pt x="414" y="-9" on="0"/>
        <pt x="503" y="10" on="0"/>
        <pt x="553" y="26" on="1"/>
        <pt x="621" y="47" on="1"/>
        <pt x="645" y="-9" on="1"/>
        <pt x="582" y="-51" on="0"/>
        <pt x="434" y="-99" on="0"/>
        <pt x="356" y="-99" on="1"/>
        <pt x="285" y="-99" on="0"/>
        <pt x="168" y="-53" on="0"/>
        <pt x="84" y="29" on="0"/>
        <pt x="38" y="141" on="0"/>
        <pt x="38" y="208" on="1"/>
        <pt x="38" y="287" on="0"/>
        <pt x="96" y="424" on="0"/>
        <pt x="196" y="525" on="0"/>
        <pt x="333" y="583" on="0"/>
        <pt x="412" y="583" on="1"/>
        <pt x="475" y="583" on="0"/>
        <pt x="585" y="542" on="0"/>
        <pt x="666" y="467" on="0"/>
        <pt x="713" y="364" on="0"/>
        <pt x="713" y="303" on="1"/>
        <pt x="713" y="256" on="0"/>
        <pt x="685" y="174" on="0"/>
        <pt x="635" y="114" on="0"/>
        <pt x="567" y="79" on="0"/>
        <pt x="528" y="79" on="1"/>
        <pt x="496" y="79" on="0"/>
        <pt x="450" y="101" on="0"/>
      </contour>
    </TTGlyph>
    <TTGlyph name="at.cap" xMin="47" yMin="-9" xMax="722" yMax="673">
      <component glyphName="at" x="9" y="90" flags="0x204"/>
    </TTGlyph>
    <TTGlyph name="atilde" xMin="27" yMin="-8" xMax="532" yMax="703">
      <component glyphName="a" x="0" y="0" flags="0x204"/>
      <component glyphName="tilde" x="89" y="0" flags="0x4"/>
    </TTGlyph>
    <TTGlyph name="b" xMin="31" yMin="-8" xMax="517" yMax="709">
      <contour>
        <pt x="210" y="450" on="1"/>
        <pt x="229" y="461" on="1"/>
        <pt x="255" y="475" on="0"/>
        <pt x="312" y="496" on="0"/>
        <pt x="341" y="496" on="1"/>
        <pt x="377" y="496" on="0"/>
        <pt x="441" y="463" on="0"/>
        <pt x="489" y="405" on="0"/>
        <pt x="517" y="323" on="0"/>
        <pt x="517" y="275" on="1"/>
        <pt x="517" y="215" on="0"/>
        <pt x="478" y="112" on="0"/>
        <pt x="413" y="35" on="0"/>
        <pt x="329" y="-8" on="0"/>
        <pt x="285" y="-8" on="1"/>
        <pt x="256" y="-8" on="0"/>
        <pt x="194" y="12" on="0"/>
        <pt x="166" y="30" on="1"/>
        <pt x="144" y="44" on="1"/>
        <pt x="121" y="-2" on="1"/>
        <pt x="31" y="4" on="1"/>
        <pt x="114" y="709" on="1"/>
        <pt x="241" y="709" on="1"/>
      </contour>
      <contour>
        <pt x="174" y="144" on="1"/>
        <pt x="172" y="134" on="0"/>
        <pt x="178" y="126" on="0"/>
        <pt x="184" y="123" on="1"/>
        <pt x="199" y="116" on="0"/>
        <pt x="240" y="106" on="0"/>
        <pt x="266" y="106" on="1"/>
        <pt x="322" y="106" on="0"/>
        <pt x="388" y="194" on="0"/>
        <pt x="388" y="273" on="1"/>
        <pt x="388" y="325" on="0"/>
        <pt x="346" y="381" on="0"/>
        <pt x="301" y="381" on="1"/>
        <pt x="278" y="381" on="0"/>
        <pt x="234" y="371" on="0"/>
        <pt x="213" y="360" on="1"/>
        <pt x="204" y="355" on="0"/>
        <pt x="199" y="348" on="0"/>
        <pt x="197" y="337" on="1"/>
      </contour>
    </TTGlyph>
    <TTGlyph name="backslash" xMin="55" yMin="0" xMax="428" yMax="663">
      <contour>
        <pt x="298" y="0" on="1"/>
        <pt x="55" y="663" on="1"/>
        <pt x="185" y="663" on="1"/>
        <pt x="428" y="0" on="1"/>
      </contour>
    </TTGlyph>
    <TTGlyph name="bar" xMin="18" yMin="-229" xMax="248" yMax="709">
      <contour>
        <pt x="129" y="709" on="1"/>
        <pt x="248" y="709" on="1"/>
        <pt x="137" y="-229" on="1"/>
        <pt x="18" y="-229" on="1"/>
      </contour>
    </TTGlyph>
    <TTGlyph name="braceleft" xMin="32" yMin="-239" xMax="406" yMax="673">
      <contour>
        <pt x="42" y="259" on="1"/>
        <pt x="78" y="270" on="0"/>
        <pt x="122" y="292" on="0"/>
        <pt x="147" y="319" on="0"/>
        <pt x="155" y="356" on="0"/>
        <pt x="155" y="382" on="1"/>
        <pt x="155" y="395" on="0"/>
        <pt x="153" y="430" on="0"/>
        <pt x="151" y="467" on="0"/>
        <pt x="149" y="504" on="0"/>
        <pt x="149" y="519" on="1"/>
        <pt x="149" y="596" on="0"/>
        <pt x="238" y="673" on="0"/>
        <pt x="307" y="673" on="1"/>
        <pt x="330" y="673" on="0"/>
        <pt x="383" y="664" on="0"/>
        <pt x="406" y="657" on="1"/>
        <pt x="397" y="580" on="1"/>
        <pt x="298" y="558" on="1"/>
        <pt x="284" y="555" on="0"/>
        <pt x="274" y="542" on="0"/>
        <pt x="274" y="527" on="1"/>
        <pt x="274" y="516" on="0"/>
        <pt x="276" y="479" on="0"/>
        <pt x="278" y="439" on="0"/>
        <pt x="280" y="402" on="0"/>
        <pt x="280" y="391" on="1"/>
        <pt x="280" y="353" on="0"/>
        <pt x="264" y="299" on="0"/>
        <pt x="230" y="259" on="0"/>
        <pt x="178" y="229" on="0"/>
        <pt x="141" y="216" on="1"/>
        <pt x="196" y="193" on="0"/>
        <pt x="246" y="140" on="0"/>
        <pt x="246" y="98" on="1"/>
        <pt x="246" y="74" on="0"/>
        <pt x="232" y="14" on="0"/>
        <pt x="216" y="-43" on="0"/>
        <pt x="202" y="-90" on="0"/>
        <pt x="202" y="-102" on="1"/>
        <pt x="202" y="-113" on="0"/>
        <pt x="213" y="-123" on="0"/>
        <pt x="226" y="-126" on="1"/>
        <pt x="312" y="-146" on="1"/>
        <pt x="302" y="-223" on="1"/>
        <pt x="280" y="-230" on="0"/>
        <pt x="223" y="-239" on="0"/>
        <pt x="201" y="-239" on="1"/>
        <pt x="141" y="-239" on="0"/>
        <pt x="74" y="-176" on="0"/>
        <pt x="74" y="-125" on="1"/>
        <pt x="74" y="-99" on="0"/>
        <pt x="88" y="-37" on="0"/>
        <pt x="106" y="24" on="0"/>
        <pt x="120" y="78" on="0"/>
        <pt x="120" y="96" on="1"/>
        <pt x="120" y="125" on="0"/>
        <pt x="81" y="158" on="0"/>
        <pt x="32" y="172" on="1"/>
      </contour>
    </TTGlyph>
    <TTGlyph name="braceleft.cap" xMin="50" yMin="-124" xMax="424" yMax="788">
      <component glyphName="braceleft" x="18" y="115" flags="0x204"/>
    </TTGlyph>
    <TTGlyph name="braceright" xMin="-42" yMin="-239" xMax="332" yMax="673">
      <contour>
        <pt x="322" y="175" on="1"/>
        <pt x="286" y="164" on="0"/>
        <pt x="242" y="142" on="0"/>
        <pt x="217" y="115" on="0"/>
        <pt x="209" y="78" on="0"/>
        <pt x="209" y="52" on="1"/>
        <pt x="209" y="39" on="0"/>
        <pt x="211" y="4" on="0"/>
        <pt x="213" y="-33" on="0"/>
        <pt x="215" y="-70" on="0"/>
        <pt x="215" y="-85" on="1"/>
        <pt x="215" y="-162" on="0"/>
        <pt x="126" y="-239" on="0"/>
        <pt x="57" y="-239" on="1"/>
        <pt x="34" y="-239" on="0"/>
        <pt x="-19" y="-230" on="0"/>
        <pt x="-42" y="-223" on="1"/>
        <pt x="-33" y="-146" on="1"/>
        <pt x="66" y="-124" on="1"/>
        <pt x="80" y="-121" on="0"/>
        <pt x="90" y="-108" on="0"/>
        <pt x="90" y="-93" on="1"/>
        <pt x="90" y="-82" on="0"/>
        <pt x="88" y="-45" on="0"/>
        <pt x="86" y="-5" on="0"/>
        <pt x="84" y="32" on="0"/>
        <pt x="84" y="43" on="1"/>
        <pt x="84" y="80" on="0"/>
        <pt x="100" y="135" on="0"/>
        <pt x="134" y="175" on="0"/>
        <pt x="186" y="205" on="0"/>
        <pt x="223" y="218" on="1"/>
        <pt x="168" y="241" on="0"/>
        <pt x="118" y="294" on="0"/>
        <pt x="118" y="336" on="1"/>
        <pt x="118" y="360" on="0"/>
        <pt x="132" y="419" on="0"/>
        <pt x="148" y="476" on="0"/>
        <pt x="162" y="524" on="0"/>
        <pt x="162" y="536" on="1"/>
        <pt x="162" y="547" on="0"/>
        <pt x="151" y="557" on="0"/>
        <pt x="138" y="560" on="1"/>
        <pt x="52" y="580" on="1"/>
        <pt x="62" y="657" on="1"/>
        <pt x="84" y="664" on="0"/>
        <pt x="141" y="673" on="0"/>
        <pt x="163" y="673" on="1"/>
        <pt x="223" y="673" on="0"/>
        <pt x="290" y="610" on="0"/>
        <pt x="290" y="559" on="1"/>
        <pt x="290" y="533" on="0"/>
        <pt x="276" y="471" on="0"/>
        <pt x="258" y="410" on="0"/>
        <pt x="244" y="356" on="0"/>
        <pt x="244" y="338" on="1"/>
        <pt x="244" y="309" on="0"/>
        <pt x="283" y="276" on="0"/>
        <pt x="332" y="262" on="1"/>
      </contour>
    </TTGlyph>
    <TTGlyph name="braceright.cap" xMin="-31" yMin="-124" xMax="343" yMax="788">
      <component glyphName="braceright" x="11" y="115" flags="0x204"/>
    </TTGlyph>
    <TTGlyph name="bracketleft" xMin="18" yMin="-229" xMax="373" yMax="663">
      <contour>
        <pt x="155" y="-113" on="1"/>
        <pt x="281" y="-113" on="1"/>
        <pt x="267" y="-229" on="1"/>
        <pt x="18" y="-229" on="1"/>
        <pt x="124" y="663" on="1"/>
        <pt x="373" y="663" on="1"/>
        <pt x="358" y="547" on="1"/>
        <pt x="233" y="547" on="1"/>
      </contour>
    </TTGlyph>
    <TTGlyph name="bracketleft.cap" xMin="31" yMin="-114" xMax="386" yMax="778">
      <component glyphName="bracketleft" x="13" y="115" flags="0x4"/>
    </TTGlyph>
    <TTGlyph name="bracketright" xMin="-35" yMin="-229" xMax="320" yMax="663">
      <contour>
        <pt x="183" y="547" on="1"/>
        <pt x="57" y="547" on="1"/>
        <pt x="71" y="663" on="1"/>
        <pt x="320" y="663" on="1"/>
        <pt x="214" y="-229" on="1"/>
        <pt x="-35" y="-229" on="1"/>
        <pt x="-20" y="-113" on="1"/>
        <pt x="105" y="-113" on="1"/>
      </contour>
    </TTGlyph>
    <TTGlyph name="bracketright.cap" xMin="-26" yMin="-114" xMax="329" yMax="778">
      <component glyphName="bracketright" x="9" y="115" flags="0x4"/>
    </TTGlyph>
    <TTGlyph name="breve" xMin="89" yMin="555" xMax="411" yMax="717">
      <contour>
        <pt x="237" y="555" on="1"/>
        <pt x="200" y="555" on="0"/>
        <pt x="145" y="578" on="0"/>
        <pt x="108" y="618" on="0"/>
        <pt x="89" y="672" on="0"/>
        <pt x="89" y="703" on="1"/>
        <pt x="169" y="717" on="1"/>
        <pt x="176" y="683" on="0"/>
        <pt x="211" y="647" on="0"/>
        <pt x="243" y="647" on="1"/>
        <pt x="276" y="647" on="0"/>
        <pt x="318" y="683" on="0"/>
        <pt x="334" y="717" on="1"/>
        <pt x="411" y="703" on="1"/>
        <pt x="394" y="638" on="0"/>
        <pt x="304" y="555" on="0"/>
      </contour>
    </TTGlyph>
    <TTGlyph name="breve.cap" xMin="112" yMin="732" xMax="434" yMax="894">
      <contour>
        <pt x="260" y="732" on="1"/>
        <pt x="223" y="732" on="0"/>
        <pt x="168" y="755" on="0"/>
        <pt x="131" y="795" on="0"/>
        <pt x="112" y="849" on="0"/>
        <pt x="112" y="880" on="1"/>
        <pt x="192" y="894" on="1"/>
        <pt x="199" y="860" on="0"/>
        <pt x="234" y="824" on="0"/>
        <pt x="266" y="824" on="1"/>
        <pt x="299" y="824" on="0"/>
        <pt x="341" y="860" on="0"/>
        <pt x="357" y="894" on="1"/>
        <pt x="434" y="880" on="1"/>
        <pt x="417" y="815" on="0"/>
        <pt x="327" y="732" on="0"/>
      </contour>
    </TTGlyph>
    <TTGlyph name="brokenbar" xMin="18" yMin="-229" xMax="248" yMax="709">
      <contour>
        <pt x="129" y="709" on="1"/>
        <pt x="248" y="709" on="1"/>
        <pt x="198" y="291" on="1"/>
        <pt x="79" y="291" on="1"/>
      </contour>
      <contour>
        <pt x="67" y="189" on="1"/>
        <pt x="186" y="189" on="1"/>
        <pt x="137" y="-229" on="1"/>
        <pt x="18" y="-229" on="1"/>
      </contour>
    </TTGlyph>
    <TTGlyph name="bullet" xMin="49" yMin="172" xMax="296" yMax="393">
      <contour>
        <pt x="274" y="172" on="1"/>
        <pt x="49" y="172" on="1"/>
        <pt x="75" y="393" on="1"/>
        <pt x="266" y="393" on="1"/>
        <pt x="281" y="393" on="0"/>
        <pt x="296" y="383" on="0"/>
        <pt x="296" y="369" on="1"/>
        <pt x="296" y="360" on="0"/>
        <pt x="293" y="335" on="1"/>
      </contour>
    </TTGlyph>
    <TTGlyph name="bullet.cap" xMin="60" yMin="220" xMax="307" yMax="441">
      <component glyphName="bullet" x="11" y="48" flags="0x204"/>
    </TTGlyph>
    <TTGlyph name="c" xMin="27" yMin="-8" xMax="479" yMax="496">
      <contour>
        <pt x="391" y="293" on="1"/>
        <pt x="353" y="331" on="1"/>
        <pt x="327" y="357" on="0"/>
        <pt x="292" y="381" on="0"/>
        <pt x="267" y="381" on="1"/>
        <pt x="242" y="381" on="0"/>
        <pt x="201" y="356" on="0"/>
        <pt x="171" y="314" on="0"/>
        <pt x="155" y="257" on="0"/>
        <pt x="155" y="225" on="1"/>
        <pt x="155" y="170" on="0"/>
        <pt x="209" y="106" on="0"/>
        <pt x="265" y="106" on="1"/>
        <pt x="287" y="106" on="0"/>
        <pt x="343" y="119" on="0"/>
        <pt x="368" y="128" on="1"/>
        <pt x="429" y="150" on="1"/>
        <pt x="466" y="81" on="1"/>
        <pt x="445" y="62" on="0"/>
        <pt x="392" y="29" on="0"/>
        <pt x="334" y="5" on="0"/>
        <pt x="275" y="-8" on="0"/>
        <pt x="248" y="-8" on="1"/>
        <pt x="198" y="-8" on="0"/>
        <pt x="116" y="25" on="0"/>
        <pt x="58" y="84" on="0"/>
        <pt x="27" y="167" on="0"/>
        <pt x="27" y="217" on="1"/>
        <pt x="27" y="274" on="0"/>
        <pt x="65" y="375" on="0"/>
        <pt x="134" y="452" on="0"/>
        <pt x="227" y="496" on="0"/>
        <pt x="283" y="496" on="1"/>
        <pt x="319" y="496" on="0"/>
        <pt x="382" y="473" on="0"/>
        <pt x="433" y="431" on="0"/>
        <pt x="470" y="370" on="0"/>
        <pt x="479" y="333" on="1"/>
      </contour>
    </TTGlyph>
    <TTGlyph name="cacute" xMin="27" yMin="-8" xMax="479" yMax="747">
      <component glyphName="c" x="0" y="0" flags="0x204"/>
      <component glyphName="acute" x="84" y="0" flags="0x4"/>
    </TTGlyph>
    <TTGlyph name="caron" xMin="42" yMin="553" xMax="387" yMax="743">
      <contour>
        <pt x="208" y="648" on="1"/>
        <pt x="211" y="648" on="1"/>
        <pt x="344" y="743" on="1"/>
        <pt x="387" y="693" on="1"/>
        <pt x="250" y="566" on="1"/>
        <pt x="242" y="558" on="0"/>
        <pt x="230" y="553" on="0"/>
        <pt x="218" y="553" on="1"/>
        <pt x="178" y="553" on="1"/>
        <pt x="167" y="553" on="0"/>
        <pt x="158" y="557" on="0"/>
        <pt x="150" y="566" on="1"/>
        <pt x="42" y="693" on="1"/>
        <pt x="98" y="743" on="1"/>
      </contour>
    </TTGlyph>
    <TTGlyph name="caron.cap" xMin="106" yMin="730" xMax="451" yMax="920">
      <contour>
        <pt x="272" y="825" on="1"/>
        <pt x="275" y="825" on="1"/>
        <pt x="408" y="920" on="1"/>
        <pt x="451" y="870" on="1"/>
        <pt x="314" y="743" on="1"/>
        <pt x="306" y="735" on="0"/>
        <pt x="294" y="730" on="0"/>
        <pt x="282" y="730" on="1"/>
        <pt x="242" y="730" on="1"/>
        <pt x="231" y="730" on="0"/>
        <pt x="222" y="734" on="0"/>
        <pt x="214" y="743" on="1"/>
        <pt x="106" y="870" on="1"/>
        <pt x="162" y="920" on="1"/>
      </contour>
    </TTGlyph>
    <TTGlyph name="ccaron" xMin="27" yMin="-8" xMax="483" yMax="743">
      <component glyphName="c" x="0" y="0" flags="0x204"/>
      <component glyphName="caron" x="96" y="0" flags="0x4"/>
    </TTGlyph>
    <TTGlyph name="ccedilla" xMin="27" yMin="-243" xMax="479" yMax="496">
      <contour>
        <pt x="391" y="293" on="1"/>
        <pt x="353" y="331" on="1"/>
        <pt x="327" y="357" on="0"/>
        <pt x="292" y="381" on="0"/>
        <pt x="267" y="381" on="1"/>
        <pt x="242" y="381" on="0"/>
        <pt x="201" y="356" on="0"/>
        <pt x="171" y="314" on="0"/>
        <pt x="155" y="257" on="0"/>
        <pt x="155" y="225" on="1"/>
        <pt x="155" y="170" on="0"/>
        <pt x="209" y="106" on="0"/>
        <pt x="265" y="106" on="1"/>
        <pt x="287" y="106" on="0"/>
        <pt x="343" y="119" on="0"/>
        <pt x="368" y="128" on="1"/>
        <pt x="429" y="150" on="1"/>
        <pt x="466" y="81" on="1"/>
        <pt x="429" y="46" on="0"/>
        <pt x="325" y="-1" on="0"/>
        <pt x="274" y="-6" on="1"/>
        <pt x="256" y="-24" on="0"/>
        <pt x="256" y="-40" on="1"/>
        <pt x="256" y="-48" on="0"/>
        <pt x="285" y="-60" on="0"/>
        <pt x="321" y="-76" on="0"/>
        <pt x="350" y="-103" on="0"/>
        <pt x="350" y="-127" on="1"/>
        <pt x="350" y="-157" on="0"/>
        <pt x="314" y="-200" on="0"/>
        <pt x="258" y="-228" on="0"/>
        <pt x="189" y="-242" on="0"/>
        <pt x="156" y="-243" on="1"/>
        <pt x="151" y="-173" on="1"/>
        <pt x="207" y="-163" on="1"/>
        <pt x="230" y="-159" on="0"/>
        <pt x="244" y="-148" on="0"/>
        <pt x="244" y="-140" on="1"/>
        <pt x="244" y="-132" on="0"/>
        <pt x="218" y="-121" on="0"/>
        <pt x="186" y="-107" on="0"/>
        <pt x="160" y="-88" on="0"/>
        <pt x="160" y="-71" on="1"/>
        <pt x="160" y="-55" on="0"/>
        <pt x="184" y="-20" on="0"/>
        <pt x="202" y="-4" on="1"/>
        <pt x="162" y="3" on="0"/>
        <pt x="97" y="41" on="0"/>
        <pt x="52" y="98" on="0"/>
        <pt x="27" y="173" on="0"/>
        <pt x="27" y="217" on="1"/>
        <pt x="27" y="274" on="0"/>
        <pt x="65" y="375" on="0"/>
        <pt x="134" y="452" on="0"/>
        <pt x="227" y="496" on="0"/>
        <pt x="283" y="496" on="1"/>
        <pt x="319" y="496" on="0"/>
        <pt x="382" y="473" on="0"/>
        <pt x="433" y="431" on="0"/>
        <pt x="470" y="370" on="0"/>
        <pt x="479" y="333" on="1"/>
      </contour>
    </TTGlyph>
    <TTGlyph name="ccircumflex" xMin="27" yMin="-8" xMax="479" yMax="732">
      <component glyphName="c" x="0" y="0" flags="0x204"/>
      <component glyphName="circumflex" x="68" y="0" flags="0x4"/>
    </TTGlyph>
    <TTGlyph name="cdotaccent" xMin="27" yMin="-8" xMax="479" yMax="680">
      <component glyphName="c" x="0" y="0" flags="0x204"/>
      <component glyphName="dotaccent" x="77" y="0" flags="0x4"/>
    </TTGlyph>
    <TTGlyph name="cedilla" xMin="94" yMin="-243" xMax="293" yMax="17">
      <contour>
        <pt x="227" y="5" on="1"/>
        <pt x="216" y="-6" on="0"/>
        <pt x="199" y="-30" on="0"/>
        <pt x="199" y="-40" on="1"/>
        <pt x="199" y="-48" on="0"/>
        <pt x="228" y="-60" on="0"/>
        <pt x="264" y="-76" on="0"/>
        <pt x="293" y="-103" on="0"/>
        <pt x="293" y="-127" on="1"/>
        <pt x="293" y="-157" on="0"/>
        <pt x="257" y="-200" on="0"/>
        <pt x="201" y="-228" on="0"/>
        <pt x="132" y="-242" on="0"/>
        <pt x="99" y="-243" on="1"/>
        <pt x="94" y="-173" on="1"/>
        <pt x="150" y="-163" on="1"/>
        <pt x="173" y="-159" on="0"/>
        <pt x="187" y="-148" on="0"/>
        <pt x="187" y="-140" on="1"/>
        <pt x="187" y="-132" on="0"/>
        <pt x="161" y="-121" on="0"/>
        <pt x="129" y="-107" on="0"/>
        <pt x="103" y="-88" on="0"/>
        <pt x="103" y="-71" on="1"/>
        <pt x="103" y="-50" on="0"/>
        <pt x="144" y="-3" on="0"/>
        <pt x="170" y="17" on="1"/>
      </contour>
    </TTGlyph>
    <TTGlyph name="cent" xMin="94" yMin="-129" xMax="546" yMax="623">
      <contour>
        <pt x="461" y="293" on="1"/>
        <pt x="422" y="334" on="1"/>
        <pt x="413" y="344" on="0"/>
        <pt x="401" y="356" on="0"/>
        <pt x="392" y="363" on="1"/>
        <pt x="361" y="107" on="1"/>
        <pt x="381" y="110" on="0"/>
        <pt x="416" y="121" on="0"/>
        <pt x="435" y="128" on="1"/>
        <pt x="496" y="150" on="1"/>
        <pt x="533" y="81" on="1"/>
        <pt x="497" y="47" on="0"/>
        <pt x="395" y="0" on="0"/>
        <pt x="348" y="-5" on="1"/>
        <pt x="318" y="-129" on="1"/>
        <pt x="246" y="-129" on="1"/>
        <pt x="261" y="-2" on="1"/>
        <pt x="183" y="14" on="0"/>
        <pt x="94" y="130" on="0"/>
        <pt x="94" y="217" on="1"/>
        <pt x="94" y="270" on="0"/>
        <pt x="128" y="366" on="0"/>
        <pt x="188" y="440" on="0"/>
        <pt x="271" y="488" on="0"/>
        <pt x="321" y="494" on="1"/>
        <pt x="351" y="623" on="1"/>
        <pt x="423" y="623" on="1"/>
        <pt x="406" y="488" on="1"/>
        <pt x="455" y="474" on="0"/>
        <pt x="531" y="394" on="0"/>
        <pt x="546" y="333" on="1"/>
      </contour>
      <contour>
        <pt x="220" y="225" on="1"/>
        <pt x="220" y="186" on="0"/>
        <pt x="249" y="130" on="0"/>
        <pt x="276" y="116" on="1"/>
        <pt x="308" y="379" on="1"/>
        <pt x="266" y="366" on="0"/>
        <pt x="220" y="280" on="0"/>
      </contour>
    </TTGlyph>
    <TTGlyph name="cent.lprop" xMin="94" yMin="-129" xMax="546" yMax="623">
      <component glyphName="cent" x="0" y="0" flags="0x204"/>
    </TTGlyph>
    <TTGlyph name="cent.oprop" xMin="50" yMin="-116" xMax="461" yMax="550">
      <component glyphName="cent.otab" x="-58" y="0" flags="0x4"/>
    </TTGlyph>
    <TTGlyph name="cent.otab" xMin="108" yMin="-116" xMax="519" yMax="550">
      <contour>
        <pt x="445" y="262" on="1"/>
        <pt x="414" y="295" on="1"/>
        <pt x="380" y="331" on="1"/>
        <pt x="353" y="92" on="1"/>
        <pt x="368" y="94" on="0"/>
        <pt x="408" y="107" on="0"/>
        <pt x="421" y="112" on="1"/>
        <pt x="474" y="132" on="1"/>
        <pt x="506" y="69" on="1"/>
        <pt x="475" y="40" on="0"/>
        <pt x="385" y="-1" on="0"/>
        <pt x="341" y="-7" on="1"/>
        <pt x="313" y="-116" on="1"/>
        <pt x="253" y="-116" on="1"/>
        <pt x="266" y="-5" on="1"/>
        <pt x="193" y="6" on="0"/>
        <pt x="108" y="112" on="0"/>
        <pt x="108" y="193" on="1"/>
        <pt x="108" y="241" on="0"/>
        <pt x="139" y="329" on="0"/>
        <pt x="195" y="397" on="0"/>
        <pt x="273" y="440" on="0"/>
        <pt x="319" y="445" on="1"/>
        <pt x="347" y="550" on="1"/>
        <pt x="407" y="550" on="1"/>
        <pt x="393" y="438" on="1"/>
        <pt x="439" y="424" on="0"/>
        <pt x="506" y="352" on="0"/>
        <pt x="519" y="299" on="1"/>
      </contour>
      <contour>
        <pt x="222" y="200" on="1"/>
        <pt x="222" y="123" on="0"/>
        <pt x="278" y="98" on="1"/>
        <pt x="307" y="342" on="1"/>
        <pt x="269" y="333" on="0"/>
        <pt x="222" y="254" on="0"/>
      </contour>
    </TTGlyph>
    <TTGlyph name="circumflex" xMin="58" yMin="542" xMax="403" yMax="732">
      <contour>
        <pt x="237" y="637" on="1"/>
        <pt x="234" y="637" on="1"/>
        <pt x="101" y="542" on="1"/>
        <pt x="58" y="592" on="1"/>
        <pt x="195" y="719" on="1"/>
        <pt x="203" y="727" on="0"/>
        <pt x="215" y="732" on="0"/>
        <pt x="227" y="732" on="1"/>
        <pt x="267" y="732" on="1"/>
        <pt x="278" y="732" on="0"/>
        <pt x="287" y="728" on="0"/>
        <pt x="295" y="719" on="1"/>
        <pt x="403" y="592" on="1"/>
        <pt x="347" y="542" on="1"/>
      </contour>
    </TTGlyph>
    <TTGlyph name="circumflex.cap" xMin="87" yMin="719" xMax="432" yMax="909">
      <contour>
        <pt x="266" y="814" on="1"/>
        <pt x="263" y="814" on="1"/>
        <pt x="130" y="719" on="1"/>
        <pt x="87" y="769" on="1"/>
        <pt x="224" y="896" on="1"/>
        <pt x="232" y="904" on="0"/>
        <pt x="244" y="909" on="0"/>
        <pt x="256" y="909" on="1"/>
        <pt x="296" y="909" on="1"/>
        <pt x="307" y="909" on="0"/>
        <pt x="316" y="905" on="0"/>
        <pt x="324" y="896" on="1"/>
        <pt x="432" y="769" on="1"/>
        <pt x="376" y="719" on="1"/>
      </contour>
    </TTGlyph>
    <TTGlyph name="colon" xMin="19" yMin="0" xMax="205" yMax="446">
      <contour>
        <pt x="154" y="0" on="1"/>
        <pt x="19" y="0" on="1"/>
        <pt x="35" y="137" on="1"/>
        <pt x="144" y="137" on="1"/>
        <pt x="156" y="137" on="0"/>
        <pt x="168" y="130" on="0"/>
        <pt x="168" y="119" on="1"/>
        <pt x="168" y="117" on="0"/>
        <pt x="166" y="99" on="0"/>
        <pt x="165" y="92" on="1"/>
      </contour>
      <contour>
        <pt x="191" y="309" on="1"/>
        <pt x="56" y="309" on="1"/>
        <pt x="72" y="446" on="1"/>
        <pt x="181" y="446" on="1"/>
        <pt x="193" y="446" on="0"/>
        <pt x="205" y="439" on="0"/>
        <pt x="205" y="428" on="1"/>
        <pt x="205" y="426" on="0"/>
        <pt x="203" y="408" on="0"/>
        <pt x="202" y="401" on="1"/>
      </contour>
    </TTGlyph>
    <TTGlyph name="comma" xMin="-22" yMin="-162" xMax="168" yMax="137">
      <contour>
        <pt x="-22" y="-127" on="1"/>
        <pt x="44" y="-30" on="1"/>
        <pt x="57" y="-11" on="0"/>
        <pt x="57" y="-5" on="1"/>
        <pt x="57" y="0" on="0"/>
        <pt x="49" y="6" on="1"/>
        <pt x="38" y="15" on="1"/>
        <pt x="24" y="26" on="0"/>
        <pt x="24" y="39" on="1"/>
        <pt x="24" y="43" on="0"/>
        <pt x="26" y="64" on="0"/>
        <pt x="28" y="76" on="1"/>
        <pt x="35" y="137" on="1"/>
        <pt x="144" y="137" on="1"/>
        <pt x="168" y="137" on="0"/>
        <pt x="168" y="119" on="1"/>
        <pt x="168" y="117" on="0"/>
        <pt x="167" y="106" on="0"/>
        <pt x="166" y="100" on="1"/>
        <pt x="159" y="41" on="1"/>
        <pt x="156" y="14" on="0"/>
        <pt x="144" y="-29" on="0"/>
        <pt x="114" y="-74" on="0"/>
        <pt x="62" y="-126" on="0"/>
        <pt x="19" y="-162" on="1"/>
      </contour>
    </TTGlyph>
    <TTGlyph name="commaaccent" xMin="83" yMin="-294" xMax="232" yMax="-58">
      <contour>
        <pt x="198" y="-58" on="1"/>
        <pt x="217" y="-58" on="0"/>
        <pt x="232" y="-76" on="0"/>
        <pt x="232" y="-99" on="1"/>
        <pt x="232" y="-119" on="0"/>
        <pt x="216" y="-167" on="0"/>
        <pt x="193" y="-204" on="1"/>
        <pt x="140" y="-294" on="1"/>
        <pt x="83" y="-282" on="1"/>
        <pt x="128" y="-58" on="1"/>
      </contour>
    </TTGlyph>
    <TTGlyph name="copyright" xMin="53" yMin="-10" xMax="712" yMax="673">
      <contour>
        <pt x="496" y="240" on="1"/>
        <pt x="468" y="217" on="0"/>
        <pt x="402" y="186" on="0"/>
        <pt x="367" y="186" on="1"/>
        <pt x="338" y="186" on="0"/>
        <pt x="293" y="206" on="0"/>
        <pt x="260" y="242" on="0"/>
        <pt x="243" y="291" on="0"/>
        <pt x="243" y="319" on="1"/>
        <pt x="243" y="350" on="0"/>
        <pt x="265" y="409" on="0"/>
        <pt x="304" y="454" on="0"/>
        <pt x="358" y="481" on="0"/>
        <pt x="391" y="481" on="1"/>
        <pt x="431" y="481" on="0"/>
        <pt x="494" y="433" on="0"/>
        <pt x="509" y="387" on="1"/>
        <pt x="457" y="358" on="1"/>
        <pt x="431" y="387" on="1"/>
        <pt x="422" y="397" on="0"/>
        <pt x="402" y="408" on="0"/>
        <pt x="388" y="408" on="1"/>
        <pt x="359" y="408" on="0"/>
        <pt x="321" y="358" on="0"/>
        <pt x="321" y="323" on="1"/>
        <pt x="321" y="294" on="0"/>
        <pt x="349" y="260" on="0"/>
        <pt x="378" y="260" on="1"/>
        <pt x="399" y="260" on="0"/>
        <pt x="432" y="271" on="1"/>
        <pt x="473" y="284" on="1"/>
      </contour>
      <contour>
        <pt x="150" y="303" on="1"/>
        <pt x="150" y="255" on="0"/>
        <pt x="178" y="173" on="0"/>
        <pt x="231" y="115" on="0"/>
        <pt x="308" y="82" on="0"/>
        <pt x="356" y="82" on="1"/>
        <pt x="413" y="82" on="0"/>
        <pt x="508" y="123" on="0"/>
        <pt x="577" y="197" on="0"/>
        <pt x="615" y="299" on="0"/>
        <pt x="615" y="359" on="1"/>
        <pt x="615" y="407" on="0"/>
        <pt x="587" y="489" on="0"/>
        <pt x="534" y="548" on="0"/>
        <pt x="457" y="581" on="0"/>
        <pt x="409" y="581" on="1"/>
        <pt x="352" y="581" on="0"/>
        <pt x="257" y="539" on="0"/>
        <pt x="188" y="465" on="0"/>
        <pt x="150" y="363" on="0"/>
      </contour>
      <contour>
        <pt x="712" y="365" on="1"/>
        <pt x="712" y="293" on="0"/>
        <pt x="658" y="158" on="0"/>
        <pt x="562" y="53" on="0"/>
        <pt x="430" y="-10" on="0"/>
        <pt x="351" y="-10" on="1"/>
        <pt x="285" y="-10" on="0"/>
        <pt x="175" y="39" on="0"/>
        <pt x="97" y="123" on="0"/>
        <pt x="53" y="235" on="0"/>
        <pt x="53" y="297" on="1"/>
        <pt x="53" y="369" on="0"/>
        <pt x="107" y="504" on="0"/>
        <pt x="203" y="609" on="0"/>
        <pt x="336" y="673" on="0"/>
        <pt x="414" y="673" on="1"/>
        <pt x="480" y="673" on="0"/>
        <pt x="590" y="623" on="0"/>
        <pt x="668" y="539" on="0"/>
        <pt x="712" y="427" on="0"/>
      </contour>
    </TTGlyph>
    <TTGlyph name="currency" xMin="49" yMin="75" xMax="597" yMax="586">
      <contour>
        <pt x="523" y="352" on="1"/>
        <pt x="523" y="286" on="0"/>
        <pt x="492" y="233" on="1"/>
        <pt x="557" y="155" on="1"/>
        <pt x="466" y="75" on="1"/>
        <pt x="404" y="149" on="1"/>
        <pt x="383" y="138" on="0"/>
        <pt x="336" y="124" on="0"/>
        <pt x="310" y="124" on="1"/>
        <pt x="281" y="124" on="0"/>
        <pt x="229" y="141" on="0"/>
        <pt x="207" y="155" on="1"/>
        <pt x="122" y="75" on="1"/>
        <pt x="49" y="156" on="1"/>
        <pt x="137" y="237" on="1"/>
        <pt x="131" y="254" on="0"/>
        <pt x="123" y="290" on="0"/>
        <pt x="123" y="310" on="1"/>
        <pt x="123" y="376" on="0"/>
        <pt x="154" y="429" on="1"/>
        <pt x="89" y="507" on="1"/>
        <pt x="181" y="586" on="1"/>
        <pt x="242" y="513" on="1"/>
        <pt x="263" y="524" on="0"/>
        <pt x="311" y="537" on="0"/>
        <pt x="336" y="537" on="1"/>
        <pt x="365" y="537" on="0"/>
        <pt x="418" y="521" on="0"/>
        <pt x="440" y="507" on="1"/>
        <pt x="525" y="586" on="1"/>
        <pt x="597" y="506" on="1"/>
        <pt x="509" y="424" on="1"/>
        <pt x="523" y="390" on="0"/>
      </contour>
      <contour>
        <pt x="415" y="347" on="1"/>
        <pt x="415" y="364" on="0"/>
        <pt x="405" y="396" on="0"/>
        <pt x="385" y="421" on="0"/>
        <pt x="354" y="436" on="0"/>
        <pt x="332" y="436" on="1"/>
        <pt x="287" y="436" on="0"/>
        <pt x="232" y="370" on="0"/>
        <pt x="232" y="315" on="1"/>
        <pt x="232" y="298" on="0"/>
        <pt x="241" y="265" on="0"/>
        <pt x="261" y="240" on="0"/>
        <pt x="292" y="225" on="0"/>
        <pt x="314" y="225" on="1"/>
        <pt x="359" y="225" on="0"/>
        <pt x="415" y="291" on="0"/>
      </contour>
    </TTGlyph>
    <TTGlyph name="d" xMin="27" yMin="-8" xMax="537" yMax="709">
      <contour>
        <pt x="263" y="496" on="1"/>
        <pt x="290" y="496" on="0"/>
        <pt x="350" y="475" on="0"/>
        <pt x="379" y="455" on="1"/>
        <pt x="410" y="709" on="1"/>
        <pt x="537" y="709" on="1"/>
        <pt x="465" y="102" on="1"/>
        <pt x="536" y="86" on="1"/>
        <pt x="528" y="21" on="1"/>
        <pt x="508" y="11" on="0"/>
        <pt x="457" y="-2" on="0"/>
        <pt x="437" y="-2" on="1"/>
        <pt x="408" y="-2" on="0"/>
        <pt x="361" y="25" on="0"/>
        <pt x="350" y="47" on="1"/>
        <pt x="328" y="33" on="1"/>
        <pt x="301" y="16" on="0"/>
        <pt x="234" y="-8" on="0"/>
        <pt x="204" y="-8" on="1"/>
        <pt x="167" y="-8" on="0"/>
        <pt x="102" y="25" on="0"/>
        <pt x="54" y="83" on="0"/>
        <pt x="27" y="164" on="0"/>
        <pt x="27" y="212" on="1"/>
        <pt x="27" y="272" on="0"/>
        <pt x="68" y="376" on="0"/>
        <pt x="134" y="453" on="0"/>
        <pt x="219" y="496" on="0"/>
      </contour>
      <contour>
        <pt x="367" y="346" on="1"/>
        <pt x="368" y="355" on="0"/>
        <pt x="365" y="362" on="0"/>
        <pt x="358" y="366" on="1"/>
        <pt x="344" y="374" on="0"/>
        <pt x="301" y="381" on="0"/>
        <pt x="280" y="381" on="1"/>
        <pt x="222" y="381" on="0"/>
        <pt x="155" y="290" on="0"/>
        <pt x="155" y="213" on="1"/>
        <pt x="155" y="162" on="0"/>
        <pt x="198" y="106" on="0"/>
        <pt x="241" y="106" on="1"/>
        <pt x="261" y="106" on="0"/>
        <pt x="314" y="120" on="0"/>
        <pt x="330" y="129" on="1"/>
        <pt x="338" y="134" on="0"/>
        <pt x="341" y="139" on="0"/>
        <pt x="343" y="150" on="1"/>
      </contour>
    </TTGlyph>
    <TTGlyph name="dagger" xMin="61" yMin="-229" xMax="548" yMax="663">
      <contour>
        <pt x="322" y="22" on="1"/>
        <pt x="321" y="11" on="0"/>
        <pt x="316" y="-23" on="0"/>
        <pt x="305" y="-80" on="0"/>
        <pt x="287" y="-166" on="0"/>
        <pt x="272" y="-229" on="1"/>
        <pt x="195" y="-229" on="1"/>
        <pt x="195" y="-171" on="1"/>
        <pt x="195" y="-133" on="0"/>
        <pt x="197" y="-28" on="0"/>
        <pt x="205" y="33" on="1"/>
        <pt x="224" y="192" on="1"/>
        <pt x="227" y="217" on="0"/>
        <pt x="235" y="267" on="0"/>
        <pt x="240" y="291" on="1"/>
        <pt x="248" y="330" on="1"/>
        <pt x="178" y="321" on="1"/>
        <pt x="156" y="318" on="0"/>
        <pt x="116" y="316" on="0"/>
        <pt x="98" y="316" on="1"/>
        <pt x="61" y="316" on="1"/>
        <pt x="75" y="432" on="1"/>
        <pt x="112" y="432" on="1"/>
        <pt x="142" y="432" on="0"/>
        <pt x="172" y="429" on="0"/>
        <pt x="192" y="427" on="1"/>
        <pt x="261" y="419" on="1"/>
        <pt x="261" y="451" on="0"/>
        <pt x="263" y="527" on="0"/>
        <pt x="267" y="558" on="1"/>
        <pt x="279" y="663" on="1"/>
        <pt x="397" y="663" on="1"/>
        <pt x="385" y="564" on="1"/>
        <pt x="381" y="532" on="0"/>
        <pt x="368" y="452" on="0"/>
        <pt x="359" y="419" on="1"/>
        <pt x="435" y="428" on="1"/>
        <pt x="456" y="430" on="0"/>
        <pt x="494" y="432" on="0"/>
        <pt x="510" y="432" on="1"/>
        <pt x="548" y="432" on="1"/>
        <pt x="534" y="316" on="1"/>
        <pt x="494" y="316" on="1"/>
        <pt x="476" y="316" on="0"/>
        <pt x="439" y="318" on="0"/>
        <pt x="416" y="321" on="1"/>
        <pt x="347" y="330" on="1"/>
        <pt x="347" y="315" on="0"/>
        <pt x="346" y="277" on="0"/>
        <pt x="344" y="234" on="0"/>
        <pt x="341" y="190" on="0"/>
        <pt x="339" y="170" on="1"/>
      </contour>
    </TTGlyph>
    <TTGlyph name="daggerdbl" xMin="24" yMin="-229" xMax="548" yMax="663">
      <contour>
        <pt x="393" y="108" on="1"/>
        <pt x="415" y="111" on="0"/>
        <pt x="455" y="113" on="0"/>
        <pt x="473" y="113" on="1"/>
        <pt x="510" y="113" on="1"/>
        <pt x="496" y="-3" on="1"/>
        <pt x="459" y="-3" on="1"/>
        <pt x="429" y="-3" on="0"/>
        <pt x="399" y="0" on="0"/>
        <pt x="379" y="2" on="1"/>
        <pt x="310" y="10" on="1"/>
        <pt x="310" y="-22" on="0"/>
        <pt x="308" y="-98" on="0"/>
        <pt x="304" y="-129" on="1"/>
        <pt x="293" y="-229" on="1"/>
        <pt x="175" y="-229" on="1"/>
        <pt x="186" y="-135" on="1"/>
        <pt x="190" y="-103" on="0"/>
        <pt x="203" y="-23" on="0"/>
        <pt x="212" y="10" on="1"/>
        <pt x="136" y="1" on="1"/>
        <pt x="115" y="-1" on="0"/>
        <pt x="77" y="-3" on="0"/>
        <pt x="61" y="-3" on="1"/>
        <pt x="24" y="-3" on="1"/>
        <pt x="38" y="113" on="1"/>
        <pt x="77" y="113" on="1"/>
        <pt x="95" y="113" on="0"/>
        <pt x="132" y="111" on="0"/>
        <pt x="155" y="108" on="1"/>
        <pt x="224" y="99" on="1"/>
        <pt x="222" y="109" on="0"/>
        <pt x="222" y="155" on="1"/>
        <pt x="222" y="174" on="0"/>
        <pt x="226" y="220" on="0"/>
        <pt x="233" y="266" on="0"/>
        <pt x="243" y="311" on="0"/>
        <pt x="250" y="330" on="1"/>
        <pt x="178" y="321" on="1"/>
        <pt x="156" y="318" on="0"/>
        <pt x="116" y="316" on="0"/>
        <pt x="98" y="316" on="1"/>
        <pt x="61" y="316" on="1"/>
        <pt x="75" y="432" on="1"/>
        <pt x="112" y="432" on="1"/>
        <pt x="142" y="432" on="0"/>
        <pt x="172" y="429" on="0"/>
        <pt x="192" y="427" on="1"/>
        <pt x="261" y="419" on="1"/>
        <pt x="261" y="451" on="0"/>
        <pt x="263" y="527" on="0"/>
        <pt x="267" y="558" on="1"/>
        <pt x="279" y="663" on="1"/>
        <pt x="397" y="663" on="1"/>
        <pt x="385" y="564" on="1"/>
        <pt x="381" y="532" on="0"/>
        <pt x="368" y="452" on="0"/>
        <pt x="359" y="419" on="1"/>
        <pt x="435" y="428" on="1"/>
        <pt x="456" y="430" on="0"/>
        <pt x="494" y="432" on="0"/>
        <pt x="510" y="432" on="1"/>
        <pt x="548" y="432" on="1"/>
        <pt x="534" y="316" on="1"/>
        <pt x="494" y="316" on="1"/>
        <pt x="476" y="316" on="0"/>
        <pt x="439" y="318" on="0"/>
        <pt x="416" y="321" on="1"/>
        <pt x="347" y="330" on="1"/>
        <pt x="348" y="325" on="0"/>
        <pt x="349" y="311" on="0"/>
        <pt x="349" y="302" on="1"/>
        <pt x="349" y="251" on="0"/>
        <pt x="335" y="147" on="0"/>
        <pt x="321" y="99" on="1"/>
      </contour>
    </TTGlyph>
    <TTGlyph name="dcaron" xMin="27" yMin="-8" xMax="719" yMax="709">
      <component glyphName="d" x="0" y="0" flags="0x4"/>
      <component glyphName="commaaccent" x="487" y="767" flags="0x4"/>
    </TTGlyph>
    <TTGlyph name="dcroat" xMin="27" yMin="-8" xMax="599" yMax="709">
      <contour>
        <pt x="263" y="496" on="1"/>
        <pt x="290" y="496" on="0"/>
        <pt x="350" y="475" on="0"/>
        <pt x="379" y="455" on="1"/>
        <pt x="391" y="556" on="1"/>
        <pt x="246" y="556" on="1"/>
        <pt x="256" y="637" on="1"/>
        <pt x="401" y="637" on="1"/>
        <pt x="410" y="709" on="1"/>
        <pt x="537" y="709" on="1"/>
        <pt x="528" y="637" on="1"/>
        <pt x="599" y="624" on="1"/>
        <pt x="590" y="556" on="1"/>
        <pt x="519" y="556" on="1"/>
        <pt x="465" y="102" on="1"/>
        <pt x="536" y="86" on="1"/>
        <pt x="528" y="21" on="1"/>
        <pt x="508" y="11" on="0"/>
        <pt x="457" y="-2" on="0"/>
        <pt x="437" y="-2" on="1"/>
        <pt x="408" y="-2" on="0"/>
        <pt x="361" y="25" on="0"/>
        <pt x="350" y="47" on="1"/>
        <pt x="328" y="33" on="1"/>
        <pt x="301" y="16" on="0"/>
        <pt x="234" y="-8" on="0"/>
        <pt x="204" y="-8" on="1"/>
        <pt x="167" y="-8" on="0"/>
        <pt x="102" y="25" on="0"/>
        <pt x="54" y="83" on="0"/>
        <pt x="27" y="164" on="0"/>
        <pt x="27" y="212" on="1"/>
        <pt x="27" y="272" on="0"/>
        <pt x="68" y="376" on="0"/>
        <pt x="134" y="453" on="0"/>
        <pt x="219" y="496" on="0"/>
      </contour>
      <contour>
        <pt x="367" y="346" on="1"/>
        <pt x="368" y="355" on="0"/>
        <pt x="365" y="362" on="0"/>
        <pt x="358" y="366" on="1"/>
        <pt x="344" y="374" on="0"/>
        <pt x="301" y="381" on="0"/>
        <pt x="280" y="381" on="1"/>
        <pt x="222" y="381" on="0"/>
        <pt x="155" y="290" on="0"/>
        <pt x="155" y="213" on="1"/>
        <pt x="155" y="162" on="0"/>
        <pt x="198" y="106" on="0"/>
        <pt x="241" y="106" on="1"/>
        <pt x="261" y="106" on="0"/>
        <pt x="314" y="120" on="0"/>
        <pt x="330" y="129" on="1"/>
        <pt x="338" y="134" on="0"/>
        <pt x="341" y="139" on="0"/>
        <pt x="343" y="150" on="1"/>
      </contour>
    </TTGlyph>
    <TTGlyph name="degree" xMin="71" yMin="324" xMax="413" yMax="673">
      <contour>
        <pt x="413" y="509" on="1"/>
        <pt x="413" y="469" on="0"/>
        <pt x="384" y="401" on="0"/>
        <pt x="334" y="352" on="0"/>
        <pt x="268" y="324" on="0"/>
        <pt x="231" y="324" on="1"/>
        <pt x="196" y="324" on="0"/>
        <pt x="138" y="349" on="0"/>
        <pt x="95" y="393" on="0"/>
        <pt x="71" y="453" on="0"/>
        <pt x="71" y="488" on="1"/>
        <pt x="71" y="528" on="0"/>
        <pt x="100" y="595" on="0"/>
        <pt x="149" y="645" on="0"/>
        <pt x="215" y="673" on="0"/>
        <pt x="253" y="673" on="1"/>
        <pt x="287" y="673" on="0"/>
        <pt x="346" y="648" on="0"/>
        <pt x="389" y="604" on="0"/>
        <pt x="413" y="544" on="0"/>
      </contour>
      <contour>
        <pt x="171" y="490" on="1"/>
        <pt x="171" y="459" on="0"/>
        <pt x="206" y="421" on="0"/>
        <pt x="235" y="421" on="1"/>
        <pt x="270" y="421" on="0"/>
        <pt x="313" y="469" on="0"/>
        <pt x="313" y="507" on="1"/>
        <pt x="313" y="538" on="0"/>
        <pt x="277" y="576" on="0"/>
        <pt x="248" y="576" on="1"/>
        <pt x="213" y="576" on="0"/>
        <pt x="171" y="528" on="0"/>
      </contour>
    </TTGlyph>
    <TTGlyph name="dieresis" xMin="77" yMin="571" xMax="406" yMax="692">
      <contour>
        <pt x="198" y="571" on="1"/>
        <pt x="77" y="571" on="1"/>
        <pt x="90" y="692" on="1"/>
        <pt x="188" y="692" on="1"/>
        <pt x="209" y="692" on="0"/>
        <pt x="209" y="674" on="1"/>
        <pt x="209" y="670" on="0"/>
        <pt x="208" y="659" on="0"/>
        <pt x="206" y="645" on="1"/>
      </contour>
      <contour>
        <pt x="395" y="571" on="1"/>
        <pt x="274" y="571" on="1"/>
        <pt x="287" y="692" on="1"/>
        <pt x="385" y="692" on="1"/>
        <pt x="406" y="692" on="0"/>
        <pt x="406" y="674" on="1"/>
        <pt x="406" y="670" on="0"/>
        <pt x="405" y="659" on="0"/>
        <pt x="403" y="645" on="1"/>
      </contour>
    </TTGlyph>
    <TTGlyph name="dieresis.cap" xMin="95" yMin="748" xMax="424" yMax="869">
      <contour>
        <pt x="216" y="748" on="1"/>
        <pt x="95" y="748" on="1"/>
        <pt x="108" y="869" on="1"/>
        <pt x="206" y="869" on="1"/>
        <pt x="227" y="869" on="0"/>
        <pt x="227" y="851" on="1"/>
        <pt x="227" y="847" on="0"/>
        <pt x="226" y="836" on="0"/>
        <pt x="224" y="822" on="1"/>
      </contour>
      <contour>
        <pt x="413" y="748" on="1"/>
        <pt x="292" y="748" on="1"/>
        <pt x="305" y="869" on="1"/>
        <pt x="403" y="869" on="1"/>
        <pt x="424" y="869" on="0"/>
        <pt x="424" y="851" on="1"/>
        <pt x="424" y="847" on="0"/>
        <pt x="423" y="836" on="0"/>
        <pt x="421" y="822" on="1"/>
      </contour>
    </TTGlyph>
    <TTGlyph name="divide" xMin="60" yMin="21" xMax="475" yMax="480">
      <contour>
        <pt x="475" y="306" on="1"/>
        <pt x="462" y="196" on="1"/>
        <pt x="60" y="196" on="1"/>
        <pt x="73" y="306" on="1"/>
      </contour>
      <contour>
        <pt x="314" y="121" on="1"/>
        <pt x="312" y="96" on="0"/>
        <pt x="305" y="46" on="0"/>
        <pt x="303" y="21" on="1"/>
        <pt x="179" y="21" on="1"/>
        <pt x="182" y="52" on="0"/>
        <pt x="190" y="113" on="0"/>
        <pt x="193" y="143" on="1"/>
        <pt x="294" y="143" on="1"/>
        <pt x="306" y="143" on="0"/>
        <pt x="314" y="136" on="0"/>
        <pt x="314" y="128" on="1"/>
      </contour>
      <contour>
        <pt x="343" y="358" on="1"/>
        <pt x="220" y="358" on="1"/>
        <pt x="234" y="480" on="1"/>
        <pt x="335" y="480" on="1"/>
        <pt x="347" y="480" on="0"/>
        <pt x="355" y="473" on="0"/>
        <pt x="355" y="465" on="1"/>
        <pt x="355" y="461" on="0"/>
        <pt x="354" y="449" on="0"/>
        <pt x="353" y="443" on="1"/>
      </contour>
    </TTGlyph>
    <TTGlyph name="dollar" xMin="49" yMin="-129" xMax="556" yMax="791">
      <contour>
        <pt x="539" y="544" on="1"/>
        <pt x="469" y="549" on="1"/>
        <pt x="448" y="551" on="0"/>
        <pt x="414" y="552" on="0"/>
        <pt x="394" y="553" on="1"/>
        <pt x="376" y="401" on="1"/>
        <pt x="421" y="383" on="0"/>
        <pt x="487" y="345" on="0"/>
        <pt x="531" y="300" on="0"/>
        <pt x="552" y="245" on="0"/>
        <pt x="552" y="209" on="1"/>
        <pt x="552" y="115" on="0"/>
        <pt x="438" y="-1" on="0"/>
        <pt x="326" y="-9" on="1"/>
        <pt x="298" y="-129" on="1"/>
        <pt x="226" y="-129" on="1"/>
        <pt x="240" y="-6" on="1"/>
        <pt x="192" y="-1" on="0"/>
        <pt x="91" y="28" on="0"/>
        <pt x="49" y="49" on="1"/>
        <pt x="81" y="137" on="1"/>
        <pt x="136" y="128" on="1"/>
        <pt x="170" y="123" on="0"/>
        <pt x="230" y="113" on="0"/>
        <pt x="254" y="111" on="1"/>
        <pt x="277" y="301" on="1"/>
        <pt x="182" y="337" on="0"/>
        <pt x="93" y="427" on="0"/>
        <pt x="93" y="495" on="1"/>
        <pt x="93" y="537" on="0"/>
        <pt x="127" y="601" on="0"/>
        <pt x="188" y="645" on="0"/>
        <pt x="272" y="670" on="0"/>
        <pt x="322" y="672" on="1"/>
        <pt x="351" y="791" on="1"/>
        <pt x="423" y="791" on="1"/>
        <pt x="408" y="669" on="1"/>
        <pt x="445" y="665" on="0"/>
        <pt x="521" y="647" on="0"/>
        <pt x="556" y="635" on="1"/>
      </contour>
      <contour>
        <pt x="425" y="201" on="1"/>
        <pt x="425" y="225" on="0"/>
        <pt x="392" y="256" on="0"/>
        <pt x="360" y="270" on="1"/>
        <pt x="341" y="111" on="1"/>
        <pt x="380" y="118" on="0"/>
        <pt x="425" y="163" on="0"/>
      </contour>
      <contour>
        <pt x="307" y="553" on="1"/>
        <pt x="218" y="549" on="0"/>
        <pt x="218" y="499" on="1"/>
        <pt x="218" y="479" on="0"/>
        <pt x="250" y="448" on="0"/>
        <pt x="293" y="432" on="1"/>
      </contour>
    </TTGlyph>
    <TTGlyph name="dollar.lprop" xMin="28" yMin="-129" xMax="535" yMax="791">
      <component glyphName="dollar" x="-21" y="0" flags="0x4"/>
    </TTGlyph>
    <TTGlyph name="dollar.oprop" xMin="28" yMin="-116" xMax="441" yMax="604">
      <component glyphName="dollar.otab" x="-74" y="0" flags="0x4"/>
    </TTGlyph>
    <TTGlyph name="dollar.otab" xMin="102" yMin="-116" xMax="515" yMax="604">
      <contour>
        <pt x="129" y="118" on="1"/>
        <pt x="197" y="108" on="1"/>
        <pt x="242" y="100" on="0"/>
        <pt x="271" y="99" on="1"/>
        <pt x="284" y="207" on="1"/>
        <pt x="273" y="211" on="1"/>
        <pt x="205" y="233" on="0"/>
        <pt x="139" y="296" on="0"/>
        <pt x="139" y="345" on="1"/>
        <pt x="139" y="379" on="0"/>
        <pt x="168" y="433" on="0"/>
        <pt x="217" y="471" on="0"/>
        <pt x="282" y="493" on="0"/>
        <pt x="318" y="495" on="1"/>
        <pt x="346" y="604" on="1"/>
        <pt x="408" y="604" on="1"/>
        <pt x="394" y="492" on="1"/>
        <pt x="426" y="487" on="0"/>
        <pt x="488" y="471" on="0"/>
        <pt x="515" y="460" on="1"/>
        <pt x="493" y="379" on="1"/>
        <pt x="435" y="385" on="1"/>
        <pt x="382" y="389" on="1"/>
        <pt x="371" y="297" on="1"/>
        <pt x="437" y="275" on="0"/>
        <pt x="509" y="216" on="0"/>
        <pt x="509" y="162" on="1"/>
        <pt x="509" y="87" on="0"/>
        <pt x="417" y="-1" on="0"/>
        <pt x="335" y="-7" on="1"/>
        <pt x="307" y="-116" on="1"/>
        <pt x="245" y="-116" on="1"/>
        <pt x="258" y="-5" on="1"/>
        <pt x="218" y="0" on="0"/>
        <pt x="136" y="23" on="0"/>
        <pt x="102" y="40" on="1"/>
      </contour>
      <contour>
        <pt x="254" y="357" on="1"/>
        <pt x="254" y="336" on="0"/>
        <pt x="297" y="321" on="1"/>
        <pt x="305" y="390" on="1"/>
        <pt x="254" y="385" on="0"/>
      </contour>
      <contour>
        <pt x="392" y="146" on="1"/>
        <pt x="392" y="168" on="0"/>
        <pt x="358" y="183" on="1"/>
        <pt x="348" y="100" on="1"/>
        <pt x="392" y="109" on="0"/>
      </contour>
    </TTGlyph>
    <TTGlyph name="dotaccent" xMin="158" yMin="555" xMax="296" yMax="680">
      <contour>
        <pt x="284" y="555" on="1"/>
        <pt x="158" y="555" on="1"/>
        <pt x="173" y="680" on="1"/>
        <pt x="274" y="680" on="1"/>
        <pt x="296" y="680" on="0"/>
        <pt x="296" y="661" on="1"/>
        <pt x="296" y="657" on="0"/>
        <pt x="295" y="645" on="0"/>
        <pt x="293" y="631" on="1"/>
      </contour>
    </TTGlyph>
    <TTGlyph name="dotaccent.cap" xMin="198" yMin="732" xMax="336" yMax="857">
      <contour>
        <pt x="324" y="732" on="1"/>
        <pt x="198" y="732" on="1"/>
        <pt x="213" y="857" on="1"/>
        <pt x="314" y="857" on="1"/>
        <pt x="336" y="857" on="0"/>
        <pt x="336" y="838" on="1"/>
        <pt x="336" y="834" on="0"/>
        <pt x="335" y="822" on="0"/>
        <pt x="333" y="808" on="1"/>
      </contour>
    </TTGlyph>
    <TTGlyph name="dotlessi" xMin="31" yMin="0" xMax="216" yMax="488">
      <contour>
        <pt x="89" y="488" on="1"/>
        <pt x="216" y="488" on="1"/>
        <pt x="158" y="0" on="1"/>
        <pt x="31" y="0" on="1"/>
      </contour>
    </TTGlyph>
    <TTGlyph name="e" xMin="27" yMin="-8" xMax="492" yMax="496">
      <contour>
        <pt x="433" y="137" on="1"/>
        <pt x="466" y="67" on="1"/>
        <pt x="446" y="51" on="0"/>
        <pt x="397" y="24" on="0"/>
        <pt x="341" y="4" on="0"/>
        <pt x="283" y="-8" on="0"/>
        <pt x="255" y="-8" on="1"/>
        <pt x="203" y="-8" on="0"/>
        <pt x="119" y="25" on="0"/>
        <pt x="59" y="85" on="0"/>
        <pt x="27" y="169" on="0"/>
        <pt x="27" y="220" on="1"/>
        <pt x="27" y="282" on="0"/>
        <pt x="69" y="384" on="0"/>
        <pt x="140" y="456" on="0"/>
        <pt x="231" y="496" on="0"/>
        <pt x="281" y="496" on="1"/>
        <pt x="326" y="496" on="0"/>
        <pt x="403" y="465" on="0"/>
        <pt x="460" y="407" on="0"/>
        <pt x="492" y="326" on="0"/>
        <pt x="492" y="276" on="1"/>
        <pt x="492" y="235" on="0"/>
        <pt x="475" y="204" on="0"/>
        <pt x="456" y="204" on="1"/>
        <pt x="154" y="204" on="1"/>
        <pt x="157" y="156" on="0"/>
        <pt x="217" y="104" on="0"/>
        <pt x="270" y="104" on="1"/>
        <pt x="308" y="104" on="0"/>
        <pt x="371" y="121" on="1"/>
      </contour>
      <contour>
        <pt x="372" y="295" on="1"/>
        <pt x="370" y="335" on="0"/>
        <pt x="323" y="384" on="0"/>
        <pt x="278" y="384" on="1"/>
        <pt x="235" y="384" on="0"/>
        <pt x="174" y="337" on="0"/>
        <pt x="163" y="295" on="1"/>
      </contour>
    </TTGlyph>
    <TTGlyph name="eacute" xMin="27" yMin="-8" xMax="492" yMax="747">
      <component glyphName="e" x="0" y="0" flags="0x204"/>
      <component glyphName="acute" x="78" y="0" flags="0x4"/>
    </TTGlyph>
    <TTGlyph name="ebreve" xMin="27" yMin="-8" xMax="492" yMax="717">
      <component glyphName="e" x="0" y="0" flags="0x204"/>
      <component glyphName="breve" x="57" y="0" flags="0x4"/>
    </TTGlyph>
    <TTGlyph name="ecaron" xMin="27" yMin="-8" xMax="492" yMax="743">
      <component glyphName="e" x="0" y="0" flags="0x204"/>
      <component glyphName="caron" x="95" y="0" flags="0x4"/>
    </TTGlyph>
    <TTGlyph name="ecircumflex" xMin="27" yMin="-8" xMax="492" yMax="732">
      <component glyphName="e" x="0" y="0" flags="0x204"/>
      <component glyphName="circumflex" x="71" y="0" flags="0x4"/>
    </TTGlyph>
    <TTGlyph name="edieresis" xMin="27" yMin="-8" xMax="492" yMax="692">
      <component glyphName="e" x="0" y="0" flags="0x204"/>
      <component glyphName="dieresis" x="62" y="0" flags="0x4"/>
    </TTGlyph>
    <TTGlyph name="edotaccent" xMin="27" yMin="-8" xMax="492" yMax="680">
      <component glyphName="e" x="0" y="0" flags="0x204"/>
      <component glyphName="dotaccent" x="74" y="0" flags="0x4"/>
    </TTGlyph>
    <TTGlyph name="egrave" xMin="27" yMin="-8" xMax="492" yMax="748">
      <component glyphName="e" x="0" y="0" flags="0x204"/>
      <component glyphName="grave" x="84" y="0" flags="0x4"/>
    </TTGlyph>
    <TTGlyph name="eight" xMin="61" yMin="-10" xMax="588" yMax="673">
      <contour>
        <pt x="177" y="355" on="1"/>
        <pt x="153" y="375" on="0"/>
        <pt x="118" y="435" on="0"/>
        <pt x="118" y="475" on="1"/>
        <pt x="118" y="517" on="0"/>
        <pt x="156" y="590" on="0"/>
        <pt x="223" y="643" on="0"/>
        <pt x="313" y="673" on="0"/>
        <pt x="364" y="673" on="1"/>
        <pt x="413" y="673" on="0"/>
        <pt x="495" y="645" on="0"/>
        <pt x="552" y="597" on="0"/>
        <pt x="584" y="532" on="0"/>
        <pt x="584" y="495" on="1"/>
        <pt x="584" y="450" on="0"/>
        <pt x="532" y="371" on="0"/>
        <pt x="494" y="344" on="1"/>
        <pt x="535" y="322" on="0"/>
        <pt x="588" y="260" on="0"/>
        <pt x="588" y="210" on="1"/>
        <pt x="588" y="162" on="0"/>
        <pt x="543" y="81" on="0"/>
        <pt x="468" y="23" on="0"/>
        <pt x="369" y="-10" on="0"/>
        <pt x="315" y="-10" on="1"/>
        <pt x="259" y="-10" on="0"/>
        <pt x="166" y="22" on="0"/>
        <pt x="98" y="78" on="0"/>
        <pt x="61" y="151" on="0"/>
        <pt x="61" y="193" on="1"/>
        <pt x="61" y="250" on="0"/>
        <pt x="125" y="329" on="0"/>
      </contour>
      <contour>
        <pt x="391" y="385" on="1"/>
        <pt x="402" y="380" on="0"/>
        <pt x="414" y="384" on="0"/>
        <pt x="422" y="392" on="1"/>
        <pt x="440" y="410" on="0"/>
        <pt x="466" y="453" on="0"/>
        <pt x="466" y="476" on="1"/>
        <pt x="466" y="512" on="0"/>
        <pt x="406" y="557" on="0"/>
        <pt x="357" y="557" on="1"/>
        <pt x="335" y="557" on="0"/>
        <pt x="294" y="547" on="0"/>
        <pt x="263" y="527" on="0"/>
        <pt x="245" y="498" on="0"/>
        <pt x="245" y="479" on="1"/>
        <pt x="245" y="451" on="0"/>
        <pt x="292" y="422" on="0"/>
        <pt x="324" y="410" on="1"/>
      </contour>
      <contour>
        <pt x="272" y="304" on="1"/>
        <pt x="258" y="309" on="0"/>
        <pt x="247" y="306" on="0"/>
        <pt x="236" y="298" on="1"/>
        <pt x="216" y="282" on="0"/>
        <pt x="190" y="238" on="0"/>
        <pt x="190" y="212" on="1"/>
        <pt x="190" y="164" on="0"/>
        <pt x="264" y="107" on="0"/>
        <pt x="325" y="107" on="1"/>
        <pt x="350" y="107" on="0"/>
        <pt x="397" y="121" on="0"/>
        <pt x="433" y="145" on="0"/>
        <pt x="455" y="179" on="0"/>
        <pt x="455" y="199" on="1"/>
        <pt x="455" y="223" on="0"/>
        <pt x="408" y="252" on="0"/>
        <pt x="356" y="272" on="1"/>
      </contour>
    </TTGlyph>
    <TTGlyph name="eight.lprop" xMin="53" yMin="-10" xMax="580" yMax="673">
      <component glyphName="eight" x="-8" y="0" flags="0x4"/>
    </TTGlyph>
    <TTGlyph name="eight.oprop" xMin="42" yMin="-8" xMax="557" yMax="675">
      <component glyphName="eight.otab" x="-12" y="0" flags="0x4"/>
    </TTGlyph>
    <TTGlyph name="eight.otab" xMin="54" yMin="-8" xMax="569" yMax="675">
      <contour>
        <pt x="171" y="360" on="1"/>
        <pt x="148" y="380" on="0"/>
        <pt x="113" y="441" on="0"/>
        <pt x="113" y="479" on="1"/>
        <pt x="113" y="523" on="0"/>
        <pt x="153" y="595" on="0"/>
        <pt x="219" y="647" on="0"/>
        <pt x="305" y="675" on="0"/>
        <pt x="350" y="675" on="1"/>
        <pt x="396" y="675" on="0"/>
        <pt x="474" y="647" on="0"/>
        <pt x="532" y="598" on="0"/>
        <pt x="565" y="533" on="0"/>
        <pt x="565" y="497" on="1"/>
        <pt x="565" y="451" on="0"/>
        <pt x="513" y="371" on="0"/>
        <pt x="474" y="342" on="1"/>
        <pt x="516" y="320" on="0"/>
        <pt x="569" y="258" on="0"/>
        <pt x="569" y="210" on="1"/>
        <pt x="569" y="162" on="0"/>
        <pt x="527" y="82" on="0"/>
        <pt x="455" y="24" on="0"/>
        <pt x="358" y="-8" on="0"/>
        <pt x="304" y="-8" on="1"/>
        <pt x="251" y="-8" on="0"/>
        <pt x="160" y="22" on="0"/>
        <pt x="92" y="76" on="0"/>
        <pt x="54" y="150" on="0"/>
        <pt x="54" y="195" on="1"/>
        <pt x="54" y="223" on="0"/>
        <pt x="73" y="272" on="0"/>
        <pt x="105" y="313" on="0"/>
        <pt x="147" y="347" on="0"/>
      </contour>
      <contour>
        <pt x="379" y="382" on="1"/>
        <pt x="390" y="378" on="0"/>
        <pt x="398" y="380" on="0"/>
        <pt x="407" y="388" on="1"/>
        <pt x="424" y="405" on="0"/>
        <pt x="451" y="454" on="0"/>
        <pt x="451" y="479" on="1"/>
        <pt x="451" y="519" on="0"/>
        <pt x="388" y="566" on="0"/>
        <pt x="343" y="566" on="1"/>
        <pt x="321" y="566" on="0"/>
        <pt x="282" y="554" on="0"/>
        <pt x="252" y="533" on="0"/>
        <pt x="235" y="503" on="0"/>
        <pt x="235" y="485" on="1"/>
        <pt x="235" y="457" on="0"/>
        <pt x="277" y="421" on="0"/>
        <pt x="314" y="407" on="1"/>
      </contour>
      <contour>
        <pt x="260" y="310" on="1"/>
        <pt x="249" y="315" on="0"/>
        <pt x="238" y="314" on="0"/>
        <pt x="228" y="306" on="1"/>
        <pt x="209" y="290" on="0"/>
        <pt x="179" y="240" on="0"/>
        <pt x="179" y="211" on="1"/>
        <pt x="179" y="163" on="0"/>
        <pt x="249" y="102" on="0"/>
        <pt x="310" y="102" on="1"/>
        <pt x="337" y="102" on="0"/>
        <pt x="385" y="118" on="0"/>
        <pt x="421" y="145" on="0"/>
        <pt x="442" y="179" on="0"/>
        <pt x="442" y="198" on="1"/>
        <pt x="442" y="223" on="0"/>
        <pt x="399" y="257" on="0"/>
        <pt x="346" y="277" on="1"/>
      </contour>
    </TTGlyph>
    <TTGlyph name="ellipsis" xMin="19" yMin="0" xMax="624" yMax="137">
      <contour>
        <pt x="154" y="0" on="1"/>
        <pt x="19" y="0" on="1"/>
        <pt x="35" y="137" on="1"/>
        <pt x="144" y="137" on="1"/>
        <pt x="156" y="137" on="0"/>
        <pt x="168" y="130" on="0"/>
        <pt x="168" y="119" on="1"/>
        <pt x="168" y="117" on="0"/>
        <pt x="166" y="99" on="0"/>
        <pt x="165" y="92" on="1"/>
      </contour>
      <contour>
        <pt x="610" y="0" on="1"/>
        <pt x="475" y="0" on="1"/>
        <pt x="491" y="137" on="1"/>
        <pt x="600" y="137" on="1"/>
        <pt x="612" y="137" on="0"/>
        <pt x="624" y="130" on="0"/>
        <pt x="624" y="119" on="1"/>
        <pt x="624" y="117" on="0"/>
        <pt x="622" y="99" on="0"/>
        <pt x="621" y="92" on="1"/>
      </contour>
      <contour>
        <pt x="382" y="0" on="1"/>
        <pt x="247" y="0" on="1"/>
        <pt x="263" y="137" on="1"/>
        <pt x="372" y="137" on="1"/>
        <pt x="384" y="137" on="0"/>
        <pt x="396" y="130" on="0"/>
        <pt x="396" y="119" on="1"/>
        <pt x="396" y="117" on="0"/>
        <pt x="394" y="99" on="0"/>
        <pt x="393" y="92" on="1"/>
      </contour>
    </TTGlyph>
    <TTGlyph name="emacron" xMin="27" yMin="-8" xMax="492" yMax="682">
      <component glyphName="e" x="0" y="0" flags="0x204"/>
      <component glyphName="macron" x="65" y="0" flags="0x4"/>
    </TTGlyph>
    <TTGlyph name="emdash" xMin="42" yMin="189" xMax="1014" yMax="298">
      <contour>
        <pt x="42" y="189" on="1"/>
        <pt x="55" y="298" on="1"/>
        <pt x="1014" y="298" on="1"/>
        <pt x="1001" y="189" on="1"/>
      </contour>
    </TTGlyph>
    <TTGlyph name="emdash.cap" xMin="53" yMin="276" xMax="1025" yMax="385">
      <contour>
        <pt x="53" y="276" on="1"/>
        <pt x="66" y="385" on="1"/>
        <pt x="1025" y="385" on="1"/>
        <pt x="1012" y="276" on="1"/>
      </contour>
    </TTGlyph>
    <TTGlyph name="endash" xMin="42" yMin="189" xMax="534" yMax="298">
      <contour>
        <pt x="42" y="189" on="1"/>
        <pt x="55" y="298" on="1"/>
        <pt x="534" y="298" on="1"/>
        <pt x="521" y="189" on="1"/>
      </contour>
    </TTGlyph>
    <TTGlyph name="endash.cap" xMin="53" yMin="276" xMax="546" yMax="385">
      <contour>
        <pt x="53" y="276" on="1"/>
        <pt x="66" y="385" on="1"/>
        <pt x="546" y="385" on="1"/>
        <pt x="533" y="276" on="1"/>
      </contour>
    </TTGlyph>
    <TTGlyph name="eng" xMin="30" yMin="-213" xMax="503" yMax="496">
      <contour>
        <pt x="461" y="-38" on="1"/>
        <pt x="450" y="-133" on="0"/>
        <pt x="364" y="-213" on="0"/>
        <pt x="295" y="-213" on="1"/>
        <pt x="272" y="-213" on="0"/>
        <pt x="222" y="-204" on="0"/>
        <pt x="202" y="-196" on="1"/>
        <pt x="210" y="-128" on="1"/>
        <pt x="240" y="-124" on="1"/>
        <pt x="267" y="-120" on="0"/>
        <pt x="302" y="-110" on="0"/>
        <pt x="322" y="-92" on="0"/>
        <pt x="331" y="-64" on="0"/>
        <pt x="334" y="-43" on="1"/>
        <pt x="372" y="279" on="1"/>
        <pt x="374" y="291" on="0"/>
        <pt x="375" y="314" on="0"/>
        <pt x="375" y="321" on="1"/>
        <pt x="375" y="350" on="0"/>
        <pt x="335" y="374" on="0"/>
        <pt x="300" y="374" on="1"/>
        <pt x="276" y="374" on="0"/>
        <pt x="229" y="364" on="0"/>
        <pt x="212" y="357" on="1"/>
        <pt x="204" y="354" on="0"/>
        <pt x="198" y="348" on="0"/>
        <pt x="197" y="340" on="1"/>
        <pt x="157" y="0" on="1"/>
        <pt x="30" y="0" on="1"/>
        <pt x="88" y="488" on="1"/>
        <pt x="185" y="488" on="1"/>
        <pt x="194" y="442" on="1"/>
        <pt x="238" y="467" on="1"/>
        <pt x="266" y="483" on="0"/>
        <pt x="319" y="496" on="0"/>
        <pt x="342" y="496" on="1"/>
        <pt x="383" y="496" on="0"/>
        <pt x="443" y="470" on="0"/>
        <pt x="483" y="425" on="0"/>
        <pt x="503" y="367" on="0"/>
        <pt x="503" y="336" on="1"/>
        <pt x="503" y="322" on="0"/>
        <pt x="500" y="292" on="0"/>
        <pt x="498" y="272" on="1"/>
      </contour>
    </TTGlyph>
    <TTGlyph name="eogonek" xMin="27" yMin="-223" xMax="492" yMax="496">
      <contour>
        <pt x="433" y="137" on="1"/>
        <pt x="466" y="67" on="1"/>
        <pt x="440" y="49" on="0"/>
        <pt x="391" y="10" on="0"/>
        <pt x="353" y="-31" on="0"/>
        <pt x="329" y="-75" on="0"/>
        <pt x="329" y="-97" on="1"/>
        <pt x="329" y="-137" on="0"/>
        <pt x="377" y="-137" on="1"/>
        <pt x="384" y="-137" on="0"/>
        <pt x="400" y="-136" on="0"/>
        <pt x="408" y="-135" on="1"/>
        <pt x="442" y="-130" on="1"/>
        <pt x="453" y="-196" on="1"/>
        <pt x="429" y="-208" on="0"/>
        <pt x="371" y="-223" on="0"/>
        <pt x="348" y="-223" on="1"/>
        <pt x="294" y="-223" on="0"/>
        <pt x="229" y="-165" on="0"/>
        <pt x="229" y="-122" on="1"/>
        <pt x="229" y="-87" on="0"/>
        <pt x="269" y="-28" on="0"/>
        <pt x="298" y="-3" on="1"/>
        <pt x="291" y="-5" on="0"/>
        <pt x="267" y="-8" on="0"/>
        <pt x="255" y="-8" on="1"/>
        <pt x="203" y="-8" on="0"/>
        <pt x="119" y="25" on="0"/>
        <pt x="59" y="85" on="0"/>
        <pt x="27" y="169" on="0"/>
        <pt x="27" y="220" on="1"/>
        <pt x="27" y="282" on="0"/>
        <pt x="69" y="384" on="0"/>
        <pt x="140" y="456" on="0"/>
        <pt x="231" y="496" on="0"/>
        <pt x="281" y="496" on="1"/>
        <pt x="326" y="496" on="0"/>
        <pt x="403" y="465" on="0"/>
        <pt x="460" y="407" on="0"/>
        <pt x="492" y="326" on="0"/>
        <pt x="492" y="276" on="1"/>
        <pt x="492" y="235" on="0"/>
        <pt x="475" y="203" on="0"/>
        <pt x="456" y="203" on="1"/>
        <pt x="154" y="203" on="1"/>
        <pt x="157" y="155" on="0"/>
        <pt x="217" y="104" on="0"/>
        <pt x="270" y="104" on="1"/>
        <pt x="308" y="104" on="0"/>
        <pt x="371" y="121" on="1"/>
      </contour>
      <contour>
        <pt x="372" y="294" on="1"/>
        <pt x="370" y="334" on="0"/>
        <pt x="323" y="384" on="0"/>
        <pt x="278" y="384" on="1"/>
        <pt x="235" y="384" on="0"/>
        <pt x="174" y="336" on="0"/>
        <pt x="163" y="294" on="1"/>
      </contour>
    </TTGlyph>
    <TTGlyph name="equal" xMin="48" yMin="90" xMax="487" yMax="401">
      <contour>
        <pt x="487" y="401" on="1"/>
        <pt x="474" y="291" on="1"/>
        <pt x="72" y="291" on="1"/>
        <pt x="85" y="401" on="1"/>
      </contour>
      <contour>
        <pt x="463" y="200" on="1"/>
        <pt x="450" y="90" on="1"/>
        <pt x="48" y="90" on="1"/>
        <pt x="61" y="200" on="1"/>
      </contour>
    </TTGlyph>
    <TTGlyph name="estimated" xMin="59" yMin="-10" xMax="822" yMax="673">
      <contour>
        <pt x="205" y="323" on="1"/>
        <pt x="197" y="323" on="0"/>
        <pt x="197" y="317" on="1"/>
        <pt x="197" y="130" on="1"/>
        <pt x="197" y="123" on="0"/>
        <pt x="203" y="115" on="0"/>
        <pt x="209" y="109" on="1"/>
        <pt x="253" y="64" on="0"/>
        <pt x="374" y="11" on="0"/>
        <pt x="443" y="11" on="1"/>
        <pt x="517" y="11" on="0"/>
        <pt x="642" y="71" on="0"/>
        <pt x="687" y="121" on="1"/>
        <pt x="743" y="121" on="1"/>
        <pt x="689" y="61" on="0"/>
        <pt x="533" y="-10" on="0"/>
        <pt x="442" y="-10" on="1"/>
        <pt x="363" y="-10" on="0"/>
        <pt x="223" y="43" on="0"/>
        <pt x="119" y="135" on="0"/>
        <pt x="59" y="260" on="0"/>
        <pt x="59" y="331" on="1"/>
        <pt x="59" y="402" on="0"/>
        <pt x="119" y="527" on="0"/>
        <pt x="223" y="620" on="0"/>
        <pt x="363" y="673" on="0"/>
        <pt x="442" y="673" on="1"/>
        <pt x="520" y="673" on="0"/>
        <pt x="658" y="620" on="0"/>
        <pt x="761" y="527" on="0"/>
        <pt x="822" y="402" on="0"/>
        <pt x="822" y="331" on="1"/>
        <pt x="822" y="323" on="1"/>
      </contour>
      <contour>
        <pt x="683" y="537" on="1"/>
        <pt x="683" y="543" on="0"/>
        <pt x="676" y="553" on="0"/>
        <pt x="670" y="559" on="1"/>
        <pt x="628" y="603" on="0"/>
        <pt x="509" y="653" on="0"/>
        <pt x="443" y="653" on="1"/>
        <pt x="374" y="653" on="0"/>
        <pt x="254" y="601" on="0"/>
        <pt x="209" y="556" on="1"/>
        <pt x="203" y="550" on="0"/>
        <pt x="197" y="540" on="0"/>
        <pt x="197" y="532" on="1"/>
        <pt x="197" y="347" on="1"/>
        <pt x="197" y="342" on="0"/>
        <pt x="205" y="342" on="1"/>
        <pt x="675" y="342" on="1"/>
        <pt x="683" y="342" on="0"/>
        <pt x="683" y="347" on="1"/>
      </contour>
    </TTGlyph>
    <TTGlyph name="eth" xMin="35" yMin="-9" xMax="521" yMax="734">
      <contour>
        <pt x="417" y="610" on="1"/>
        <pt x="468" y="553" on="0"/>
        <pt x="521" y="415" on="0"/>
        <pt x="521" y="331" on="1"/>
        <pt x="521" y="261" on="0"/>
        <pt x="486" y="137" on="0"/>
        <pt x="419" y="45" on="0"/>
        <pt x="320" y="-9" on="0"/>
        <pt x="256" y="-9" on="1"/>
        <pt x="209" y="-9" on="0"/>
        <pt x="128" y="25" on="0"/>
        <pt x="69" y="85" on="0"/>
        <pt x="35" y="170" on="0"/>
        <pt x="35" y="221" on="1"/>
        <pt x="35" y="275" on="0"/>
        <pt x="71" y="365" on="0"/>
        <pt x="133" y="430" on="0"/>
        <pt x="217" y="465" on="0"/>
        <pt x="266" y="465" on="1"/>
        <pt x="295" y="465" on="0"/>
        <pt x="357" y="446" on="0"/>
        <pt x="381" y="432" on="1"/>
        <pt x="375" y="464" on="0"/>
        <pt x="342" y="535" on="0"/>
        <pt x="318" y="560" on="1"/>
        <pt x="194" y="499" on="1"/>
        <pt x="148" y="575" on="1"/>
        <pt x="241" y="622" on="1"/>
        <pt x="226" y="632" on="0"/>
        <pt x="194" y="650" on="0"/>
        <pt x="178" y="660" on="1"/>
        <pt x="222" y="729" on="1"/>
        <pt x="286" y="709" on="0"/>
        <pt x="342" y="672" on="1"/>
        <pt x="466" y="734" on="1"/>
        <pt x="511" y="657" on="1"/>
      </contour>
      <contour>
        <pt x="393" y="318" on="1"/>
        <pt x="393" y="329" on="0"/>
        <pt x="385" y="338" on="0"/>
        <pt x="376" y="343" on="1"/>
        <pt x="361" y="351" on="0"/>
        <pt x="315" y="361" on="0"/>
        <pt x="289" y="361" on="1"/>
        <pt x="259" y="361" on="0"/>
        <pt x="209" y="343" on="0"/>
        <pt x="192" y="325" on="1"/>
        <pt x="160" y="290" on="0"/>
        <pt x="160" y="225" on="1"/>
        <pt x="160" y="200" on="0"/>
        <pt x="173" y="156" on="0"/>
        <pt x="198" y="124" on="0"/>
        <pt x="235" y="105" on="0"/>
        <pt x="260" y="105" on="1"/>
        <pt x="295" y="105" on="0"/>
        <pt x="346" y="139" on="0"/>
        <pt x="378" y="198" on="0"/>
        <pt x="393" y="275" on="0"/>
      </contour>
    </TTGlyph>
    <TTGlyph name="exclam" xMin="37" yMin="0" xMax="246" yMax="663">
      <contour>
        <pt x="171" y="0" on="1"/>
        <pt x="37" y="0" on="1"/>
        <pt x="52" y="130" on="1"/>
        <pt x="160" y="130" on="1"/>
        <pt x="184" y="130" on="0"/>
        <pt x="184" y="113" on="1"/>
        <pt x="184" y="111" on="0"/>
        <pt x="182" y="97" on="0"/>
        <pt x="180" y="78" on="1"/>
      </contour>
      <contour>
        <pt x="168" y="195" on="1"/>
        <pt x="83" y="195" on="1"/>
        <pt x="84" y="323" on="1"/>
        <pt x="84" y="367" on="0"/>
        <pt x="95" y="479" on="0"/>
        <pt x="104" y="563" on="1"/>
        <pt x="115" y="663" on="1"/>
        <pt x="246" y="663" on="1"/>
        <pt x="238" y="583" on="1"/>
        <pt x="233" y="529" on="0"/>
        <pt x="217" y="414" on="0"/>
        <pt x="202" y="347" on="1"/>
      </contour>
    </TTGlyph>
    <TTGlyph name="exclamdown" xMin="16" yMin="-175" xMax="225" yMax="488">
      <component glyphName="exclam" x="262" y="488" scale="-0.99994" flags="0x4"/>
    </TTGlyph>
    <TTGlyph name="exclamdown.cap" xMin="39" yMin="0" xMax="248" yMax="663">
      <component glyphName="exclam" x="285" y="663" scale="-0.99994" flags="0x4"/>
    </TTGlyph>
    <TTGlyph name="f" xMin="19" yMin="-206" xMax="458" yMax="719">
      <contour>
        <pt x="29" y="468" on="1"/>
        <pt x="112" y="485" on="1"/>
        <pt x="107" y="498" on="0"/>
        <pt x="104" y="525" on="0"/>
        <pt x="104" y="538" on="1"/>
        <pt x="104" y="577" on="0"/>
        <pt x="134" y="644" on="0"/>
        <pt x="186" y="692" on="0"/>
        <pt x="256" y="719" on="0"/>
        <pt x="297" y="719" on="1"/>
        <pt x="340" y="719" on="0"/>
        <pt x="423" y="691" on="0"/>
        <pt x="458" y="665" on="1"/>
        <pt x="426" y="589" on="1"/>
        <pt x="379" y="599" on="1"/>
        <pt x="359" y="603" on="0"/>
        <pt x="326" y="608" on="0"/>
        <pt x="310" y="608" on="1"/>
        <pt x="270" y="608" on="0"/>
        <pt x="229" y="569" on="0"/>
        <pt x="229" y="533" on="1"/>
        <pt x="229" y="510" on="0"/>
        <pt x="235" y="488" on="1"/>
        <pt x="395" y="488" on="1"/>
        <pt x="383" y="387" on="1"/>
        <pt x="229" y="387" on="1"/>
        <pt x="160" y="-206" on="1"/>
        <pt x="33" y="-206" on="1"/>
        <pt x="102" y="387" on="1"/>
        <pt x="19" y="387" on="1"/>
      </contour>
    </TTGlyph>
</ttFont>
